# Blender v2.78 (sub 0) OBJ File: ''
# www.blender.org
mtllib Door4.mtl
o Door4
v 0.350121 126.000000 2.000021
v 0.350121 0.000000 -2.000000
v 0.350121 -0.000000 2.000000
v 0.350121 126.000000 -1.999979
v 54.350121 72.000000 2.000012
v 54.350121 59.000000 -1.999990
v 54.350121 59.000000 2.000010
v 54.350121 72.000000 -1.999988
v 56.350121 59.000000 2.000010
v 56.350121 6.000000 -1.999999
v 56.350121 6.000000 2.000001
v 56.350121 59.000000 -1.999990
v 56.350121 120.000000 2.000020
v 56.350121 72.000000 -1.999988
v 56.350121 72.000000 2.000012
v 56.350121 120.000000 -1.999980
v 59.350121 71.000000 2.000012
v 59.350121 60.000000 1.000010
v 59.350121 60.000000 2.000010
v 59.350121 71.000000 1.000012
v 59.350121 71.000000 -0.999988
v 59.350121 60.000000 -1.999990
v 59.350121 60.000000 -0.999990
v 59.350121 71.000000 -1.999988
v 7.350121 6.000000 2.000001
v 7.350121 6.000000 -1.999999
v 7.350121 120.000000 2.000020
v 7.350121 120.000000 -1.999980
v 55.350121 60.000000 2.000010
v 55.350121 60.000000 1.000010
v 55.350121 71.000000 2.000012
v 55.350121 71.000000 1.000012
v 55.350121 60.000000 -0.999990
v 55.350121 60.000000 -1.999990
v 55.350121 71.000000 -0.999988
v 55.350121 71.000000 -1.999988
v 59.350121 61.000000 1.000010
v 59.350121 61.000000 -0.999990
v 59.350121 70.000000 1.000011
v 59.350121 70.000000 -0.999989
v 60.350121 -0.000000 2.000000
v 60.350121 0.000000 -2.000000
v 60.350121 59.000000 2.000010
v 60.350121 59.000000 -1.999990
v 60.350121 61.000000 1.000010
v 60.350121 61.000000 -0.999990
v 60.350121 70.000000 1.000011
v 60.350121 70.000000 -0.999989
v 60.350121 72.000000 2.000012
v 60.350121 72.000000 -1.999988
v 60.350121 126.000000 2.000021
v 60.350121 126.000000 -1.999979
v 7.350121 6.000000 2.000001
v 0.350121 126.000000 2.000021
v 0.350121 -0.000000 2.000000
v 7.350121 120.000000 2.000020
v 55.350121 60.000000 2.000010
v 54.350121 72.000000 2.000012
v 54.350121 59.000000 2.000010
v 55.350121 71.000000 2.000012
v 56.350121 6.000000 2.000001
v 56.350121 59.000000 2.000010
v 56.350121 72.000000 2.000012
v 56.350121 120.000000 2.000020
v 59.350121 60.000000 2.000010
v 59.350121 71.000000 2.000012
v 60.350121 -0.000000 2.000000
v 60.350121 59.000000 2.000010
v 60.350121 72.000000 2.000012
v 60.350121 126.000000 2.000021
v 59.350121 60.000000 1.000010
v 55.350121 71.000000 1.000012
v 55.350121 60.000000 1.000010
v 59.350121 71.000000 1.000012
v 60.350121 61.000000 -0.999990
v 59.350121 70.000000 -0.999989
v 59.350121 61.000000 -0.999990
v 60.350121 70.000000 -0.999989
v 59.350121 61.000000 1.000010
v 59.350121 70.000000 1.000011
v 60.350121 61.000000 1.000010
v 60.350121 70.000000 1.000011
v 55.350121 60.000000 -0.999990
v 55.350121 71.000000 -0.999988
v 59.350121 60.000000 -0.999990
v 59.350121 71.000000 -0.999988
v 0.350121 0.000000 -2.000000
v 0.350121 126.000000 -1.999979
v 7.350121 6.000000 -1.999999
v 7.350121 120.000000 -1.999980
v 54.350121 59.000000 -1.999990
v 54.350121 72.000000 -1.999988
v 55.350121 60.000000 -1.999990
v 55.350121 71.000000 -1.999988
v 56.350121 6.000000 -1.999999
v 56.350121 59.000000 -1.999990
v 56.350121 72.000000 -1.999988
v 56.350121 120.000000 -1.999980
v 59.350121 60.000000 -1.999990
v 59.350121 71.000000 -1.999988
v 60.350121 0.000000 -2.000000
v 60.350121 59.000000 -1.999990
v 60.350121 72.000000 -1.999988
v 60.350121 126.000000 -1.999979
v 0.350121 0.000000 -2.000000
v 60.350121 -0.000000 2.000000
v 0.350121 -0.000000 2.000000
v 60.350121 0.000000 -2.000000
v 54.350121 59.000000 -1.999990
v 56.350121 59.000000 2.000010
v 54.350121 59.000000 2.000010
v 56.350121 59.000000 -1.999990
v 59.350121 70.000000 -0.999989
v 60.350121 70.000000 1.000011
v 59.350121 70.000000 1.000011
v 60.350121 70.000000 -0.999989
v 55.350121 71.000000 1.000012
v 59.350121 71.000000 2.000012
v 55.350121 71.000000 2.000012
v 59.350121 71.000000 1.000012
v 55.350121 71.000000 -1.999988
v 59.350121 71.000000 -0.999988
v 55.350121 71.000000 -0.999988
v 59.350121 71.000000 -1.999988
v 7.350121 120.000000 -1.999980
v 56.350121 120.000000 2.000020
v 7.350121 120.000000 2.000020
v 56.350121 120.000000 -1.999980
v 7.350121 6.000000 2.000001
v 56.350121 6.000000 2.000001
v 7.350121 6.000000 -1.999999
v 56.350121 6.000000 -1.999999
v 55.350121 60.000000 2.000010
v 59.350121 60.000000 2.000010
v 55.350121 60.000000 1.000010
v 59.350121 60.000000 1.000010
v 55.350121 60.000000 -0.999990
v 59.350121 60.000000 -0.999990
v 55.350121 60.000000 -1.999990
v 59.350121 60.000000 -1.999990
v 59.350121 61.000000 1.000010
v 60.350121 61.000000 1.000010
v 59.350121 61.000000 -0.999990
v 60.350121 61.000000 -0.999990
v 54.350121 72.000000 2.000012
v 56.350121 72.000000 2.000012
v 54.350121 72.000000 -1.999988
v 56.350121 72.000000 -1.999988
v 0.350121 126.000000 2.000021
v 60.350121 126.000000 2.000021
v 0.350121 126.000000 -1.999979
v 60.350121 126.000000 -1.999979
vt 0.6621 0.5000
vt 0.6621 0.5000
vt 0.6621 0.5000
vt 0.6621 0.5000
vt 0.6660 0.5000
vt 0.6660 0.5000
vt 0.6660 0.5000
vt 0.6660 0.5000
vt 0.6621 0.5000
vt 0.6621 0.5000
vt 0.6621 0.5000
vt 0.6621 0.5000
vt 0.6621 0.5000
vt 0.6621 0.5000
vt 0.6621 0.5000
vt 0.6621 0.5000
vt 0.6660 0.5000
vt 0.6660 0.5000
vt 0.6660 0.5000
vt 0.6660 0.5000
vt 0.6660 0.5000
vt 0.6660 0.5000
vt 0.6660 0.5000
vt 0.6660 0.5000
vt 0.6621 0.5000
vt 0.6621 0.5000
vt 0.6621 0.5000
vt 0.6621 0.5000
vt 0.6660 0.5000
vt 0.6660 0.5000
vt 0.6660 0.5000
vt 0.6660 0.5000
vt 0.6660 0.5000
vt 0.6660 0.5000
vt 0.6660 0.5000
vt 0.6660 0.5000
vt 0.6660 0.5000
vt 0.6660 0.5000
vt 0.6660 0.5000
vt 0.6660 0.5000
vt 0.6621 0.5000
vt 0.6621 0.5000
vt 0.6621 0.5000
vt 0.6621 0.5000
vt 0.6660 0.5000
vt 0.6660 0.5000
vt 0.6660 0.5000
vt 0.6660 0.5000
vt 0.6660 0.5000
vt 0.6660 0.5000
vt 0.6660 0.5000
vt 0.6660 0.5000
vt 0.6621 0.5000
vt 0.6621 0.5000
vt 0.6621 0.5000
vt 0.6621 0.5000
vt 0.6621 0.5000
vt 0.6621 0.5000
vt 0.6621 0.5000
vt 0.6621 0.5000
vt 0.6660 0.5000
vt 0.6660 0.5000
vt 0.6660 0.5000
vt 0.6660 0.5000
vt 0.6621 0.5000
vt 0.6660 0.5000
vt 0.6660 0.5000
vt 0.6621 0.5000
vt 0.6660 0.5000
vt 0.6660 0.5000
vt 0.6621 0.5000
vt 0.6621 0.5000
vt 0.6660 0.5000
vt 0.6621 0.5000
vt 0.6660 0.5000
vt 0.6621 0.5000
vt 0.6621 0.5000
vt 0.6621 0.5000
vt 0.6660 0.5000
vt 0.6660 0.5000
vt 0.6660 0.5000
vt 0.6660 0.5000
vt 0.6660 0.5000
vt 0.6660 0.5000
vt 0.6660 0.5000
vt 0.6660 0.5000
vt 0.6660 0.5000
vt 0.6660 0.5000
vt 0.6660 0.5000
vt 0.6660 0.5000
vt 0.6660 0.5000
vt 0.6660 0.5000
vt 0.6660 0.5000
vt 0.6660 0.5000
vt 0.6621 0.5000
vt 0.6621 0.5000
vt 0.6621 0.5000
vt 0.6621 0.5000
vt 0.6660 0.5000
vt 0.6660 0.5000
vt 0.6660 0.5000
vt 0.6660 0.5000
vt 0.6621 0.5000
vt 0.6660 0.5000
vt 0.6660 0.5000
vt 0.6621 0.5000
vt 0.6660 0.5000
vt 0.6660 0.5000
vt 0.6621 0.5000
vt 0.6621 0.5000
vt 0.6660 0.5000
vt 0.6621 0.5000
vt 0.6660 0.5000
vt 0.6621 0.5000
vt 0.6621 0.5000
vt 0.6621 0.5000
vt 0.6621 0.5000
vt 0.6621 0.5000
vt 0.6621 0.5000
vt 0.6621 0.5000
vt 0.6660 0.5000
vt 0.6660 0.5000
vt 0.6660 0.5000
vt 0.6660 0.5000
vt 0.6660 0.5000
vt 0.6660 0.5000
vt 0.6660 0.5000
vt 0.6660 0.5000
vt 0.6660 0.5000
vt 0.6660 0.5000
vt 0.6660 0.5000
vt 0.6660 0.5000
vt 0.6660 0.5000
vt 0.6660 0.5000
vt 0.6660 0.5000
vt 0.6660 0.5000
vt 0.6621 0.5000
vt 0.6621 0.5000
vt 0.6621 0.5000
vt 0.6621 0.5000
vt 0.6621 0.5000
vt 0.6621 0.5000
vt 0.6621 0.5000
vt 0.6621 0.5000
vt 0.6660 0.5000
vt 0.6660 0.5000
vt 0.6660 0.5000
vt 0.6660 0.5000
vt 0.6660 0.5000
vt 0.6660 0.5000
vt 0.6660 0.5000
vt 0.6660 0.5000
vt 0.6660 0.5000
vt 0.6660 0.5000
vt 0.6660 0.5000
vt 0.6660 0.5000
vt 0.6660 0.5000
vt 0.6660 0.5000
vt 0.6660 0.5000
vt 0.6660 0.5000
vt 0.6621 0.5000
vt 0.6621 0.5000
vt 0.6621 0.5000
vt 0.6621 0.5000
vn -1.0000 0.0000 0.0000
vn 1.0000 0.0000 0.0000
vn 0.0000 -0.0000 1.0000
vn 0.0000 0.0000 -1.0000
vn 0.0000 -1.0000 -0.0000
vn 0.0000 1.0000 0.0000
usemtl palette.004
s 1
f 1/1/1 2/2/1 3/3/1
f 4/4/1 2/2/1 1/1/1
f 5/5/1 6/6/1 7/7/1
f 8/8/1 6/6/1 5/5/1
f 9/9/1 10/10/1 11/11/1
f 12/12/1 10/10/1 9/9/1
f 13/13/1 14/14/1 15/15/1
f 16/16/1 14/14/1 13/13/1
f 17/17/1 18/18/1 19/19/1
f 20/20/1 18/18/1 17/17/1
f 21/21/1 22/22/1 23/23/1
f 24/24/1 22/22/1 21/21/1
f 25/25/2 26/26/2 27/27/2
f 27/27/2 26/26/2 28/28/2
f 29/29/2 30/30/2 31/31/2
f 31/31/2 30/30/2 32/32/2
f 33/33/2 34/34/2 35/35/2
f 35/35/2 34/34/2 36/36/2
f 37/37/2 38/38/2 39/39/2
f 39/39/2 38/38/2 40/40/2
f 41/41/2 42/42/2 43/43/2
f 43/43/2 42/42/2 44/44/2
f 43/45/2 44/46/2 45/47/2
f 45/47/2 44/46/2 46/48/2
f 43/45/2 45/47/2 47/49/2
f 46/48/2 44/46/2 48/50/2
f 43/45/2 47/49/2 49/51/2
f 47/49/2 48/50/2 49/51/2
f 48/50/2 44/46/2 50/52/2
f 49/51/2 48/50/2 50/52/2
f 49/53/2 50/54/2 51/55/2
f 51/55/2 50/54/2 52/56/2
f 53/57/3 54/58/3 55/59/3
f 56/60/3 54/58/3 53/57/3
f 57/61/3 58/62/3 59/63/3
f 60/64/3 58/62/3 57/61/3
f 61/65/3 53/57/3 55/59/3
f 62/66/3 57/61/3 59/63/3
f 63/67/3 58/62/3 60/64/3
f 64/68/3 54/58/3 56/60/3
f 65/69/3 57/61/3 62/66/3
f 66/70/3 63/67/3 60/64/3
f 67/71/3 62/72/3 61/65/3
f 67/71/3 61/65/3 55/59/3
f 68/73/3 66/70/3 65/69/3
f 68/74/3 62/72/3 67/71/3
f 68/73/3 65/69/3 62/66/3
f 69/75/3 63/67/3 66/70/3
f 69/75/3 66/70/3 68/73/3
f 69/76/3 64/68/3 63/77/3
f 70/78/3 54/58/3 64/68/3
f 70/78/3 64/68/3 69/76/3
f 71/79/3 72/80/3 73/81/3
f 74/82/3 72/80/3 71/79/3
f 75/83/3 76/84/3 77/85/3
f 78/86/3 76/84/3 75/83/3
f 79/87/4 80/88/4 81/89/4
f 81/89/4 80/88/4 82/90/4
f 83/91/4 84/92/4 85/93/4
f 85/93/4 84/92/4 86/94/4
f 87/95/4 88/96/4 89/97/4
f 89/97/4 88/96/4 90/98/4
f 91/99/4 92/100/4 93/101/4
f 93/101/4 92/100/4 94/102/4
f 87/95/4 89/97/4 95/103/4
f 91/99/4 93/101/4 96/104/4
f 94/102/4 92/100/4 97/105/4
f 90/98/4 88/96/4 98/106/4
f 96/104/4 93/101/4 99/107/4
f 94/102/4 97/105/4 100/108/4
f 95/103/4 96/109/4 101/110/4
f 87/95/4 95/103/4 101/110/4
f 99/107/4 100/108/4 102/111/4
f 101/110/4 96/109/4 102/112/4
f 96/104/4 99/107/4 102/111/4
f 100/108/4 97/105/4 103/113/4
f 102/111/4 100/108/4 103/113/4
f 97/114/4 98/106/4 103/115/4
f 98/106/4 88/96/4 104/116/4
f 103/115/4 98/106/4 104/116/4
f 105/117/5 106/118/5 107/119/5
f 108/120/5 106/118/5 105/117/5
f 109/121/5 110/122/5 111/123/5
f 112/124/5 110/122/5 109/121/5
f 113/125/5 114/126/5 115/127/5
f 116/128/5 114/126/5 113/125/5
f 117/129/5 118/130/5 119/131/5
f 120/132/5 118/130/5 117/129/5
f 121/133/5 122/134/5 123/135/5
f 124/136/5 122/134/5 121/133/5
f 125/137/5 126/138/5 127/139/5
f 128/140/5 126/138/5 125/137/5
f 129/141/6 130/142/6 131/143/6
f 131/143/6 130/142/6 132/144/6
f 133/145/6 134/146/6 135/147/6
f 135/147/6 134/146/6 136/148/6
f 137/149/6 138/150/6 139/151/6
f 139/151/6 138/150/6 140/152/6
f 141/153/6 142/154/6 143/155/6
f 143/155/6 142/154/6 144/156/6
f 145/157/6 146/158/6 147/159/6
f 147/159/6 146/158/6 148/160/6
f 149/161/6 150/162/6 151/163/6
f 151/163/6 150/162/6 152/164/6
