# MagicaVoxel @ Ephtracy

# group
g Bath

# material
mtllib Bath.mtl
usemtl palette

# normals
vn -1 0 0
vn 1 0 0
vn 0 0 1
vn 0 0 -1
vn 0 -1 0
vn 0 1 0

# texcoords
vt 0.693359 0.5
vt 0.798828 0.5
vt 0.822266 0.5
vt 0.845703 0.5
vt 0.849609 0.5
vt 0.876953 0.5

# verts
v -63 0 25
v -63 0 -25
v -63 22 25
v -63 22 -25
v -11 22 -22
v -11 22 -25
v -11 23 -22
v -11 23 -25
v -7 22 -22
v -7 22 -25
v -7 23 -22
v -7 23 -25
v -5 2 2
v -5 2 1
v -5 2 -2
v -5 2 -3
v -5 3 2
v -5 3 1
v -5 3 -2
v -5 3 -3
v -4 2 1
v -4 2 -0
v -4 2 -1
v -4 2 -2
v -4 3 1
v -4 3 -0
v -4 3 -1
v -4 3 -2
v -4 23 -23
v -4 23 -25
v -4 31 -16
v -4 31 -18
v -4 32 -15
v -4 32 -16
v -4 32 -18
v -4 32 -23
v -4 34 -15
v -4 34 -25
v -3 2 3
v -3 2 1
v -3 2 -2
v -3 2 -4
v -3 3 3
v -3 3 1
v -3 3 -2
v -3 3 -4
v -2 2 -0
v -2 2 -1
v -2 3 -0
v -2 3 -1
v -2 12 -20
v -2 12 -22
v -2 14 -20
v -2 14 -22
v -1 2 2
v -1 2 1
v -1 2 -2
v -1 2 -3
v -1 3 2
v -1 3 1
v -1 3 -2
v -1 3 -3
v 0 2 3
v 0 2 2
v 0 2 -3
v 0 2 -4
v 0 3 3
v 0 3 2
v 0 3 -3
v 0 3 -4
v 1 1 3
v 1 1 -4
v 1 2 3
v 1 2 2
v 1 2 -0
v 1 2 -1
v 1 2 -3
v 1 2 -4
v 1 3 2
v 1 3 -0
v 1 3 -1
v 1 3 -3
v 2 3 4
v 2 3 -5
v 2 4 4
v 2 4 -5
v 2 22 -22
v 2 22 -25
v 2 23 -22
v 2 23 -25
v 58 4 20
v 58 4 -20
v 58 21 20
v 58 21 -20
v 59 21 21
v 59 21 -21
v 59 22 21
v 59 22 -21
v -59 21 21
v -59 21 -21
v -59 22 21
v -59 22 -21
v -58 4 20
v -58 4 -20
v -58 21 20
v -58 21 -20
v -8 22 -22
v -8 22 -25
v -8 23 -22
v -8 23 -25
v -7 3 4
v -7 3 -5
v -7 4 4
v -7 4 -5
v -6 1 3
v -6 1 -4
v -6 2 3
v -6 2 2
v -6 2 -0
v -6 2 -1
v -6 2 -3
v -6 2 -4
v -6 3 2
v -6 3 -0
v -6 3 -1
v -6 3 -3
v -5 2 3
v -5 2 2
v -5 2 -3
v -5 2 -4
v -5 3 3
v -5 3 2
v -5 3 -3
v -5 3 -4
v -4 2 2
v -4 2 1
v -4 2 -2
v -4 2 -3
v -4 3 2
v -4 3 1
v -4 3 -2
v -4 3 -3
v -4 12 -20
v -4 12 -22
v -4 14 -20
v -4 14 -22
v -3 2 -0
v -3 2 -1
v -3 3 -0
v -3 3 -1
v -2 2 3
v -2 2 1
v -2 2 -2
v -2 2 -4
v -2 3 3
v -2 3 1
v -2 3 -2
v -2 3 -4
v -2 23 -23
v -2 23 -25
v -2 31 -16
v -2 31 -18
v -2 32 -15
v -2 32 -16
v -2 32 -18
v -2 32 -23
v -2 34 -15
v -2 34 -25
v -1 2 1
v -1 2 -0
v -1 2 -1
v -1 2 -2
v -1 3 1
v -1 3 -0
v -1 3 -1
v -1 3 -2
v 0 2 2
v 0 2 1
v 0 2 -2
v 0 2 -3
v 0 3 2
v 0 3 1
v 0 3 -2
v 0 3 -3
v 1 22 -22
v 1 22 -25
v 1 23 -22
v 1 23 -25
v 5 22 -22
v 5 22 -25
v 5 23 -22
v 5 23 -25
v 63 0 25
v 63 0 -25
v 63 22 25
v 63 22 -25
v -63 0 25
v -63 22 25
v 63 0 25
v 63 22 25
v -5 2 2
v -5 3 2
v -4 2 2
v -4 3 2
v -1 2 2
v -1 3 2
v 0 2 2
v 0 3 2
v -4 2 1
v -4 3 1
v -3 2 1
v -3 3 1
v -2 2 1
v -2 3 1
v -1 2 1
v -1 3 1
v -6 2 -0
v -6 3 -0
v -4 2 -0
v -4 3 -0
v -1 2 -0
v -1 3 -0
v 1 2 -0
v 1 3 -0
v -3 2 -1
v -3 3 -1
v -2 2 -1
v -2 3 -1
v -5 2 -2
v -5 3 -2
v -4 2 -2
v -4 3 -2
v -1 2 -2
v -1 3 -2
v 0 2 -2
v 0 3 -2
v -6 2 -3
v -6 3 -3
v -5 2 -3
v -5 3 -3
v 0 2 -3
v 0 3 -3
v 1 2 -3
v 1 3 -3
v -6 1 -4
v -6 2 -4
v -5 2 -4
v -5 3 -4
v -3 2 -4
v -3 3 -4
v -2 2 -4
v -2 3 -4
v 0 2 -4
v 0 3 -4
v 1 1 -4
v 1 2 -4
v -7 3 -5
v -7 4 -5
v 2 3 -5
v 2 4 -5
v -4 32 -15
v -4 34 -15
v -2 32 -15
v -2 34 -15
v -4 31 -16
v -4 32 -16
v -2 31 -16
v -2 32 -16
v -58 4 -20
v -58 21 -20
v -4 12 -20
v -4 14 -20
v -2 12 -20
v -2 14 -20
v 58 4 -20
v 58 21 -20
v -59 21 -21
v -59 22 -21
v 59 21 -21
v 59 22 -21
v -11 22 -22
v -11 23 -22
v -8 22 -22
v -8 23 -22
v -7 22 -22
v -7 23 -22
v -4 12 -22
v -4 14 -22
v -2 12 -22
v -2 14 -22
v 1 22 -22
v 1 23 -22
v 2 22 -22
v 2 23 -22
v 5 22 -22
v 5 23 -22
v -4 23 -23
v -4 32 -23
v -2 23 -23
v -2 32 -23
v -59 21 21
v -59 22 21
v 59 21 21
v 59 22 21
v -58 4 20
v -58 21 20
v 58 4 20
v 58 21 20
v -7 3 4
v -7 4 4
v 2 3 4
v 2 4 4
v -6 1 3
v -6 2 3
v -5 2 3
v -5 3 3
v -3 2 3
v -3 3 3
v -2 2 3
v -2 3 3
v 0 2 3
v 0 3 3
v 1 1 3
v 1 2 3
v -6 2 2
v -6 3 2
v -5 2 2
v -5 3 2
v 0 2 2
v 0 3 2
v 1 2 2
v 1 3 2
v -5 2 1
v -5 3 1
v -4 2 1
v -4 3 1
v -1 2 1
v -1 3 1
v 0 2 1
v 0 3 1
v -3 2 -0
v -3 3 -0
v -2 2 -0
v -2 3 -0
v -6 2 -1
v -6 3 -1
v -4 2 -1
v -4 3 -1
v -1 2 -1
v -1 3 -1
v 1 2 -1
v 1 3 -1
v -4 2 -2
v -4 3 -2
v -3 2 -2
v -3 3 -2
v -2 2 -2
v -2 3 -2
v -1 2 -2
v -1 3 -2
v -5 2 -3
v -5 3 -3
v -4 2 -3
v -4 3 -3
v -1 2 -3
v -1 3 -3
v 0 2 -3
v 0 3 -3
v -4 31 -18
v -4 32 -18
v -2 31 -18
v -2 32 -18
v -63 0 -25
v -63 22 -25
v -11 22 -25
v -11 23 -25
v -8 22 -25
v -8 23 -25
v -7 22 -25
v -7 23 -25
v -4 23 -25
v -4 34 -25
v -2 23 -25
v -2 34 -25
v 1 22 -25
v 1 23 -25
v 2 22 -25
v 2 23 -25
v 5 22 -25
v 5 23 -25
v 63 0 -25
v 63 22 -25
v -63 0 25
v 63 0 25
v -6 0 3
v 1 0 3
v -6 0 -4
v 1 0 -4
v -63 0 -25
v 63 0 -25
v -6 2 3
v -5 2 3
v -3 2 3
v -2 2 3
v 0 2 3
v 1 2 3
v -6 2 2
v -5 2 2
v -4 2 2
v -1 2 2
v 0 2 2
v 1 2 2
v -5 2 1
v -4 2 1
v -3 2 1
v -2 2 1
v -1 2 1
v 0 2 1
v -6 2 -0
v -4 2 -0
v -3 2 -0
v -2 2 -0
v -1 2 -0
v 1 2 -0
v -6 2 -1
v -4 2 -1
v -3 2 -1
v -2 2 -1
v -1 2 -1
v 1 2 -1
v -5 2 -2
v -4 2 -2
v -3 2 -2
v -2 2 -2
v -1 2 -2
v 0 2 -2
v -6 2 -3
v -5 2 -3
v -4 2 -3
v -1 2 -3
v 0 2 -3
v 1 2 -3
v -6 2 -4
v -5 2 -4
v -3 2 -4
v -2 2 -4
v 0 2 -4
v 1 2 -4
v -4 14 -20
v -2 14 -20
v -4 14 -22
v -2 14 -22
v -4 31 -16
v -2 31 -16
v -4 31 -18
v -2 31 -18
v -4 32 -15
v -2 32 -15
v -4 32 -16
v -2 32 -16
v -4 32 -18
v -2 32 -18
v -4 32 -23
v -2 32 -23
v -6 1 3
v 1 1 3
v -6 1 -4
v 1 1 -4
v -7 3 4
v 2 3 4
v -6 3 3
v -5 3 3
v -3 3 3
v -2 3 3
v 0 3 3
v 1 3 3
v -6 3 2
v -5 3 2
v -4 3 2
v -1 3 2
v 0 3 2
v 1 3 2
v -5 3 1
v -4 3 1
v -3 3 1
v -2 3 1
v -1 3 1
v 0 3 1
v -6 3 -0
v -4 3 -0
v -3 3 -0
v -2 3 -0
v -1 3 -0
v 1 3 -0
v -6 3 -1
v -4 3 -1
v -3 3 -1
v -2 3 -1
v -1 3 -1
v 1 3 -1
v -5 3 -2
v -4 3 -2
v -3 3 -2
v -2 3 -2
v -1 3 -2
v 0 3 -2
v -6 3 -3
v -5 3 -3
v -4 3 -3
v -1 3 -3
v 0 3 -3
v 1 3 -3
v -6 3 -4
v -5 3 -4
v -3 3 -4
v -2 3 -4
v 0 3 -4
v 1 3 -4
v -7 3 -5
v 2 3 -5
v -58 4 20
v 58 4 20
v -7 4 4
v 2 4 4
v -7 4 -5
v 2 4 -5
v -58 4 -20
v 58 4 -20
v -4 12 -20
v -2 12 -20
v -4 12 -22
v -2 12 -22
v -59 21 21
v 59 21 21
v -58 21 20
v 58 21 20
v -58 21 -20
v 58 21 -20
v -59 21 -21
v 59 21 -21
v -63 22 25
v 63 22 25
v -59 22 21
v 59 22 21
v -59 22 -21
v 59 22 -21
v -11 22 -22
v -8 22 -22
v -7 22 -22
v 1 22 -22
v 2 22 -22
v 5 22 -22
v -63 22 -25
v -11 22 -25
v -8 22 -25
v -7 22 -25
v 1 22 -25
v 2 22 -25
v 5 22 -25
v 63 22 -25
v -11 23 -22
v -8 23 -22
v -7 23 -22
v 1 23 -22
v 2 23 -22
v 5 23 -22
v -10 23 -23
v -9 23 -23
v -4 23 -23
v -2 23 -23
v 3 23 -23
v 4 23 -23
v -10 23 -24
v -9 23 -24
v 3 23 -24
v 4 23 -24
v -11 23 -25
v -8 23 -25
v -7 23 -25
v -4 23 -25
v -2 23 -25
v 1 23 -25
v 2 23 -25
v 5 23 -25
v -4 34 -15
v -2 34 -15
v -4 34 -25
v -2 34 -25

# faces
f 3/6/1 2/6/1 1/6/1
f 4/6/1 2/6/1 3/6/1
f 7/4/1 6/4/1 5/4/1
f 8/4/1 6/4/1 7/4/1
f 11/4/1 10/4/1 9/4/1
f 12/4/1 10/4/1 11/4/1
f 17/3/1 14/3/1 13/3/1
f 18/3/1 14/3/1 17/3/1
f 19/3/1 16/3/1 15/3/1
f 20/3/1 16/3/1 19/3/1
f 25/3/1 22/3/1 21/3/1
f 26/3/1 22/3/1 25/3/1
f 27/3/1 24/3/1 23/3/1
f 28/3/1 24/3/1 27/3/1
f 34/3/1 32/3/1 31/3/1
f 35/3/1 32/3/1 34/3/1
f 36/4/1 30/4/1 29/4/1
f 37/4/1 35/4/1 34/4/1
f 37/4/1 36/4/1 35/4/1
f 37/4/1 34/4/1 33/4/1
f 38/4/1 30/4/1 36/4/1
f 38/4/1 36/4/1 37/4/1
f 43/3/1 40/3/1 39/3/1
f 44/3/1 40/3/1 43/3/1
f 45/3/1 42/3/1 41/3/1
f 46/3/1 42/3/1 45/3/1
f 49/3/1 48/3/1 47/3/1
f 50/3/1 48/3/1 49/3/1
f 53/6/1 52/6/1 51/6/1
f 54/6/1 52/6/1 53/6/1
f 59/3/1 56/3/1 55/3/1
f 60/3/1 56/3/1 59/3/1
f 61/3/1 58/3/1 57/3/1
f 62/3/1 58/3/1 61/3/1
f 67/3/1 64/3/1 63/3/1
f 68/3/1 64/3/1 67/3/1
f 69/3/1 66/3/1 65/3/1
f 70/3/1 66/3/1 69/3/1
f 73/6/1 72/6/1 71/6/1
f 74/6/1 72/6/1 73/6/1
f 75/6/1 72/6/1 74/6/1
f 76/6/1 72/6/1 75/6/1
f 77/6/1 72/6/1 76/6/1
f 78/6/1 72/6/1 77/6/1
f 79/6/1 75/6/1 74/6/1
f 80/6/1 75/6/1 79/6/1
f 81/6/1 77/6/1 76/6/1
f 82/6/1 77/6/1 81/6/1
f 85/6/1 84/6/1 83/6/1
f 86/6/1 84/6/1 85/6/1
f 89/4/1 88/4/1 87/4/1
f 90/4/1 88/4/1 89/4/1
f 93/6/1 92/6/1 91/6/1
f 94/6/1 92/6/1 93/6/1
f 97/6/1 96/6/1 95/6/1
f 98/6/1 96/6/1 97/6/1
f 99/6/2 100/6/2 101/6/2
f 101/6/2 100/6/2 102/6/2
f 103/6/2 104/6/2 105/6/2
f 105/6/2 104/6/2 106/6/2
f 107/4/2 108/4/2 109/4/2
f 109/4/2 108/4/2 110/4/2
f 111/6/2 112/6/2 113/6/2
f 113/6/2 112/6/2 114/6/2
f 115/6/2 116/6/2 117/6/2
f 117/6/2 116/6/2 118/6/2
f 118/6/2 116/6/2 119/6/2
f 119/6/2 116/6/2 120/6/2
f 120/6/2 116/6/2 121/6/2
f 121/6/2 116/6/2 122/6/2
f 118/6/2 119/6/2 123/6/2
f 123/6/2 119/6/2 124/6/2
f 120/6/2 121/6/2 125/6/2
f 125/6/2 121/6/2 126/6/2
f 127/3/2 128/3/2 131/3/2
f 131/3/2 128/3/2 132/3/2
f 129/3/2 130/3/2 133/3/2
f 133/3/2 130/3/2 134/3/2
f 135/3/2 136/3/2 139/3/2
f 139/3/2 136/3/2 140/3/2
f 137/3/2 138/3/2 141/3/2
f 141/3/2 138/3/2 142/3/2
f 143/6/2 144/6/2 145/6/2
f 145/6/2 144/6/2 146/6/2
f 147/3/2 148/3/2 149/3/2
f 149/3/2 148/3/2 150/3/2
f 151/3/2 152/3/2 155/3/2
f 155/3/2 152/3/2 156/3/2
f 153/3/2 154/3/2 157/3/2
f 157/3/2 154/3/2 158/3/2
f 161/3/2 162/3/2 164/3/2
f 164/3/2 162/3/2 165/3/2
f 159/4/2 160/4/2 166/4/2
f 164/4/2 165/4/2 167/4/2
f 165/4/2 166/4/2 167/4/2
f 163/4/2 164/4/2 167/4/2
f 166/4/2 160/4/2 168/4/2
f 167/4/2 166/4/2 168/4/2
f 169/3/2 170/3/2 173/3/2
f 173/3/2 170/3/2 174/3/2
f 171/3/2 172/3/2 175/3/2
f 175/3/2 172/3/2 176/3/2
f 177/3/2 178/3/2 181/3/2
f 181/3/2 178/3/2 182/3/2
f 179/3/2 180/3/2 183/3/2
f 183/3/2 180/3/2 184/3/2
f 185/4/2 186/4/2 187/4/2
f 187/4/2 186/4/2 188/4/2
f 189/4/2 190/4/2 191/4/2
f 191/4/2 190/4/2 192/4/2
f 193/6/2 194/6/2 195/6/2
f 195/6/2 194/6/2 196/6/2
f 199/6/3 198/6/3 197/6/3
f 200/6/3 198/6/3 199/6/3
f 203/3/3 202/3/3 201/3/3
f 204/3/3 202/3/3 203/3/3
f 207/3/3 206/3/3 205/3/3
f 208/3/3 206/3/3 207/3/3
f 211/3/3 210/3/3 209/3/3
f 212/3/3 210/3/3 211/3/3
f 215/3/3 214/3/3 213/3/3
f 216/3/3 214/3/3 215/3/3
f 219/3/3 218/3/3 217/3/3
f 220/3/3 218/3/3 219/3/3
f 223/3/3 222/3/3 221/3/3
f 224/3/3 222/3/3 223/3/3
f 227/3/3 226/3/3 225/3/3
f 228/3/3 226/3/3 227/3/3
f 231/3/3 230/3/3 229/3/3
f 232/3/3 230/3/3 231/3/3
f 235/3/3 234/3/3 233/3/3
f 236/3/3 234/3/3 235/3/3
f 239/3/3 238/3/3 237/3/3
f 240/3/3 238/3/3 239/3/3
f 243/3/3 242/3/3 241/3/3
f 244/3/3 242/3/3 243/3/3
f 247/6/3 246/6/3 245/6/3
f 249/6/3 247/6/3 245/6/3
f 249/6/3 248/6/3 247/6/3
f 250/6/3 248/6/3 249/6/3
f 251/6/3 249/6/3 245/6/3
f 253/6/3 251/6/3 245/6/3
f 253/6/3 252/6/3 251/6/3
f 254/6/3 252/6/3 253/6/3
f 255/6/3 253/6/3 245/6/3
f 256/6/3 253/6/3 255/6/3
f 259/6/3 258/6/3 257/6/3
f 260/6/3 258/6/3 259/6/3
f 263/4/3 262/4/3 261/4/3
f 264/4/3 262/4/3 263/4/3
f 267/3/3 266/3/3 265/3/3
f 268/3/3 266/3/3 267/3/3
f 271/6/3 270/6/3 269/6/3
f 272/6/3 270/6/3 271/6/3
f 273/6/3 271/6/3 269/6/3
f 274/6/3 270/6/3 272/6/3
f 275/6/3 273/6/3 269/6/3
f 275/6/3 274/6/3 273/6/3
f 276/6/3 270/6/3 274/6/3
f 276/6/3 274/6/3 275/6/3
f 279/6/3 278/6/3 277/6/3
f 280/6/3 278/6/3 279/6/3
f 283/4/3 282/4/3 281/4/3
f 284/4/3 282/4/3 283/4/3
f 289/5/3 288/5/3 287/5/3
f 290/5/3 288/5/3 289/5/3
f 291/4/3 286/4/3 285/4/3
f 292/4/3 286/4/3 291/4/3
f 295/4/3 294/4/3 293/4/3
f 296/4/3 294/4/3 295/4/3
f 299/4/3 298/4/3 297/4/3
f 300/4/3 298/4/3 299/4/3
f 301/6/4 302/6/4 303/6/4
f 303/6/4 302/6/4 304/6/4
f 305/6/4 306/6/4 307/6/4
f 307/6/4 306/6/4 308/6/4
f 309/6/4 310/6/4 311/6/4
f 311/6/4 310/6/4 312/6/4
f 313/6/4 314/6/4 315/6/4
f 313/6/4 315/6/4 317/6/4
f 315/6/4 316/6/4 317/6/4
f 317/6/4 316/6/4 318/6/4
f 313/6/4 317/6/4 319/6/4
f 313/6/4 319/6/4 321/6/4
f 319/6/4 320/6/4 321/6/4
f 321/6/4 320/6/4 322/6/4
f 313/6/4 321/6/4 323/6/4
f 323/6/4 321/6/4 324/6/4
f 325/3/4 326/3/4 327/3/4
f 327/3/4 326/3/4 328/3/4
f 329/3/4 330/3/4 331/3/4
f 331/3/4 330/3/4 332/3/4
f 333/3/4 334/3/4 335/3/4
f 335/3/4 334/3/4 336/3/4
f 337/3/4 338/3/4 339/3/4
f 339/3/4 338/3/4 340/3/4
f 341/3/4 342/3/4 343/3/4
f 343/3/4 342/3/4 344/3/4
f 345/3/4 346/3/4 347/3/4
f 347/3/4 346/3/4 348/3/4
f 349/3/4 350/3/4 351/3/4
f 351/3/4 350/3/4 352/3/4
f 353/3/4 354/3/4 355/3/4
f 355/3/4 354/3/4 356/3/4
f 357/3/4 358/3/4 359/3/4
f 359/3/4 358/3/4 360/3/4
f 361/3/4 362/3/4 363/3/4
f 363/3/4 362/3/4 364/3/4
f 365/3/4 366/3/4 367/3/4
f 367/3/4 366/3/4 368/3/4
f 369/3/4 370/3/4 371/3/4
f 371/3/4 370/3/4 372/3/4
f 373/6/4 374/6/4 375/6/4
f 373/6/4 375/6/4 377/6/4
f 375/4/4 376/4/4 377/4/4
f 377/4/4 376/4/4 378/4/4
f 373/6/4 377/6/4 379/6/4
f 379/4/4 380/4/4 381/4/4
f 379/4/4 381/4/4 383/4/4
f 381/4/4 382/4/4 383/4/4
f 383/4/4 382/4/4 384/4/4
f 373/6/4 379/6/4 385/6/4
f 379/4/4 383/4/4 385/4/4
f 385/4/4 383/4/4 386/4/4
f 373/6/4 385/6/4 387/6/4
f 373/6/4 387/6/4 389/6/4
f 387/4/4 388/4/4 389/4/4
f 389/4/4 388/4/4 390/4/4
f 373/6/4 389/6/4 391/6/4
f 391/6/4 389/6/4 392/6/4
f 395/6/5 394/6/5 393/6/5
f 396/6/5 394/6/5 395/6/5
f 397/6/5 395/6/5 393/6/5
f 397/5/5 396/5/5 395/5/5
f 398/6/5 394/6/5 396/6/5
f 398/5/5 396/5/5 397/5/5
f 399/6/5 397/6/5 393/6/5
f 399/6/5 398/6/5 397/6/5
f 400/6/5 394/6/5 398/6/5
f 400/6/5 398/6/5 399/6/5
f 407/3/5 402/3/5 401/3/5
f 408/3/5 402/3/5 407/3/5
f 411/3/5 406/3/5 405/3/5
f 412/3/5 406/3/5 411/3/5
f 413/3/5 409/3/5 408/3/5
f 414/3/5 409/3/5 413/3/5
f 415/3/5 404/3/5 403/3/5
f 416/3/5 404/3/5 415/3/5
f 417/3/5 411/3/5 410/3/5
f 418/3/5 411/3/5 417/3/5
f 420/3/5 416/3/5 415/3/5
f 420/3/5 417/3/5 416/3/5
f 420/3/5 415/3/5 414/3/5
f 421/3/5 417/3/5 420/3/5
f 422/3/5 417/3/5 421/3/5
f 423/3/5 417/3/5 422/3/5
f 425/3/5 420/3/5 419/3/5
f 425/3/5 421/3/5 420/3/5
f 426/3/5 421/3/5 425/3/5
f 427/3/5 421/3/5 426/3/5
f 428/3/5 423/3/5 422/3/5
f 428/3/5 424/3/5 423/3/5
f 429/3/5 424/3/5 428/3/5
f 430/3/5 424/3/5 429/3/5
f 432/3/5 427/3/5 426/3/5
f 432/3/5 429/3/5 428/3/5
f 432/3/5 428/3/5 427/3/5
f 433/3/5 429/3/5 432/3/5
f 434/3/5 429/3/5 433/3/5
f 435/3/5 429/3/5 434/3/5
f 438/3/5 432/3/5 431/3/5
f 439/3/5 432/3/5 438/3/5
f 440/3/5 436/3/5 435/3/5
f 441/3/5 436/3/5 440/3/5
f 443/3/5 438/3/5 437/3/5
f 444/3/5 438/3/5 443/3/5
f 445/3/5 434/3/5 433/3/5
f 446/3/5 434/3/5 445/3/5
f 447/3/5 442/3/5 441/3/5
f 448/3/5 442/3/5 447/3/5
f 451/6/5 450/6/5 449/6/5
f 452/6/5 450/6/5 451/6/5
f 455/3/5 454/3/5 453/3/5
f 456/3/5 454/3/5 455/3/5
f 459/4/5 458/4/5 457/4/5
f 460/4/5 458/4/5 459/4/5
f 463/4/5 462/4/5 461/4/5
f 464/4/5 462/4/5 463/4/5
f 465/5/6 466/5/6 467/5/6
f 467/5/6 466/5/6 468/5/6
f 469/6/6 470/6/6 471/6/6
f 471/6/6 470/6/6 472/6/6
f 472/6/6 470/6/6 473/6/6
f 473/6/6 470/6/6 474/6/6
f 474/6/6 470/6/6 475/6/6
f 475/6/6 470/6/6 476/6/6
f 469/6/6 471/6/6 477/6/6
f 471/3/6 472/3/6 477/3/6
f 477/3/6 472/3/6 478/3/6
f 475/3/6 476/3/6 481/3/6
f 476/6/6 470/6/6 482/6/6
f 481/3/6 476/3/6 482/3/6
f 478/3/6 479/3/6 483/3/6
f 483/3/6 479/3/6 484/3/6
f 473/3/6 474/3/6 485/3/6
f 485/3/6 474/3/6 486/3/6
f 480/3/6 481/3/6 487/3/6
f 487/3/6 481/3/6 488/3/6
f 469/6/6 477/6/6 489/6/6
f 485/3/6 486/3/6 490/3/6
f 486/3/6 487/3/6 490/3/6
f 484/3/6 485/3/6 490/3/6
f 490/3/6 487/3/6 491/3/6
f 491/3/6 487/3/6 492/3/6
f 492/3/6 487/3/6 493/3/6
f 482/6/6 470/6/6 494/6/6
f 469/6/6 489/6/6 495/6/6
f 489/3/6 490/3/6 495/3/6
f 490/3/6 491/3/6 495/3/6
f 495/3/6 491/3/6 496/3/6
f 496/3/6 491/3/6 497/3/6
f 493/3/6 494/3/6 498/3/6
f 492/3/6 493/3/6 498/3/6
f 498/3/6 494/3/6 499/3/6
f 494/6/6 470/6/6 500/6/6
f 499/3/6 494/3/6 500/3/6
f 496/3/6 497/3/6 502/3/6
f 497/3/6 498/3/6 502/3/6
f 498/3/6 499/3/6 502/3/6
f 502/3/6 499/3/6 503/3/6
f 503/3/6 499/3/6 504/3/6
f 504/3/6 499/3/6 505/3/6
f 469/6/6 495/6/6 507/6/6
f 501/3/6 502/3/6 508/3/6
f 508/3/6 502/3/6 509/3/6
f 505/3/6 506/3/6 510/3/6
f 510/3/6 506/3/6 511/3/6
f 500/6/6 470/6/6 512/6/6
f 469/6/6 507/6/6 513/6/6
f 507/3/6 508/3/6 513/3/6
f 513/3/6 508/3/6 514/3/6
f 503/3/6 504/3/6 515/3/6
f 515/3/6 504/3/6 516/3/6
f 511/3/6 512/3/6 517/3/6
f 512/6/6 470/6/6 518/6/6
f 517/3/6 512/3/6 518/3/6
f 515/6/6 516/6/6 519/6/6
f 516/6/6 517/6/6 519/6/6
f 517/6/6 518/6/6 519/6/6
f 513/6/6 514/6/6 519/6/6
f 514/6/6 515/6/6 519/6/6
f 469/6/6 513/6/6 519/6/6
f 518/6/6 470/6/6 520/6/6
f 519/6/6 518/6/6 520/6/6
f 521/6/6 522/6/6 523/6/6
f 523/6/6 522/6/6 524/6/6
f 521/6/6 523/6/6 525/6/6
f 524/6/6 522/6/6 526/6/6
f 521/6/6 525/6/6 527/6/6
f 525/6/6 526/6/6 527/6/6
f 526/6/6 522/6/6 528/6/6
f 527/6/6 526/6/6 528/6/6
f 529/6/6 530/6/6 531/6/6
f 531/6/6 530/6/6 532/6/6
f 533/6/6 534/6/6 535/6/6
f 535/6/6 534/6/6 536/6/6
f 533/6/6 535/6/6 537/6/6
f 536/6/6 534/6/6 538/6/6
f 533/6/6 537/6/6 539/6/6
f 537/6/6 538/6/6 539/6/6
f 538/6/6 534/6/6 540/6/6
f 539/6/6 538/6/6 540/6/6
f 541/6/6 542/6/6 543/6/6
f 543/6/6 542/6/6 544/6/6
f 541/6/6 543/6/6 545/6/6
f 544/6/6 542/6/6 546/6/6
f 545/6/6 546/6/6 547/6/6
f 547/6/6 546/6/6 548/6/6
f 548/6/6 546/6/6 549/6/6
f 549/6/6 546/6/6 550/6/6
f 550/6/6 546/6/6 551/6/6
f 551/6/6 546/6/6 552/6/6
f 541/6/6 545/6/6 553/6/6
f 545/6/6 547/6/6 553/6/6
f 553/6/6 547/6/6 554/6/6
f 548/6/6 549/6/6 555/6/6
f 555/6/6 549/6/6 556/6/6
f 550/6/6 551/6/6 557/6/6
f 557/6/6 551/6/6 558/6/6
f 552/6/6 546/6/6 559/6/6
f 546/6/6 542/6/6 560/6/6
f 559/6/6 546/6/6 560/6/6
f 561/4/6 562/4/6 567/4/6
f 567/4/6 562/4/6 568/4/6
f 563/4/6 564/4/6 569/4/6
f 569/4/6 564/4/6 570/4/6
f 565/4/6 566/4/6 571/4/6
f 571/4/6 566/4/6 572/4/6
f 561/4/6 567/4/6 573/4/6
f 567/1/6 568/1/6 573/1/6
f 568/4/6 562/4/6 574/4/6
f 573/1/6 568/1/6 574/1/6
f 571/2/6 572/2/6 575/2/6
f 565/4/6 571/4/6 575/4/6
f 572/4/6 566/4/6 576/4/6
f 575/2/6 572/2/6 576/2/6
f 561/4/6 573/4/6 577/4/6
f 573/4/6 574/4/6 577/4/6
f 574/4/6 562/4/6 578/4/6
f 577/4/6 574/4/6 578/4/6
f 563/4/6 569/4/6 579/4/6
f 579/4/6 569/4/6 580/4/6
f 570/4/6 564/4/6 581/4/6
f 581/4/6 564/4/6 582/4/6
f 565/4/6 575/4/6 583/4/6
f 575/4/6 576/4/6 583/4/6
f 576/4/6 566/4/6 584/4/6
f 583/4/6 576/4/6 584/4/6
f 585/4/6 586/4/6 587/4/6
f 587/4/6 586/4/6 588/4/6
