# Blender v2.78 (sub 0) OBJ File: ''
# www.blender.org
mtllib Couch2.mtl
o Couch2
v -39.500000 25.999996 31.198391
v -39.500000 2.000002 0.198387
v -39.500000 1.999997 31.198387
v -39.500000 26.000002 0.198391
v -38.500000 1.999997 30.198387
v -38.500000 -0.000002 27.198387
v -38.500000 -0.000002 30.198387
v -38.500000 1.999998 27.198387
v -38.500000 2.000002 4.198388
v -38.500000 0.000002 1.198387
v -38.500000 0.000002 4.198387
v -38.500000 2.000002 1.198388
v 0.500000 14.999998 31.198389
v 0.500000 11.999998 30.198389
v 0.500000 11.999998 31.198389
v 0.500000 12.000002 8.198389
v 0.500000 15.000001 13.198390
v 0.500000 25.000000 13.198391
v 0.500000 25.000000 8.198391
v 29.500000 11.999998 31.198389
v 29.500000 9.999998 30.198389
v 29.500000 9.999998 31.198389
v 29.500000 11.999998 30.198389
v 29.500000 24.999996 31.198391
v 29.500000 15.000001 13.198390
v 29.500000 14.999998 31.198389
v 29.500000 25.000000 13.198391
v 30.500000 25.999996 31.198391
v 30.500000 25.000000 8.198391
v 30.500000 24.999996 31.198391
v 30.500000 26.000000 8.198391
v 35.500000 1.999997 30.198387
v 35.500000 -0.000002 27.198387
v 35.500000 -0.000002 30.198387
v 35.500000 1.999998 27.198387
v 35.500000 2.000002 4.198388
v 35.500000 0.000002 1.198387
v 35.500000 0.000002 4.198387
v 35.500000 2.000002 1.198388
v -35.500000 -0.000002 30.198387
v -35.500000 -0.000002 27.198387
v -35.500000 1.999997 30.198387
v -35.500000 1.999998 27.198387
v -35.500000 0.000002 4.198387
v -35.500000 0.000002 1.198387
v -35.500000 2.000002 4.198388
v -35.500000 2.000002 1.198388
v -30.500000 24.999996 31.198391
v -30.500000 25.000000 8.198391
v -30.500000 25.999996 31.198391
v -30.500000 26.000000 8.198391
v -29.500000 9.999998 31.198389
v -29.500000 9.999998 30.198389
v -29.500000 11.999998 31.198389
v -29.500000 11.999998 30.198389
v -29.500000 14.999998 31.198389
v -29.500000 15.000001 13.198390
v -29.500000 24.999996 31.198391
v -29.500000 25.000000 13.198391
v -0.500000 11.999998 31.198389
v -0.500000 11.999998 30.198389
v -0.500000 14.999998 31.198389
v -0.500000 12.000002 8.198389
v -0.500000 15.000001 13.198390
v -0.500000 25.000000 13.198391
v -0.500000 25.000000 8.198391
v 38.500000 -0.000002 30.198387
v 38.500000 -0.000002 27.198387
v 38.500000 1.999997 30.198387
v 38.500000 1.999998 27.198387
v 38.500000 0.000002 4.198387
v 38.500000 0.000002 1.198387
v 38.500000 2.000002 4.198388
v 38.500000 2.000002 1.198388
v 39.500000 1.999997 31.198387
v 39.500000 2.000002 0.198387
v 39.500000 25.999996 31.198391
v 39.500000 26.000002 0.198391
v -30.500000 24.999996 31.198391
v -39.500000 25.999996 31.198391
v -39.500000 1.999997 31.198387
v -30.500000 25.999996 31.198391
v -29.500000 9.999998 31.198389
v -29.500000 11.999998 31.198389
v -29.500000 14.999998 31.198389
v -29.500000 24.999996 31.198391
v -0.500000 11.999998 31.198389
v -0.500000 14.999998 31.198389
v 29.500000 9.999998 31.198389
v 29.500000 11.999998 31.198389
v 0.500000 14.999998 31.198389
v 0.500000 11.999998 31.198389
v 29.500000 14.999998 31.198389
v 30.500000 24.999996 31.198391
v 29.500000 24.999996 31.198391
v 39.500000 1.999997 31.198387
v 30.500000 25.999996 31.198391
v 39.500000 25.999996 31.198391
v -35.500000 -0.000002 30.198387
v -38.500000 1.999997 30.198387
v -38.500000 -0.000002 30.198387
v -35.500000 1.999997 30.198387
v -0.500000 11.999998 30.198389
v -29.500000 11.999998 30.198389
v -29.500000 9.999998 30.198389
v 0.500000 11.999998 30.198389
v 29.500000 9.999998 30.198389
v 29.500000 11.999998 30.198389
v 38.500000 -0.000002 30.198387
v 35.500000 1.999997 30.198387
v 35.500000 -0.000002 30.198387
v 38.500000 1.999997 30.198387
v -0.500000 15.000001 13.198390
v -29.500000 25.000000 13.198391
v -29.500000 15.000001 13.198390
v -0.500000 25.000000 13.198391
v 29.500000 15.000001 13.198390
v 0.500000 25.000000 13.198391
v 0.500000 15.000001 13.198390
v 29.500000 25.000000 13.198391
v -0.500000 25.000000 8.198391
v -30.500000 26.000000 8.198391
v -30.500000 25.000000 8.198391
v 0.500000 12.000002 8.198389
v -0.500000 12.000002 8.198389
v 0.500000 25.000000 8.198391
v 30.500000 25.000000 8.198391
v 30.500000 26.000000 8.198391
v -35.500000 0.000002 4.198387
v -38.500000 2.000002 4.198388
v -38.500000 0.000002 4.198387
v -35.500000 2.000002 4.198388
v 38.500000 0.000002 4.198387
v 35.500000 2.000002 4.198388
v 35.500000 0.000002 4.198387
v 38.500000 2.000002 4.198388
v -38.500000 -0.000002 27.198387
v -38.500000 1.999998 27.198387
v -35.500000 -0.000002 27.198387
v -35.500000 1.999998 27.198387
v 35.500000 -0.000002 27.198387
v 35.500000 1.999998 27.198387
v 38.500000 -0.000002 27.198387
v 38.500000 1.999998 27.198387
v -38.500000 0.000002 1.198387
v -38.500000 2.000002 1.198388
v -35.500000 0.000002 1.198387
v -35.500000 2.000002 1.198388
v 35.500000 0.000002 1.198387
v 35.500000 2.000002 1.198388
v 38.500000 0.000002 1.198387
v 38.500000 2.000002 1.198388
v -39.500000 2.000002 0.198387
v -39.500000 26.000002 0.198391
v 39.500000 2.000002 0.198387
v 39.500000 26.000002 0.198391
v -38.500000 -0.000002 27.198387
v -35.500000 -0.000002 30.198387
v -38.500000 -0.000002 30.198387
v -35.500000 -0.000002 27.198387
v 35.500000 -0.000002 27.198387
v 38.500000 -0.000002 30.198387
v 35.500000 -0.000002 30.198387
v 38.500000 -0.000002 27.198387
v -38.500000 0.000002 1.198387
v -35.500000 0.000002 4.198387
v -38.500000 0.000002 4.198387
v -35.500000 0.000002 1.198387
v 35.500000 0.000002 1.198387
v 38.500000 0.000002 4.198387
v 35.500000 0.000002 4.198387
v 38.500000 0.000002 1.198387
v -38.500000 1.999997 30.198387
v 39.500000 1.999997 31.198387
v -39.500000 1.999997 31.198387
v -35.500000 1.999997 30.198387
v 35.500000 1.999997 30.198387
v 38.500000 1.999997 30.198387
v -38.500000 1.999998 27.198387
v -35.500000 1.999998 27.198387
v 35.500000 1.999998 27.198387
v 38.500000 1.999998 27.198387
v -38.500000 2.000002 4.198388
v -35.500000 2.000002 4.198388
v 35.500000 2.000002 4.198388
v 38.500000 2.000002 4.198388
v -38.500000 2.000002 1.198388
v -35.500000 2.000002 1.198388
v 35.500000 2.000002 1.198388
v 38.500000 2.000002 1.198388
v -39.500000 2.000002 0.198387
v 39.500000 2.000002 0.198387
v -29.500000 11.999998 30.198389
v -0.500000 11.999998 31.198389
v -29.500000 11.999998 31.198389
v -0.500000 11.999998 30.198389
v 0.500000 11.999998 30.198389
v 29.500000 11.999998 31.198389
v 0.500000 11.999998 31.198389
v 29.500000 11.999998 30.198389
v -29.500000 9.999998 31.198389
v 29.500000 9.999998 31.198389
v -29.500000 9.999998 30.198389
v 29.500000 9.999998 30.198389
v -0.500000 11.999998 30.198389
v 0.500000 11.999998 30.198389
v -0.500000 12.000002 8.198389
v 0.500000 12.000002 8.198389
v -29.500000 14.999998 31.198389
v -0.500000 14.999998 31.198389
v -29.500000 15.000001 13.198390
v -0.500000 15.000001 13.198390
v 0.500000 14.999998 31.198389
v 29.500000 14.999998 31.198389
v 0.500000 15.000001 13.198390
v 29.500000 15.000001 13.198390
v -30.500000 24.999996 31.198391
v -29.500000 24.999996 31.198391
v -29.500000 25.000000 13.198391
v 29.500000 24.999996 31.198391
v 30.500000 24.999996 31.198391
v 29.500000 25.000000 13.198391
v -0.500000 25.000000 13.198391
v -30.500000 25.000000 8.198391
v -0.500000 25.000000 8.198391
v 0.500000 25.000000 13.198391
v 0.500000 25.000000 8.198391
v 30.500000 25.000000 8.198391
v -39.500000 25.999996 31.198391
v -30.500000 25.999996 31.198391
v -30.500000 26.000000 8.198391
v 30.500000 25.999996 31.198391
v 39.500000 25.999996 31.198391
v 30.500000 26.000000 8.198391
v -39.500000 26.000002 0.198391
v 39.500000 26.000002 0.198391
vt 0.8145 0.5000
vt 0.8145 0.5000
vt 0.8145 0.5000
vt 0.8145 0.5000
vt 0.8145 0.5000
vt 0.8145 0.5000
vt 0.8145 0.5000
vt 0.8145 0.5000
vt 0.8145 0.5000
vt 0.8145 0.5000
vt 0.8145 0.5000
vt 0.8145 0.5000
vt 0.8145 0.5000
vt 0.8145 0.5000
vt 0.8145 0.5000
vt 0.8145 0.5000
vt 0.8145 0.5000
vt 0.8145 0.5000
vt 0.8145 0.5000
vt 0.8145 0.5000
vt 0.8145 0.5000
vt 0.8145 0.5000
vt 0.8145 0.5000
vt 0.8145 0.5000
vt 0.8145 0.5000
vt 0.8145 0.5000
vt 0.8145 0.5000
vt 0.8145 0.5000
vt 0.8145 0.5000
vt 0.8145 0.5000
vt 0.8145 0.5000
vt 0.8145 0.5000
vt 0.8145 0.5000
vt 0.8145 0.5000
vt 0.8145 0.5000
vt 0.8145 0.5000
vt 0.8145 0.5000
vt 0.8145 0.5000
vt 0.8145 0.5000
vt 0.8145 0.5000
vt 0.8145 0.5000
vt 0.8145 0.5000
vt 0.8145 0.5000
vt 0.8145 0.5000
vt 0.8145 0.5000
vt 0.8145 0.5000
vt 0.8145 0.5000
vt 0.8145 0.5000
vt 0.8145 0.5000
vt 0.8145 0.5000
vt 0.8145 0.5000
vt 0.8145 0.5000
vt 0.8145 0.5000
vt 0.8145 0.5000
vt 0.8145 0.5000
vt 0.8145 0.5000
vt 0.8145 0.5000
vt 0.8145 0.5000
vt 0.8145 0.5000
vt 0.8145 0.5000
vt 0.8145 0.5000
vt 0.8145 0.5000
vt 0.8145 0.5000
vt 0.8145 0.5000
vt 0.8145 0.5000
vt 0.8145 0.5000
vt 0.8145 0.5000
vt 0.8145 0.5000
vt 0.8145 0.5000
vt 0.8145 0.5000
vt 0.8145 0.5000
vt 0.8145 0.5000
vt 0.8145 0.5000
vt 0.8145 0.5000
vt 0.8145 0.5000
vt 0.8145 0.5000
vt 0.8145 0.5000
vt 0.8145 0.5000
vt 0.8145 0.5000
vt 0.8145 0.5000
vt 0.8145 0.5000
vt 0.8145 0.5000
vt 0.8145 0.5000
vt 0.8145 0.5000
vt 0.8145 0.5000
vt 0.8145 0.5000
vt 0.8145 0.5000
vt 0.8145 0.5000
vt 0.8145 0.5000
vt 0.8145 0.5000
vt 0.8145 0.5000
vt 0.8145 0.5000
vt 0.8145 0.5000
vt 0.8145 0.5000
vt 0.8145 0.5000
vt 0.8145 0.5000
vt 0.8145 0.5000
vt 0.8145 0.5000
vt 0.8145 0.5000
vt 0.8145 0.5000
vt 0.8145 0.5000
vt 0.8145 0.5000
vt 0.8145 0.5000
vt 0.8145 0.5000
vt 0.8145 0.5000
vt 0.8145 0.5000
vt 0.8145 0.5000
vt 0.8145 0.5000
vt 0.8145 0.5000
vt 0.8145 0.5000
vt 0.8145 0.5000
vt 0.8145 0.5000
vt 0.8145 0.5000
vt 0.8145 0.5000
vt 0.8145 0.5000
vt 0.8145 0.5000
vt 0.8145 0.5000
vt 0.8145 0.5000
vt 0.8145 0.5000
vt 0.8145 0.5000
vt 0.8145 0.5000
vt 0.8145 0.5000
vt 0.8145 0.5000
vt 0.8145 0.5000
vt 0.8145 0.5000
vt 0.8145 0.5000
vt 0.8145 0.5000
vt 0.8145 0.5000
vt 0.8145 0.5000
vt 0.8145 0.5000
vt 0.8145 0.5000
vt 0.8145 0.5000
vt 0.8145 0.5000
vt 0.8145 0.5000
vt 0.8145 0.5000
vt 0.8145 0.5000
vt 0.8145 0.5000
vt 0.8145 0.5000
vt 0.8145 0.5000
vt 0.8145 0.5000
vt 0.8145 0.5000
vt 0.8145 0.5000
vt 0.8145 0.5000
vt 0.8145 0.5000
vt 0.8145 0.5000
vt 0.8145 0.5000
vt 0.8145 0.5000
vt 0.8145 0.5000
vt 0.8145 0.5000
vt 0.8145 0.5000
vt 0.8145 0.5000
vt 0.8145 0.5000
vt 0.8145 0.5000
vt 0.8145 0.5000
vt 0.8145 0.5000
vt 0.8145 0.5000
vt 0.8145 0.5000
vt 0.8145 0.5000
vt 0.8145 0.5000
vt 0.8145 0.5000
vt 0.8145 0.5000
vt 0.8145 0.5000
vt 0.8145 0.5000
vt 0.8145 0.5000
vt 0.8145 0.5000
vt 0.8145 0.5000
vt 0.8145 0.5000
vt 0.8145 0.5000
vt 0.8145 0.5000
vt 0.8145 0.5000
vt 0.8145 0.5000
vt 0.8145 0.5000
vt 0.8145 0.5000
vt 0.8145 0.5000
vt 0.8145 0.5000
vt 0.8145 0.5000
vt 0.8145 0.5000
vt 0.8145 0.5000
vt 0.8145 0.5000
vt 0.8145 0.5000
vt 0.8145 0.5000
vt 0.8145 0.5000
vt 0.8145 0.5000
vt 0.8145 0.5000
vt 0.8145 0.5000
vt 0.8145 0.5000
vt 0.8145 0.5000
vt 0.8145 0.5000
vt 0.8145 0.5000
vt 0.8145 0.5000
vt 0.8145 0.5000
vt 0.8145 0.5000
vt 0.8145 0.5000
vt 0.8145 0.5000
vt 0.8145 0.5000
vt 0.8145 0.5000
vt 0.8145 0.5000
vt 0.8145 0.5000
vt 0.8145 0.5000
vt 0.8145 0.5000
vt 0.8145 0.5000
vt 0.8145 0.5000
vt 0.8145 0.5000
vt 0.8145 0.5000
vt 0.8145 0.5000
vt 0.8145 0.5000
vt 0.8145 0.5000
vt 0.8145 0.5000
vt 0.8145 0.5000
vt 0.8145 0.5000
vt 0.8145 0.5000
vt 0.8145 0.5000
vt 0.8145 0.5000
vt 0.8145 0.5000
vt 0.8145 0.5000
vt 0.8145 0.5000
vt 0.8145 0.5000
vt 0.8145 0.5000
vt 0.8145 0.5000
vt 0.8145 0.5000
vt 0.8145 0.5000
vt 0.8145 0.5000
vt 0.8145 0.5000
vt 0.8145 0.5000
vt 0.8145 0.5000
vt 0.8145 0.5000
vt 0.8145 0.5000
vt 0.8145 0.5000
vt 0.8145 0.5000
vt 0.8145 0.5000
vt 0.8145 0.5000
vt 0.8145 0.5000
vt 0.8145 0.5000
vt 0.8145 0.5000
vt 0.8145 0.5000
vt 0.8145 0.5000
vn -1.0000 0.0000 0.0000
vn 1.0000 0.0000 0.0000
vn -0.0000 -0.0000 1.0000
vn 0.0000 0.0000 -1.0000
vn 0.0000 -1.0000 -0.0000
vn 0.0000 1.0000 0.0000
usemtl palette.003
s 1
f 1/1/1 2/2/1 3/3/1
f 4/4/1 2/2/1 1/1/1
f 5/5/1 6/6/1 7/7/1
f 8/8/1 6/6/1 5/5/1
f 9/9/1 10/10/1 11/11/1
f 12/12/1 10/10/1 9/9/1
f 13/13/1 14/14/1 15/15/1
f 13/13/1 16/16/1 14/14/1
f 17/17/1 16/16/1 13/13/1
f 18/18/1 16/16/1 17/17/1
f 19/19/1 16/16/1 18/18/1
f 20/20/1 21/21/1 22/22/1
f 23/23/1 21/21/1 20/20/1
f 24/24/1 25/25/1 26/26/1
f 27/27/1 25/25/1 24/24/1
f 28/28/1 29/29/1 30/30/1
f 31/31/1 29/29/1 28/28/1
f 32/32/1 33/33/1 34/34/1
f 35/35/1 33/33/1 32/32/1
f 36/36/1 37/37/1 38/38/1
f 39/39/1 37/37/1 36/36/1
f 40/40/2 41/41/2 42/42/2
f 42/42/2 41/41/2 43/43/2
f 44/44/2 45/45/2 46/46/2
f 46/46/2 45/45/2 47/47/2
f 48/48/2 49/49/2 50/50/2
f 50/50/2 49/49/2 51/51/2
f 52/52/2 53/53/2 54/54/2
f 54/54/2 53/53/2 55/55/2
f 56/56/2 57/57/2 58/58/2
f 58/58/2 57/57/2 59/59/2
f 60/60/2 61/61/2 62/62/2
f 61/61/2 63/63/2 62/62/2
f 62/62/2 63/63/2 64/64/2
f 64/64/2 63/63/2 65/65/2
f 65/65/2 63/63/2 66/66/2
f 67/67/2 68/68/2 69/69/2
f 69/69/2 68/68/2 70/70/2
f 71/71/2 72/72/2 73/73/2
f 73/73/2 72/72/2 74/74/2
f 75/75/2 76/76/2 77/77/2
f 77/77/2 76/76/2 78/78/2
f 79/79/3 80/80/3 81/81/3
f 82/82/3 80/80/3 79/79/3
f 83/83/3 79/79/3 81/81/3
f 84/84/3 79/79/3 83/83/3
f 85/85/3 79/79/3 84/84/3
f 86/86/3 79/79/3 85/85/3
f 87/87/3 85/85/3 84/84/3
f 88/88/3 85/85/3 87/87/3
f 89/89/3 83/83/3 81/81/3
f 90/90/3 91/91/3 92/92/3
f 93/93/3 91/91/3 90/90/3
f 94/94/3 93/93/3 90/90/3
f 94/94/3 95/95/3 93/93/3
f 94/94/3 90/90/3 89/89/3
f 96/96/3 89/89/3 81/81/3
f 96/96/3 97/97/3 94/94/3
f 96/96/3 94/94/3 89/89/3
f 98/98/3 97/97/3 96/96/3
f 99/99/3 100/100/3 101/101/3
f 102/102/3 100/100/3 99/99/3
f 103/103/3 104/104/3 105/105/3
f 106/106/3 103/103/3 105/105/3
f 107/107/3 106/106/3 105/105/3
f 108/108/3 106/106/3 107/107/3
f 109/109/3 110/110/3 111/111/3
f 112/112/3 110/110/3 109/109/3
f 113/113/3 114/114/3 115/115/3
f 116/116/3 114/114/3 113/113/3
f 117/117/3 118/118/3 119/119/3
f 120/120/3 118/118/3 117/117/3
f 121/121/3 122/122/3 123/123/3
f 124/124/3 121/121/3 125/125/3
f 126/126/3 122/122/3 121/121/3
f 126/126/3 121/121/3 124/124/3
f 127/127/3 122/122/3 126/126/3
f 128/128/3 122/122/3 127/127/3
f 129/129/3 130/130/3 131/131/3
f 132/132/3 130/130/3 129/129/3
f 133/133/3 134/134/3 135/135/3
f 136/136/3 134/134/3 133/133/3
f 137/137/4 138/138/4 139/139/4
f 139/139/4 138/138/4 140/140/4
f 141/141/4 142/142/4 143/143/4
f 143/143/4 142/142/4 144/144/4
f 145/145/4 146/146/4 147/147/4
f 147/147/4 146/146/4 148/148/4
f 149/149/4 150/150/4 151/151/4
f 151/151/4 150/150/4 152/152/4
f 153/153/4 154/154/4 155/155/4
f 155/155/4 154/154/4 156/156/4
f 157/157/5 158/158/5 159/159/5
f 160/160/5 158/158/5 157/157/5
f 161/161/5 162/162/5 163/163/5
f 164/164/5 162/162/5 161/161/5
f 165/165/5 166/166/5 167/167/5
f 168/168/5 166/166/5 165/165/5
f 169/169/5 170/170/5 171/171/5
f 172/172/5 170/170/5 169/169/5
f 173/173/5 174/174/5 175/175/5
f 176/176/5 174/174/5 173/173/5
f 177/177/5 174/174/5 176/176/5
f 178/178/5 174/174/5 177/177/5
f 179/179/5 173/173/5 175/175/5
f 180/180/5 177/177/5 176/176/5
f 181/181/5 177/177/5 180/180/5
f 182/182/5 174/174/5 178/178/5
f 183/183/5 181/181/5 180/180/5
f 183/183/5 182/182/5 181/181/5
f 183/183/5 179/179/5 175/175/5
f 183/183/5 180/180/5 179/179/5
f 184/184/5 182/182/5 183/183/5
f 185/185/5 182/182/5 184/184/5
f 186/186/5 174/174/5 182/182/5
f 186/186/5 182/182/5 185/185/5
f 187/187/5 183/183/5 175/175/5
f 188/188/5 185/185/5 184/184/5
f 189/189/5 185/185/5 188/188/5
f 190/190/5 174/174/5 186/186/5
f 191/191/5 187/187/5 175/175/5
f 191/191/5 190/190/5 189/189/5
f 191/191/5 189/189/5 188/188/5
f 191/191/5 188/188/5 187/187/5
f 192/192/5 174/174/5 190/190/5
f 192/192/5 190/190/5 191/191/5
f 193/193/5 194/194/5 195/195/5
f 196/196/5 194/194/5 193/193/5
f 197/197/5 198/198/5 199/199/5
f 200/200/5 198/198/5 197/197/5
f 201/201/6 202/202/6 203/203/6
f 203/203/6 202/202/6 204/204/6
f 205/205/6 206/206/6 207/207/6
f 207/207/6 206/206/6 208/208/6
f 209/209/6 210/210/6 211/211/6
f 211/211/6 210/210/6 212/212/6
f 213/213/6 214/214/6 215/215/6
f 215/215/6 214/214/6 216/216/6
f 217/217/6 218/218/6 219/219/6
f 220/220/6 221/221/6 222/222/6
f 219/219/6 223/223/6 224/224/6
f 217/217/6 219/219/6 224/224/6
f 224/224/6 223/223/6 225/225/6
f 226/226/6 222/222/6 227/227/6
f 222/222/6 221/221/6 228/228/6
f 227/227/6 222/222/6 228/228/6
f 229/229/6 230/230/6 231/231/6
f 232/232/6 233/233/6 234/234/6
f 229/229/6 231/231/6 235/235/6
f 231/231/6 234/234/6 235/235/6
f 234/234/6 233/233/6 236/236/6
f 235/235/6 234/234/6 236/236/6
