# MagicaVoxel @ Ephtracy

# group
g Dop-3

# material
mtllib Dop-3.mtl
usemtl palette

# normals
vn -1 0 0
vn 1 0 0
vn 0 0 1
vn 0 0 -1
vn 0 -1 0
vn 0 1 0

# texcoords
vt 0.755859 0.5
vt 0.763672 0.5
vt 0.814453 0.5
vt 0.849609 0.5

# verts
v -3.5 0 14.5
v -3.5 0 -14.5
v -3.5 1 13.5
v -3.5 1 -13.5
v -3.5 4 13.5
v -3.5 4 -13.5
v -3.5 9 13.5
v -3.5 9 -13.5
v -3.5 14 9.5
v -3.5 14 -7.5
v -3.5 15 9.5
v -3.5 15 -7.5
v -3.5 18 5.5
v -3.5 18 -4.5
v -3.5 19 5.5
v -3.5 19 -4.5
v -3.5 22 8.5
v -3.5 22 -8.5
v -3.5 23 8.5
v -3.5 23 -8.5
v -3.5 25 6.5
v -3.5 25 -3.5
v -3.5 26 6.5
v -3.5 26 -3.5
v -3.5 30 12.5
v -3.5 30 11.5
v -3.5 30 10.5
v -3.5 30 8.5
v -3.5 31 12.5
v -3.5 31 11.5
v -3.5 31 10.5
v -3.5 31 8.5
v -3.5 32 13.5
v -3.5 32 -13.5
v -3.5 33 14.5
v -3.5 33 -14.5
v 3.5 0 14.5
v 3.5 0 -14.5
v 3.5 1 13.5
v 3.5 1 -13.5
v 3.5 4 13.5
v 3.5 4 -13.5
v 3.5 9 13.5
v 3.5 9 -13.5
v 3.5 32 13.5
v 3.5 32 -13.5
v 3.5 33 14.5
v 3.5 33 -14.5
v -3.5 0 14.5
v -3.5 33 14.5
v -2.5 0 14.5
v -2.5 33 14.5
v 2.5 0 14.5
v 2.5 33 14.5
v 3.5 0 14.5
v 3.5 33 14.5
v -3.5 0 -14.5
v -3.5 33 -14.5
v 3.5 0 -14.5
v 3.5 33 -14.5
v -3.5 0 14.5
v -2.5 0 14.5
v 2.5 0 14.5
v 3.5 0 14.5
v -2.5 0 -13.5
v 2.5 0 -13.5
v -3.5 0 -14.5
v 3.5 0 -14.5
v -3.5 33 14.5
v -2.5 33 14.5
v 2.5 33 14.5
v 3.5 33 14.5
v -2.5 33 -13.5
v 2.5 33 -13.5
v -3.5 33 -14.5
v 3.5 33 -14.5

# faces
f 3/3/1 2/3/1 1/3/1
f 4/3/1 2/3/1 3/3/1
f 5/3/1 3/3/1 1/3/1
f 5/2/1 4/2/1 3/2/1
f 6/3/1 2/3/1 4/3/1
f 6/2/1 4/2/1 5/2/1
f 7/3/1 5/3/1 1/3/1
f 7/3/1 6/3/1 5/3/1
f 8/3/1 2/3/1 6/3/1
f 8/3/1 6/3/1 7/3/1
f 9/2/1 8/2/1 7/2/1
f 10/2/1 8/2/1 9/2/1
f 11/2/1 9/2/1 7/2/1
f 11/4/1 10/4/1 9/4/1
f 12/2/1 8/2/1 10/2/1
f 12/4/1 10/4/1 11/4/1
f 13/2/1 12/2/1 11/2/1
f 14/2/1 12/2/1 13/2/1
f 15/2/1 13/2/1 11/2/1
f 15/4/1 14/4/1 13/4/1
f 16/2/1 12/2/1 14/2/1
f 16/4/1 14/4/1 15/4/1
f 17/2/1 15/2/1 11/2/1
f 17/2/1 16/2/1 15/2/1
f 18/2/1 8/2/1 12/2/1
f 18/2/1 16/2/1 17/2/1
f 18/2/1 12/2/1 16/2/1
f 19/2/1 17/2/1 11/2/1
f 19/4/1 18/4/1 17/4/1
f 20/2/1 8/2/1 18/2/1
f 20/4/1 18/4/1 19/4/1
f 21/2/1 20/2/1 19/2/1
f 22/2/1 20/2/1 21/2/1
f 23/2/1 21/2/1 19/2/1
f 23/4/1 22/4/1 21/4/1
f 24/2/1 20/2/1 22/2/1
f 24/4/1 22/4/1 23/4/1
f 25/2/1 11/2/1 7/2/1
f 25/2/1 19/2/1 11/2/1
f 25/2/1 24/2/1 23/2/1
f 25/2/1 23/2/1 19/2/1
f 26/2/1 24/2/1 25/2/1
f 27/2/1 24/2/1 26/2/1
f 28/2/1 24/2/1 27/2/1
f 29/2/1 25/2/1 7/2/1
f 29/4/1 26/4/1 25/4/1
f 30/2/1 27/2/1 26/2/1
f 30/4/1 26/4/1 29/4/1
f 31/4/1 28/4/1 27/4/1
f 31/2/1 27/2/1 30/2/1
f 32/2/1 24/2/1 28/2/1
f 32/4/1 28/4/1 31/4/1
f 33/3/1 7/3/1 1/3/1
f 33/2/1 31/2/1 30/2/1
f 33/2/1 32/2/1 31/2/1
f 33/2/1 29/2/1 7/2/1
f 33/2/1 30/2/1 29/2/1
f 34/2/1 24/2/1 32/2/1
f 34/2/1 32/2/1 33/2/1
f 34/3/1 2/3/1 8/3/1
f 34/2/1 8/2/1 20/2/1
f 34/2/1 20/2/1 24/2/1
f 35/3/1 33/3/1 1/3/1
f 35/3/1 34/3/1 33/3/1
f 36/3/1 2/3/1 34/3/1
f 36/3/1 34/3/1 35/3/1
f 37/3/2 38/3/2 39/3/2
f 39/3/2 38/3/2 40/3/2
f 37/3/2 39/3/2 41/3/2
f 39/2/2 40/2/2 41/2/2
f 40/3/2 38/3/2 42/3/2
f 41/2/2 40/2/2 42/2/2
f 37/3/2 41/3/2 43/3/2
f 41/3/2 42/3/2 43/3/2
f 42/3/2 38/3/2 44/3/2
f 43/3/2 42/3/2 44/3/2
f 37/3/2 43/3/2 45/3/2
f 43/2/2 44/2/2 45/2/2
f 44/3/2 38/3/2 46/3/2
f 45/2/2 44/2/2 46/2/2
f 37/3/2 45/3/2 47/3/2
f 45/3/2 46/3/2 47/3/2
f 46/3/2 38/3/2 48/3/2
f 47/3/2 46/3/2 48/3/2
f 51/3/3 50/3/3 49/3/3
f 52/3/3 50/3/3 51/3/3
f 53/1/3 52/1/3 51/1/3
f 54/1/3 52/1/3 53/1/3
f 55/3/3 54/3/3 53/3/3
f 56/3/3 54/3/3 55/3/3
f 57/3/4 58/3/4 59/3/4
f 59/3/4 58/3/4 60/3/4
f 65/3/5 62/3/5 61/3/5
f 65/1/5 63/1/5 62/1/5
f 66/3/5 64/3/5 63/3/5
f 66/1/5 63/1/5 65/1/5
f 67/3/5 65/3/5 61/3/5
f 67/3/5 66/3/5 65/3/5
f 68/3/5 64/3/5 66/3/5
f 68/3/5 66/3/5 67/3/5
f 69/3/6 70/3/6 73/3/6
f 70/1/6 71/1/6 73/1/6
f 71/3/6 72/3/6 74/3/6
f 73/1/6 71/1/6 74/1/6
f 69/3/6 73/3/6 75/3/6
f 73/3/6 74/3/6 75/3/6
f 74/3/6 72/3/6 76/3/6
f 75/3/6 74/3/6 76/3/6
