# MagicaVoxel @ Ephtracy

# group
g Fork2

# material
mtllib Fork2.mtl
usemtl palette

# normals
vn -1 0 0
vn 1 0 0
vn 0 0 1
vn 0 0 -1
vn 0 -1 0
vn 0 1 0

# texcoords
vt 0.572266 0.5
vt 0.666016 0.5

# verts
v -7 2 -13.5
v -7 2 -49.5
v -7 3 -13.5
v -7 3 -49.5
v -6 1 -14.5
v -6 1 -49.5
v -6 2 -14.5
v -6 2 -49.5
v -6 2 -50.5
v -6 3 -14.5
v -6 3 -49.5
v -6 3 -50.5
v -6 4 -14.5
v -6 4 -49.5
v -3 0 49.5
v -3 0 21.5
v -3 5 49.5
v -3 5 21.5
v -2 1 50.5
v -2 1 49.5
v -2 1 21.5
v -2 1 13.5
v -2 2 13.5
v -2 2 -13.5
v -2 2 -16.5
v -2 2 -49.5
v -2 3 13.5
v -2 3 -13.5
v -2 3 -16.5
v -2 3 -49.5
v -2 4 50.5
v -2 4 49.5
v -2 4 20.5
v -2 4 13.5
v -2 5 21.5
v -2 5 20.5
v -1 1 13.5
v -1 1 -14.5
v -1 1 -16.5
v -1 1 -49.5
v -1 2 13.5
v -1 2 -14.5
v -1 2 -16.5
v -1 2 -49.5
v -1 2 -50.5
v -1 3 13.5
v -1 3 -14.5
v -1 3 -16.5
v -1 3 -49.5
v -1 3 -50.5
v -1 4 13.5
v -1 4 -14.5
v -1 4 -16.5
v -1 4 -49.5
v 4 2 -16.5
v 4 2 -49.5
v 4 3 -16.5
v 4 3 -49.5
v 5 1 -16.5
v 5 1 -49.5
v 5 2 -16.5
v 5 2 -49.5
v 5 2 -50.5
v 5 3 -16.5
v 5 3 -49.5
v 5 3 -50.5
v 5 4 -16.5
v 5 4 -49.5
v -5 1 -16.5
v -5 1 -49.5
v -5 2 -16.5
v -5 2 -49.5
v -5 2 -50.5
v -5 3 -16.5
v -5 3 -49.5
v -5 3 -50.5
v -5 4 -16.5
v -5 4 -49.5
v -4 2 -16.5
v -4 2 -49.5
v -4 3 -16.5
v -4 3 -49.5
v 1 1 13.5
v 1 1 -14.5
v 1 1 -16.5
v 1 1 -49.5
v 1 2 13.5
v 1 2 -14.5
v 1 2 -16.5
v 1 2 -49.5
v 1 2 -50.5
v 1 3 13.5
v 1 3 -14.5
v 1 3 -16.5
v 1 3 -49.5
v 1 3 -50.5
v 1 4 13.5
v 1 4 -14.5
v 1 4 -16.5
v 1 4 -49.5
v 2 1 50.5
v 2 1 49.5
v 2 1 21.5
v 2 1 13.5
v 2 2 13.5
v 2 2 -13.5
v 2 2 -16.5
v 2 2 -49.5
v 2 3 13.5
v 2 3 -13.5
v 2 3 -16.5
v 2 3 -49.5
v 2 4 50.5
v 2 4 49.5
v 2 4 20.5
v 2 4 13.5
v 2 5 21.5
v 2 5 20.5
v 3 0 49.5
v 3 0 21.5
v 3 5 49.5
v 3 5 21.5
v 6 1 -14.5
v 6 1 -49.5
v 6 2 -14.5
v 6 2 -49.5
v 6 2 -50.5
v 6 3 -14.5
v 6 3 -49.5
v 6 3 -50.5
v 6 4 -14.5
v 6 4 -49.5
v 7 2 -13.5
v 7 2 -49.5
v 7 3 -13.5
v 7 3 -49.5
v -2 1 50.5
v -2 4 50.5
v 2 1 50.5
v 2 4 50.5
v -3 0 49.5
v -3 5 49.5
v -2 1 49.5
v -2 4 49.5
v 2 1 49.5
v 2 4 49.5
v 3 0 49.5
v 3 5 49.5
v -7 2 -13.5
v -7 3 -13.5
v -2 2 -13.5
v -2 3 -13.5
v 2 2 -13.5
v 2 3 -13.5
v 7 2 -13.5
v 7 3 -13.5
v -6 1 -14.5
v -6 2 -14.5
v -6 3 -14.5
v -6 4 -14.5
v -1 1 -14.5
v -1 2 -14.5
v -1 3 -14.5
v -1 4 -14.5
v 1 1 -14.5
v 1 2 -14.5
v 1 3 -14.5
v 1 4 -14.5
v 6 1 -14.5
v 6 2 -14.5
v 6 3 -14.5
v 6 4 -14.5
v -3 0 21.5
v -3 5 21.5
v -2 1 21.5
v -2 5 21.5
v 2 1 21.5
v 2 5 21.5
v 3 0 21.5
v 3 5 21.5
v -2 4 20.5
v -2 5 20.5
v 2 4 20.5
v 2 5 20.5
v -2 1 13.5
v -2 2 13.5
v -2 3 13.5
v -2 4 13.5
v -1 1 13.5
v -1 2 13.5
v -1 3 13.5
v -1 4 13.5
v 1 1 13.5
v 1 2 13.5
v 1 3 13.5
v 1 4 13.5
v 2 1 13.5
v 2 2 13.5
v 2 3 13.5
v 2 4 13.5
v -5 1 -16.5
v -5 2 -16.5
v -5 3 -16.5
v -5 4 -16.5
v -4 2 -16.5
v -4 3 -16.5
v -2 2 -16.5
v -2 3 -16.5
v -1 1 -16.5
v -1 2 -16.5
v -1 3 -16.5
v -1 4 -16.5
v 1 1 -16.5
v 1 2 -16.5
v 1 3 -16.5
v 1 4 -16.5
v 2 2 -16.5
v 2 3 -16.5
v 4 2 -16.5
v 4 3 -16.5
v 5 1 -16.5
v 5 2 -16.5
v 5 3 -16.5
v 5 4 -16.5
v -7 2 -49.5
v -7 3 -49.5
v -6 1 -49.5
v -6 2 -49.5
v -6 3 -49.5
v -6 4 -49.5
v -5 1 -49.5
v -5 2 -49.5
v -5 3 -49.5
v -5 4 -49.5
v -4 2 -49.5
v -4 3 -49.5
v -2 2 -49.5
v -2 3 -49.5
v -1 1 -49.5
v -1 2 -49.5
v -1 3 -49.5
v -1 4 -49.5
v 1 1 -49.5
v 1 2 -49.5
v 1 3 -49.5
v 1 4 -49.5
v 2 2 -49.5
v 2 3 -49.5
v 4 2 -49.5
v 4 3 -49.5
v 5 1 -49.5
v 5 2 -49.5
v 5 3 -49.5
v 5 4 -49.5
v 6 1 -49.5
v 6 2 -49.5
v 6 3 -49.5
v 6 4 -49.5
v 7 2 -49.5
v 7 3 -49.5
v -6 2 -50.5
v -6 3 -50.5
v -5 2 -50.5
v -5 3 -50.5
v -1 2 -50.5
v -1 3 -50.5
v 1 2 -50.5
v 1 3 -50.5
v 5 2 -50.5
v 5 3 -50.5
v 6 2 -50.5
v 6 3 -50.5
v -3 0 49.5
v 3 0 49.5
v -3 0 21.5
v 3 0 21.5
v -2 1 50.5
v 2 1 50.5
v -2 1 49.5
v 2 1 49.5
v -2 1 21.5
v 2 1 21.5
v -2 1 13.5
v -1 1 13.5
v 1 1 13.5
v 2 1 13.5
v -6 1 -14.5
v -1 1 -14.5
v 1 1 -14.5
v 6 1 -14.5
v -5 1 -16.5
v -1 1 -16.5
v 1 1 -16.5
v 5 1 -16.5
v -6 1 -49.5
v -5 1 -49.5
v -1 1 -49.5
v 1 1 -49.5
v 5 1 -49.5
v 6 1 -49.5
v -2 2 13.5
v -1 2 13.5
v 1 2 13.5
v 2 2 13.5
v -7 2 -13.5
v -2 2 -13.5
v 2 2 -13.5
v 7 2 -13.5
v -6 2 -14.5
v -1 2 -14.5
v 1 2 -14.5
v 6 2 -14.5
v -5 2 -16.5
v -4 2 -16.5
v -2 2 -16.5
v -1 2 -16.5
v 1 2 -16.5
v 2 2 -16.5
v 4 2 -16.5
v 5 2 -16.5
v -7 2 -49.5
v -6 2 -49.5
v -5 2 -49.5
v -4 2 -49.5
v -2 2 -49.5
v -1 2 -49.5
v 1 2 -49.5
v 2 2 -49.5
v 4 2 -49.5
v 5 2 -49.5
v 6 2 -49.5
v 7 2 -49.5
v -6 2 -50.5
v -5 2 -50.5
v -1 2 -50.5
v 1 2 -50.5
v 5 2 -50.5
v 6 2 -50.5
v -2 3 13.5
v -1 3 13.5
v 1 3 13.5
v 2 3 13.5
v -7 3 -13.5
v -2 3 -13.5
v 2 3 -13.5
v 7 3 -13.5
v -6 3 -14.5
v -1 3 -14.5
v 1 3 -14.5
v 6 3 -14.5
v -5 3 -16.5
v -4 3 -16.5
v -2 3 -16.5
v -1 3 -16.5
v 1 3 -16.5
v 2 3 -16.5
v 4 3 -16.5
v 5 3 -16.5
v -7 3 -49.5
v -6 3 -49.5
v -5 3 -49.5
v -4 3 -49.5
v -2 3 -49.5
v -1 3 -49.5
v 1 3 -49.5
v 2 3 -49.5
v 4 3 -49.5
v 5 3 -49.5
v 6 3 -49.5
v 7 3 -49.5
v -6 3 -50.5
v -5 3 -50.5
v -1 3 -50.5
v 1 3 -50.5
v 5 3 -50.5
v 6 3 -50.5
v -2 4 50.5
v 2 4 50.5
v -2 4 49.5
v 2 4 49.5
v -2 4 20.5
v 2 4 20.5
v -2 4 13.5
v -1 4 13.5
v 1 4 13.5
v 2 4 13.5
v -6 4 -14.5
v -1 4 -14.5
v 1 4 -14.5
v 6 4 -14.5
v -5 4 -16.5
v -1 4 -16.5
v 1 4 -16.5
v 5 4 -16.5
v -6 4 -49.5
v -5 4 -49.5
v -1 4 -49.5
v 1 4 -49.5
v 5 4 -49.5
v 6 4 -49.5
v -3 5 49.5
v 3 5 49.5
v -3 5 21.5
v -2 5 21.5
v 2 5 21.5
v 3 5 21.5
v -2 5 20.5
v 2 5 20.5

# faces
f 3/2/1 2/2/1 1/2/1
f 4/2/1 2/2/1 3/2/1
f 7/2/1 6/2/1 5/2/1
f 8/2/1 6/2/1 7/2/1
f 11/2/1 9/2/1 8/2/1
f 12/2/1 9/2/1 11/2/1
f 13/2/1 11/2/1 10/2/1
f 14/2/1 11/2/1 13/2/1
f 17/1/1 16/1/1 15/1/1
f 18/1/1 16/1/1 17/1/1
f 23/1/1 22/1/1 21/1/1
f 27/1/1 23/1/1 21/1/1
f 27/2/1 24/2/1 23/2/1
f 28/2/1 24/2/1 27/2/1
f 29/2/1 26/2/1 25/2/1
f 30/2/1 26/2/1 29/2/1
f 31/2/1 20/2/1 19/2/1
f 32/2/1 20/2/1 31/2/1
f 33/1/1 27/1/1 21/1/1
f 34/1/1 27/1/1 33/1/1
f 35/1/1 33/1/1 21/1/1
f 36/1/1 33/1/1 35/1/1
f 41/2/1 38/2/1 37/2/1
f 42/2/1 38/2/1 41/2/1
f 43/2/1 40/2/1 39/2/1
f 44/2/1 40/2/1 43/2/1
f 49/2/1 45/2/1 44/2/1
f 50/2/1 45/2/1 49/2/1
f 51/2/1 47/2/1 46/2/1
f 52/2/1 47/2/1 51/2/1
f 53/2/1 49/2/1 48/2/1
f 54/2/1 49/2/1 53/2/1
f 57/2/1 56/2/1 55/2/1
f 58/2/1 56/2/1 57/2/1
f 61/2/1 60/2/1 59/2/1
f 62/2/1 60/2/1 61/2/1
f 65/2/1 63/2/1 62/2/1
f 66/2/1 63/2/1 65/2/1
f 67/2/1 65/2/1 64/2/1
f 68/2/1 65/2/1 67/2/1
f 69/2/2 70/2/2 71/2/2
f 71/2/2 70/2/2 72/2/2
f 72/2/2 73/2/2 75/2/2
f 75/2/2 73/2/2 76/2/2
f 74/2/2 75/2/2 77/2/2
f 77/2/2 75/2/2 78/2/2
f 79/2/2 80/2/2 81/2/2
f 81/2/2 80/2/2 82/2/2
f 83/2/2 84/2/2 87/2/2
f 87/2/2 84/2/2 88/2/2
f 85/2/2 86/2/2 89/2/2
f 89/2/2 86/2/2 90/2/2
f 90/2/2 91/2/2 95/2/2
f 95/2/2 91/2/2 96/2/2
f 92/2/2 93/2/2 97/2/2
f 97/2/2 93/2/2 98/2/2
f 94/2/2 95/2/2 99/2/2
f 99/2/2 95/2/2 100/2/2
f 103/1/2 104/1/2 105/1/2
f 103/1/2 105/1/2 109/1/2
f 105/2/2 106/2/2 109/2/2
f 109/2/2 106/2/2 110/2/2
f 107/2/2 108/2/2 111/2/2
f 111/2/2 108/2/2 112/2/2
f 101/2/2 102/2/2 113/2/2
f 113/2/2 102/2/2 114/2/2
f 103/1/2 109/1/2 115/1/2
f 115/1/2 109/1/2 116/1/2
f 103/1/2 115/1/2 117/1/2
f 117/1/2 115/1/2 118/1/2
f 119/1/2 120/1/2 121/1/2
f 121/1/2 120/1/2 122/1/2
f 123/2/2 124/2/2 125/2/2
f 125/2/2 124/2/2 126/2/2
f 126/2/2 127/2/2 129/2/2
f 129/2/2 127/2/2 130/2/2
f 128/2/2 129/2/2 131/2/2
f 131/2/2 129/2/2 132/2/2
f 133/2/2 134/2/2 135/2/2
f 135/2/2 134/2/2 136/2/2
f 139/2/3 138/2/3 137/2/3
f 140/2/3 138/2/3 139/2/3
f 143/1/3 142/1/3 141/1/3
f 144/1/3 142/1/3 143/1/3
f 145/1/3 143/1/3 141/1/3
f 146/1/3 142/1/3 144/1/3
f 147/1/3 145/1/3 141/1/3
f 147/1/3 146/1/3 145/1/3
f 148/1/3 142/1/3 146/1/3
f 148/1/3 146/1/3 147/1/3
f 151/2/3 150/2/3 149/2/3
f 152/2/3 150/2/3 151/2/3
f 155/2/3 154/2/3 153/2/3
f 156/2/3 154/2/3 155/2/3
f 161/2/3 158/2/3 157/2/3
f 162/2/3 158/2/3 161/2/3
f 163/2/3 160/2/3 159/2/3
f 164/2/3 160/2/3 163/2/3
f 169/2/3 166/2/3 165/2/3
f 170/2/3 166/2/3 169/2/3
f 171/2/3 168/2/3 167/2/3
f 172/2/3 168/2/3 171/2/3
f 173/1/4 174/1/4 175/1/4
f 175/1/4 174/1/4 176/1/4
f 173/1/4 175/1/4 177/1/4
f 173/1/4 177/1/4 179/1/4
f 177/1/4 178/1/4 179/1/4
f 179/1/4 178/1/4 180/1/4
f 181/1/4 182/1/4 183/1/4
f 183/1/4 182/1/4 184/1/4
f 185/1/4 186/1/4 189/1/4
f 189/1/4 186/1/4 190/1/4
f 187/1/4 188/1/4 191/1/4
f 191/1/4 188/1/4 192/1/4
f 193/1/4 194/1/4 197/1/4
f 197/1/4 194/1/4 198/1/4
f 195/1/4 196/1/4 199/1/4
f 199/1/4 196/1/4 200/1/4
f 201/2/4 202/2/4 205/2/4
f 203/2/4 204/2/4 206/2/4
f 201/2/4 205/2/4 207/2/4
f 205/2/4 206/2/4 207/2/4
f 206/2/4 204/2/4 208/2/4
f 207/2/4 206/2/4 208/2/4
f 201/2/4 207/2/4 209/2/4
f 209/2/4 207/2/4 210/2/4
f 208/2/4 204/2/4 211/2/4
f 211/2/4 204/2/4 212/2/4
f 213/2/4 214/2/4 217/2/4
f 215/2/4 216/2/4 218/2/4
f 213/2/4 217/2/4 219/2/4
f 217/2/4 218/2/4 219/2/4
f 218/2/4 216/2/4 220/2/4
f 219/2/4 218/2/4 220/2/4
f 213/2/4 219/2/4 221/2/4
f 221/2/4 219/2/4 222/2/4
f 220/2/4 216/2/4 223/2/4
f 223/2/4 216/2/4 224/2/4
f 225/2/4 226/2/4 228/2/4
f 228/2/4 226/2/4 229/2/4
f 227/2/4 228/2/4 231/2/4
f 231/2/4 228/2/4 232/2/4
f 229/2/4 230/2/4 233/2/4
f 233/2/4 230/2/4 234/2/4
f 232/2/4 233/2/4 235/2/4
f 235/2/4 233/2/4 236/2/4
f 237/2/4 238/2/4 240/2/4
f 240/2/4 238/2/4 241/2/4
f 239/2/4 240/2/4 243/2/4
f 243/2/4 240/2/4 244/2/4
f 241/2/4 242/2/4 245/2/4
f 245/2/4 242/2/4 246/2/4
f 244/2/4 245/2/4 247/2/4
f 247/2/4 245/2/4 248/2/4
f 249/2/4 250/2/4 252/2/4
f 252/2/4 250/2/4 253/2/4
f 251/2/4 252/2/4 255/2/4
f 255/2/4 252/2/4 256/2/4
f 253/2/4 254/2/4 257/2/4
f 257/2/4 254/2/4 258/2/4
f 256/2/4 257/2/4 259/2/4
f 259/2/4 257/2/4 260/2/4
f 261/2/4 262/2/4 263/2/4
f 263/2/4 262/2/4 264/2/4
f 265/2/4 266/2/4 267/2/4
f 267/2/4 266/2/4 268/2/4
f 269/2/4 270/2/4 271/2/4
f 271/2/4 270/2/4 272/2/4
f 275/1/5 274/1/5 273/1/5
f 276/1/5 274/1/5 275/1/5
f 279/2/5 278/2/5 277/2/5
f 280/2/5 278/2/5 279/2/5
f 283/1/5 282/1/5 281/1/5
f 284/1/5 282/1/5 283/1/5
f 285/1/5 282/1/5 284/1/5
f 286/1/5 282/1/5 285/1/5
f 288/2/5 285/2/5 284/2/5
f 289/2/5 285/2/5 288/2/5
f 291/2/5 289/2/5 288/2/5
f 291/2/5 290/2/5 289/2/5
f 291/2/5 288/2/5 287/2/5
f 292/2/5 290/2/5 291/2/5
f 293/2/5 290/2/5 292/2/5
f 294/2/5 290/2/5 293/2/5
f 295/2/5 291/2/5 287/2/5
f 296/2/5 291/2/5 295/2/5
f 297/2/5 293/2/5 292/2/5
f 298/2/5 293/2/5 297/2/5
f 299/2/5 290/2/5 294/2/5
f 300/2/5 290/2/5 299/2/5
f 306/2/5 302/2/5 301/2/5
f 307/2/5 304/2/5 303/2/5
f 309/2/5 306/2/5 305/2/5
f 310/2/5 302/2/5 306/2/5
f 310/2/5 306/2/5 309/2/5
f 311/2/5 308/2/5 307/2/5
f 311/2/5 307/2/5 303/2/5
f 312/2/5 308/2/5 311/2/5
f 321/2/5 309/2/5 305/2/5
f 322/2/5 309/2/5 321/2/5
f 323/2/5 314/2/5 313/2/5
f 324/2/5 314/2/5 323/2/5
f 325/2/5 316/2/5 315/2/5
f 326/2/5 316/2/5 325/2/5
f 327/2/5 318/2/5 317/2/5
f 328/2/5 318/2/5 327/2/5
f 329/2/5 320/2/5 319/2/5
f 330/2/5 320/2/5 329/2/5
f 331/2/5 308/2/5 312/2/5
f 332/2/5 308/2/5 331/2/5
f 333/2/5 323/2/5 322/2/5
f 334/2/5 323/2/5 333/2/5
f 335/2/5 327/2/5 326/2/5
f 336/2/5 327/2/5 335/2/5
f 337/2/5 331/2/5 330/2/5
f 338/2/5 331/2/5 337/2/5
f 339/2/6 340/2/6 344/2/6
f 341/2/6 342/2/6 345/2/6
f 343/2/6 344/2/6 347/2/6
f 344/2/6 340/2/6 348/2/6
f 347/2/6 344/2/6 348/2/6
f 345/2/6 346/2/6 349/2/6
f 341/2/6 345/2/6 349/2/6
f 349/2/6 346/2/6 350/2/6
f 343/2/6 347/2/6 359/2/6
f 359/2/6 347/2/6 360/2/6
f 351/2/6 352/2/6 361/2/6
f 361/2/6 352/2/6 362/2/6
f 353/2/6 354/2/6 363/2/6
f 363/2/6 354/2/6 364/2/6
f 355/2/6 356/2/6 365/2/6
f 365/2/6 356/2/6 366/2/6
f 357/2/6 358/2/6 367/2/6
f 367/2/6 358/2/6 368/2/6
f 350/2/6 346/2/6 369/2/6
f 369/2/6 346/2/6 370/2/6
f 360/2/6 361/2/6 371/2/6
f 371/2/6 361/2/6 372/2/6
f 364/2/6 365/2/6 373/2/6
f 373/2/6 365/2/6 374/2/6
f 368/2/6 369/2/6 375/2/6
f 375/2/6 369/2/6 376/2/6
f 377/2/6 378/2/6 379/2/6
f 379/2/6 378/2/6 380/2/6
f 381/1/6 382/1/6 383/1/6
f 383/1/6 382/1/6 384/1/6
f 384/1/6 382/1/6 385/1/6
f 385/1/6 382/1/6 386/1/6
f 384/2/6 385/2/6 388/2/6
f 388/2/6 385/2/6 389/2/6
f 388/2/6 389/2/6 391/2/6
f 389/2/6 390/2/6 391/2/6
f 387/2/6 388/2/6 391/2/6
f 391/2/6 390/2/6 392/2/6
f 392/2/6 390/2/6 393/2/6
f 393/2/6 390/2/6 394/2/6
f 387/2/6 391/2/6 395/2/6
f 395/2/6 391/2/6 396/2/6
f 392/2/6 393/2/6 397/2/6
f 397/2/6 393/2/6 398/2/6
f 394/2/6 390/2/6 399/2/6
f 399/2/6 390/2/6 400/2/6
f 401/1/6 402/1/6 403/1/6
f 403/1/6 402/1/6 404/1/6
f 404/1/6 402/1/6 405/1/6
f 405/1/6 402/1/6 406/1/6
f 404/1/6 405/1/6 407/1/6
f 407/1/6 405/1/6 408/1/6
