# MagicaVoxel @ Ephtracy

# group
g KitchenShelf2

# material
mtllib KitchenShelf2.mtl
usemtl palette

# normals
vn -1 0 0
vn 1 0 0
vn 0 0 1
vn 0 0 -1
vn 0 -1 0
vn 0 1 0

# texcoords
vt 0.814453 0.5
vt 0.849609 0.5
vt 0.876953 0.5

# verts
v -25 0 20
v -25 0 19
v -25 0 -21
v -25 49 21
v -25 49 20
v -25 49 19
v -25 50 21
v -25 50 -21
v -25 51 21
v -25 51 -21
v 24 1 20
v 24 1 -20
v 24 22 20
v 24 22 19
v 24 22 -20
v 24 24 20
v 24 24 19
v 24 24 -20
v 24 47 20
v 24 47 19
v 24 47 -20
v -23 1 20
v -23 1 19
v -23 1 -20
v -23 22 20
v -23 22 19
v -23 22 -20
v -23 24 20
v -23 24 19
v -23 24 18
v -23 24 -20
v -23 29 19
v -23 29 18
v -23 47 20
v -23 47 19
v -23 47 -20
v 25 0 20
v 25 0 -21
v 25 22 20
v 25 22 19
v 25 24 20
v 25 24 19
v 25 47 20
v 25 47 19
v 25 49 21
v 25 49 20
v 25 49 19
v 25 50 21
v 25 50 -21
v 25 51 21
v 25 51 -21
v -25 49 21
v -25 50 21
v -25 51 21
v 25 49 21
v 25 50 21
v 25 51 21
v -25 0 20
v -25 49 20
v -23 0 20
v -23 1 20
v -23 22 20
v -23 24 20
v -23 47 20
v 24 1 20
v 24 22 20
v 24 24 20
v 24 47 20
v 25 0 20
v 25 22 20
v 25 24 20
v 25 47 20
v 25 49 20
v -23 1 -20
v -23 22 -20
v -23 24 -20
v -23 47 -20
v 24 1 -20
v 24 22 -20
v 24 24 -20
v 24 47 -20
v -25 0 -21
v -25 50 -21
v -25 51 -21
v 25 0 -21
v 25 50 -21
v 25 51 -21
v -25 0 20
v -23 0 20
v 25 0 20
v -25 0 19
v -23 0 19
v -25 0 -21
v 25 0 -21
v -23 22 20
v 24 22 20
v -23 22 19
v 24 22 19
v -23 22 -20
v 24 22 -20
v -23 47 20
v 24 47 20
v -23 47 19
v 24 47 19
v -23 47 -20
v 24 47 -20
v -25 49 21
v 25 49 21
v -25 49 20
v 25 49 20
v -23 1 20
v 24 1 20
v -23 1 19
v -23 1 -20
v 24 1 -20
v -23 24 20
v 24 24 20
v -23 24 19
v 24 24 19
v -23 24 18
v -23 24 -20
v 24 24 -20
v -25 51 21
v 25 51 21
v -25 51 -21
v 25 51 -21

# faces
f 5/1/1 2/1/1 1/1/1
f 6/2/1 3/2/1 2/2/1
f 6/1/1 2/1/1 5/1/1
f 7/2/1 5/2/1 4/2/1
f 7/2/1 6/2/1 5/2/1
f 8/2/1 3/2/1 6/2/1
f 8/2/1 6/2/1 7/2/1
f 9/3/1 8/3/1 7/3/1
f 10/3/1 8/3/1 9/3/1
f 13/2/1 12/2/1 11/2/1
f 14/2/1 12/2/1 13/2/1
f 15/2/1 12/2/1 14/2/1
f 19/2/1 17/2/1 16/2/1
f 19/2/1 18/2/1 17/2/1
f 20/2/1 18/2/1 19/2/1
f 21/2/1 18/2/1 20/2/1
f 22/1/2 23/1/2 25/1/2
f 23/2/2 24/2/2 26/2/2
f 25/1/2 23/1/2 26/1/2
f 26/2/2 24/2/2 27/2/2
f 28/1/2 29/1/2 32/1/2
f 29/1/2 30/1/2 32/1/2
f 30/2/2 31/2/2 33/2/2
f 32/1/2 30/1/2 33/1/2
f 28/1/2 32/1/2 34/1/2
f 32/2/2 33/2/2 35/2/2
f 34/1/2 32/1/2 35/1/2
f 33/2/2 31/2/2 36/2/2
f 35/2/2 33/2/2 36/2/2
f 37/2/2 38/2/2 39/2/2
f 39/2/2 38/2/2 40/2/2
f 39/1/2 40/1/2 41/1/2
f 40/2/2 38/2/2 42/2/2
f 41/1/2 40/1/2 42/1/2
f 41/2/2 42/2/2 43/2/2
f 42/2/2 38/2/2 44/2/2
f 43/2/2 42/2/2 44/2/2
f 43/1/2 44/1/2 46/1/2
f 44/2/2 38/2/2 47/2/2
f 46/1/2 44/1/2 47/1/2
f 45/2/2 46/2/2 48/2/2
f 46/2/2 47/2/2 48/2/2
f 47/2/2 38/2/2 49/2/2
f 48/2/2 47/2/2 49/2/2
f 48/3/2 49/3/2 50/3/2
f 50/3/2 49/3/2 51/3/2
f 55/2/3 53/2/3 52/2/3
f 56/3/3 54/3/3 53/3/3
f 56/2/3 53/2/3 55/2/3
f 57/3/3 54/3/3 56/3/3
f 60/1/3 59/1/3 58/1/3
f 61/1/3 59/1/3 60/1/3
f 62/1/3 59/1/3 61/1/3
f 63/1/3 59/1/3 62/1/3
f 64/1/3 59/1/3 63/1/3
f 65/2/3 61/2/3 60/2/3
f 66/1/3 63/1/3 62/1/3
f 67/1/3 63/1/3 66/1/3
f 68/1/3 59/1/3 64/1/3
f 69/2/3 65/2/3 60/2/3
f 69/2/3 66/2/3 65/2/3
f 70/1/3 67/1/3 66/1/3
f 70/2/3 66/2/3 69/2/3
f 71/2/3 68/2/3 67/2/3
f 71/1/3 67/1/3 70/1/3
f 72/1/3 59/1/3 68/1/3
f 72/2/3 68/2/3 71/2/3
f 73/1/3 59/1/3 72/1/3
f 78/2/3 75/2/3 74/2/3
f 79/2/3 75/2/3 78/2/3
f 80/2/3 77/2/3 76/2/3
f 81/2/3 77/2/3 80/2/3
f 82/2/4 83/2/4 85/2/4
f 83/3/4 84/3/4 86/3/4
f 85/2/4 83/2/4 86/2/4
f 86/3/4 84/3/4 87/3/4
f 91/1/5 89/1/5 88/1/5
f 92/2/5 90/2/5 89/2/5
f 92/1/5 89/1/5 91/1/5
f 93/2/5 92/2/5 91/2/5
f 94/2/5 90/2/5 92/2/5
f 94/2/5 92/2/5 93/2/5
f 97/1/5 96/1/5 95/1/5
f 98/1/5 96/1/5 97/1/5
f 99/2/5 98/2/5 97/2/5
f 100/2/5 98/2/5 99/2/5
f 103/1/5 102/1/5 101/1/5
f 104/1/5 102/1/5 103/1/5
f 105/2/5 104/2/5 103/2/5
f 106/2/5 104/2/5 105/2/5
f 109/2/5 108/2/5 107/2/5
f 110/2/5 108/2/5 109/2/5
f 111/2/6 112/2/6 113/2/6
f 113/2/6 112/2/6 114/2/6
f 114/2/6 112/2/6 115/2/6
f 116/1/6 117/1/6 118/1/6
f 118/1/6 117/1/6 119/1/6
f 118/2/6 119/2/6 120/2/6
f 120/2/6 119/2/6 121/2/6
f 121/2/6 119/2/6 122/2/6
f 123/3/6 124/3/6 125/3/6
f 125/3/6 124/3/6 126/3/6
