# MagicaVoxel @ Ephtracy

# group
g KitchenOPEN_Export-39

# material
mtllib KitchenOPEN_Export-39.mtl
usemtl palette

# normals
vn -1 0 0
vn 1 0 0
vn 0 0 1
vn 0 0 -1
vn 0 -1 0
vn 0 1 0

# texcoords
vt 0.830078 0.5
vt 0.833984 0.5

# verts
v -8.5 5 0.5
v -8.5 5 -0.5
v -8.5 7 0.5
v -8.5 7 -0.5
v -8.5 10 0.5
v -8.5 10 -0.5
v -8.5 13 0.5
v -8.5 13 -0.5
v -8.5 16 0.5
v -8.5 16 -0.5
v -8.5 19 0.5
v -8.5 19 -0.5
v -8.5 22 0.5
v -8.5 22 -0.5
v -8.5 25 0.5
v -8.5 25 -0.5
v -8.5 28 0.5
v -8.5 28 -0.5
v -8.5 31 0.5
v -8.5 31 -0.5
v -3.5 0 0.5
v -3.5 0 -0.5
v -3.5 1 0.5
v -3.5 1 -0.5
v -3.5 4 0.5
v -3.5 4 -0.5
v -3.5 5 0.5
v -3.5 5 -0.5
v 1.5 2 0.5
v 1.5 2 -0.5
v 1.5 4 0.5
v 1.5 4 -0.5
v 1.5 5 0.5
v 1.5 5 -0.5
v -1.5 2 0.5
v -1.5 2 -0.5
v -1.5 4 0.5
v -1.5 4 -0.5
v -1.5 5 0.5
v -1.5 5 -0.5
v 3.5 0 0.5
v 3.5 0 -0.5
v 3.5 1 0.5
v 3.5 1 -0.5
v 3.5 4 0.5
v 3.5 4 -0.5
v 3.5 5 0.5
v 3.5 5 -0.5
v 8.5 5 0.5
v 8.5 5 -0.5
v 8.5 7 0.5
v 8.5 7 -0.5
v 8.5 10 0.5
v 8.5 10 -0.5
v 8.5 13 0.5
v 8.5 13 -0.5
v 8.5 16 0.5
v 8.5 16 -0.5
v 8.5 19 0.5
v 8.5 19 -0.5
v 8.5 22 0.5
v 8.5 22 -0.5
v 8.5 25 0.5
v 8.5 25 -0.5
v 8.5 28 0.5
v 8.5 28 -0.5
v 8.5 31 0.5
v 8.5 31 -0.5
v -8.5 5 0.5
v -8.5 7 0.5
v -8.5 10 0.5
v -8.5 13 0.5
v -8.5 16 0.5
v -8.5 19 0.5
v -8.5 22 0.5
v -8.5 25 0.5
v -8.5 28 0.5
v -8.5 31 0.5
v -5.5 5 0.5
v -5.5 7 0.5
v -5.5 10 0.5
v -5.5 13 0.5
v -5.5 16 0.5
v -5.5 19 0.5
v -5.5 22 0.5
v -5.5 25 0.5
v -5.5 28 0.5
v -5.5 31 0.5
v -3.5 0 0.5
v -3.5 1 0.5
v -3.5 4 0.5
v -3.5 5 0.5
v -2.5 0 0.5
v -2.5 1 0.5
v -2.5 4 0.5
v -2.5 7 0.5
v -2.5 10 0.5
v -2.5 13 0.5
v -2.5 16 0.5
v -2.5 19 0.5
v -2.5 22 0.5
v -2.5 25 0.5
v -2.5 28 0.5
v -2.5 31 0.5
v -1.5 2 0.5
v -1.5 4 0.5
v -1.5 5 0.5
v 0.5 0 0.5
v 0.5 1 0.5
v 0.5 2 0.5
v 0.5 5 0.5
v 0.5 7 0.5
v 0.5 10 0.5
v 0.5 13 0.5
v 0.5 16 0.5
v 0.5 19 0.5
v 0.5 22 0.5
v 0.5 25 0.5
v 0.5 28 0.5
v 0.5 31 0.5
v 1.5 2 0.5
v 1.5 4 0.5
v 1.5 5 0.5
v 3.5 0 0.5
v 3.5 1 0.5
v 3.5 4 0.5
v 3.5 5 0.5
v 3.5 7 0.5
v 3.5 10 0.5
v 3.5 13 0.5
v 3.5 16 0.5
v 3.5 19 0.5
v 3.5 22 0.5
v 3.5 25 0.5
v 3.5 28 0.5
v 3.5 31 0.5
v 6.5 5 0.5
v 6.5 7 0.5
v 6.5 10 0.5
v 6.5 13 0.5
v 6.5 16 0.5
v 6.5 19 0.5
v 6.5 22 0.5
v 6.5 25 0.5
v 6.5 28 0.5
v 6.5 31 0.5
v 8.5 5 0.5
v 8.5 7 0.5
v 8.5 10 0.5
v 8.5 13 0.5
v 8.5 16 0.5
v 8.5 19 0.5
v 8.5 22 0.5
v 8.5 25 0.5
v 8.5 28 0.5
v 8.5 31 0.5
v -8.5 5 -0.5
v -8.5 7 -0.5
v -8.5 10 -0.5
v -8.5 13 -0.5
v -8.5 16 -0.5
v -8.5 19 -0.5
v -8.5 22 -0.5
v -8.5 25 -0.5
v -8.5 28 -0.5
v -8.5 31 -0.5
v -5.5 5 -0.5
v -5.5 7 -0.5
v -5.5 10 -0.5
v -5.5 13 -0.5
v -5.5 16 -0.5
v -5.5 19 -0.5
v -5.5 22 -0.5
v -5.5 25 -0.5
v -5.5 28 -0.5
v -5.5 31 -0.5
v -3.5 0 -0.5
v -3.5 1 -0.5
v -3.5 4 -0.5
v -3.5 5 -0.5
v -2.5 0 -0.5
v -2.5 1 -0.5
v -2.5 4 -0.5
v -2.5 7 -0.5
v -2.5 10 -0.5
v -2.5 13 -0.5
v -2.5 16 -0.5
v -2.5 19 -0.5
v -2.5 22 -0.5
v -2.5 25 -0.5
v -2.5 28 -0.5
v -2.5 31 -0.5
v -1.5 2 -0.5
v -1.5 4 -0.5
v -1.5 5 -0.5
v 0.5 0 -0.5
v 0.5 1 -0.5
v 0.5 2 -0.5
v 0.5 5 -0.5
v 0.5 7 -0.5
v 0.5 10 -0.5
v 0.5 13 -0.5
v 0.5 16 -0.5
v 0.5 19 -0.5
v 0.5 22 -0.5
v 0.5 25 -0.5
v 0.5 28 -0.5
v 0.5 31 -0.5
v 1.5 2 -0.5
v 1.5 4 -0.5
v 1.5 5 -0.5
v 3.5 0 -0.5
v 3.5 1 -0.5
v 3.5 4 -0.5
v 3.5 5 -0.5
v 3.5 7 -0.5
v 3.5 10 -0.5
v 3.5 13 -0.5
v 3.5 16 -0.5
v 3.5 19 -0.5
v 3.5 22 -0.5
v 3.5 25 -0.5
v 3.5 28 -0.5
v 3.5 31 -0.5
v 6.5 5 -0.5
v 6.5 7 -0.5
v 6.5 10 -0.5
v 6.5 13 -0.5
v 6.5 16 -0.5
v 6.5 19 -0.5
v 6.5 22 -0.5
v 6.5 25 -0.5
v 6.5 28 -0.5
v 6.5 31 -0.5
v 8.5 5 -0.5
v 8.5 7 -0.5
v 8.5 10 -0.5
v 8.5 13 -0.5
v 8.5 16 -0.5
v 8.5 19 -0.5
v 8.5 22 -0.5
v 8.5 25 -0.5
v 8.5 28 -0.5
v 8.5 31 -0.5
v -3.5 0 0.5
v -2.5 0 0.5
v 0.5 0 0.5
v 3.5 0 0.5
v -3.5 0 -0.5
v -2.5 0 -0.5
v 0.5 0 -0.5
v 3.5 0 -0.5
v -8.5 5 0.5
v -5.5 5 0.5
v -3.5 5 0.5
v -1.5 5 0.5
v 0.5 5 0.5
v 1.5 5 0.5
v 3.5 5 0.5
v 6.5 5 0.5
v 8.5 5 0.5
v -8.5 5 -0.5
v -5.5 5 -0.5
v -3.5 5 -0.5
v -1.5 5 -0.5
v 0.5 5 -0.5
v 1.5 5 -0.5
v 3.5 5 -0.5
v 6.5 5 -0.5
v 8.5 5 -0.5
v -1.5 2 0.5
v 0.5 2 0.5
v 1.5 2 0.5
v -1.5 2 -0.5
v 0.5 2 -0.5
v 1.5 2 -0.5
v -8.5 31 0.5
v -5.5 31 0.5
v -2.5 31 0.5
v 0.5 31 0.5
v 3.5 31 0.5
v 6.5 31 0.5
v 8.5 31 0.5
v -8.5 31 -0.5
v -5.5 31 -0.5
v -2.5 31 -0.5
v 0.5 31 -0.5
v 3.5 31 -0.5
v 6.5 31 -0.5
v 8.5 31 -0.5

# faces
f 3/2/1 2/2/1 1/2/1
f 4/2/1 2/2/1 3/2/1
f 5/1/1 4/1/1 3/1/1
f 6/1/1 4/1/1 5/1/1
f 7/2/1 6/2/1 5/2/1
f 8/2/1 6/2/1 7/2/1
f 9/1/1 8/1/1 7/1/1
f 10/1/1 8/1/1 9/1/1
f 11/2/1 10/2/1 9/2/1
f 12/2/1 10/2/1 11/2/1
f 13/1/1 12/1/1 11/1/1
f 14/1/1 12/1/1 13/1/1
f 15/2/1 14/2/1 13/2/1
f 16/2/1 14/2/1 15/2/1
f 17/1/1 16/1/1 15/1/1
f 18/1/1 16/1/1 17/1/1
f 19/2/1 18/2/1 17/2/1
f 20/2/1 18/2/1 19/2/1
f 23/1/1 22/1/1 21/1/1
f 24/1/1 22/1/1 23/1/1
f 25/2/1 24/2/1 23/2/1
f 26/2/1 24/2/1 25/2/1
f 27/1/1 26/1/1 25/1/1
f 28/1/1 26/1/1 27/1/1
f 31/2/1 30/2/1 29/2/1
f 32/2/1 30/2/1 31/2/1
f 33/1/1 32/1/1 31/1/1
f 34/1/1 32/1/1 33/1/1
f 35/1/2 36/1/2 37/1/2
f 37/1/2 36/1/2 38/1/2
f 37/2/2 38/2/2 39/2/2
f 39/2/2 38/2/2 40/2/2
f 41/1/2 42/1/2 43/1/2
f 43/1/2 42/1/2 44/1/2
f 43/2/2 44/2/2 45/2/2
f 45/2/2 44/2/2 46/2/2
f 45/1/2 46/1/2 47/1/2
f 47/1/2 46/1/2 48/1/2
f 49/1/2 50/1/2 51/1/2
f 51/1/2 50/1/2 52/1/2
f 51/2/2 52/2/2 53/2/2
f 53/2/2 52/2/2 54/2/2
f 53/1/2 54/1/2 55/1/2
f 55/1/2 54/1/2 56/1/2
f 55/2/2 56/2/2 57/2/2
f 57/2/2 56/2/2 58/2/2
f 57/1/2 58/1/2 59/1/2
f 59/1/2 58/1/2 60/1/2
f 59/2/2 60/2/2 61/2/2
f 61/2/2 60/2/2 62/2/2
f 61/1/2 62/1/2 63/1/2
f 63/1/2 62/1/2 64/1/2
f 63/2/2 64/2/2 65/2/2
f 65/2/2 64/2/2 66/2/2
f 65/1/2 66/1/2 67/1/2
f 67/1/2 66/1/2 68/1/2
f 79/2/3 70/2/3 69/2/3
f 80/1/3 71/1/3 70/1/3
f 80/2/3 70/2/3 79/2/3
f 81/2/3 72/2/3 71/2/3
f 81/1/3 71/1/3 80/1/3
f 82/1/3 73/1/3 72/1/3
f 82/2/3 72/2/3 81/2/3
f 83/2/3 74/2/3 73/2/3
f 83/1/3 73/1/3 82/1/3
f 84/1/3 75/1/3 74/1/3
f 84/2/3 74/2/3 83/2/3
f 85/2/3 76/2/3 75/2/3
f 85/1/3 75/1/3 84/1/3
f 86/1/3 77/1/3 76/1/3
f 86/2/3 76/2/3 85/2/3
f 87/2/3 78/2/3 77/2/3
f 87/1/3 77/1/3 86/1/3
f 88/2/3 78/2/3 87/2/3
f 92/1/3 80/1/3 79/1/3
f 93/1/3 90/1/3 89/1/3
f 94/2/3 91/2/3 90/2/3
f 94/1/3 90/1/3 93/1/3
f 95/1/3 92/1/3 91/1/3
f 95/2/3 91/2/3 94/2/3
f 96/2/3 81/2/3 80/2/3
f 96/1/3 92/1/3 95/1/3
f 96/1/3 80/1/3 92/1/3
f 97/1/3 82/1/3 81/1/3
f 97/2/3 81/2/3 96/2/3
f 98/2/3 83/2/3 82/2/3
f 98/1/3 82/1/3 97/1/3
f 99/1/3 84/1/3 83/1/3
f 99/2/3 83/2/3 98/2/3
f 100/2/3 85/2/3 84/2/3
f 100/1/3 84/1/3 99/1/3
f 101/1/3 86/1/3 85/1/3
f 101/2/3 85/2/3 100/2/3
f 102/2/3 87/2/3 86/2/3
f 102/1/3 86/1/3 101/1/3
f 103/1/3 88/1/3 87/1/3
f 103/2/3 87/2/3 102/2/3
f 104/1/3 88/1/3 103/1/3
f 105/1/3 95/1/3 94/1/3
f 106/2/3 96/2/3 95/2/3
f 106/1/3 95/1/3 105/1/3
f 107/2/3 96/2/3 106/2/3
f 108/2/3 94/2/3 93/2/3
f 109/1/3 105/1/3 94/1/3
f 109/2/3 94/2/3 108/2/3
f 110/1/3 105/1/3 109/1/3
f 111/2/3 96/2/3 107/2/3
f 112/1/3 97/1/3 96/1/3
f 112/2/3 96/2/3 111/2/3
f 113/2/3 98/2/3 97/2/3
f 113/1/3 97/1/3 112/1/3
f 114/1/3 99/1/3 98/1/3
f 114/2/3 98/2/3 113/2/3
f 115/2/3 100/2/3 99/2/3
f 115/1/3 99/1/3 114/1/3
f 116/1/3 101/1/3 100/1/3
f 116/2/3 100/2/3 115/2/3
f 117/2/3 102/2/3 101/2/3
f 117/1/3 101/1/3 116/1/3
f 118/1/3 103/1/3 102/1/3
f 118/2/3 102/2/3 117/2/3
f 119/2/3 104/2/3 103/2/3
f 119/1/3 103/1/3 118/1/3
f 120/2/3 104/2/3 119/2/3
f 121/2/3 110/2/3 109/2/3
f 123/1/3 112/1/3 111/1/3
f 124/1/3 109/1/3 108/1/3
f 125/2/3 122/2/3 121/2/3
f 125/1/3 109/1/3 124/1/3
f 125/2/3 121/2/3 109/2/3
f 126/1/3 123/1/3 122/1/3
f 126/2/3 122/2/3 125/2/3
f 127/1/3 112/1/3 123/1/3
f 127/1/3 123/1/3 126/1/3
f 128/2/3 113/2/3 112/2/3
f 128/1/3 112/1/3 127/1/3
f 129/1/3 114/1/3 113/1/3
f 129/2/3 113/2/3 128/2/3
f 130/2/3 115/2/3 114/2/3
f 130/1/3 114/1/3 129/1/3
f 131/1/3 116/1/3 115/1/3
f 131/2/3 115/2/3 130/2/3
f 132/2/3 117/2/3 116/2/3
f 132/1/3 116/1/3 131/1/3
f 133/1/3 118/1/3 117/1/3
f 133/2/3 117/2/3 132/2/3
f 134/2/3 119/2/3 118/2/3
f 134/1/3 118/1/3 133/1/3
f 135/1/3 120/1/3 119/1/3
f 135/2/3 119/2/3 134/2/3
f 136/1/3 120/1/3 135/1/3
f 137/2/3 128/2/3 127/2/3
f 138/1/3 129/1/3 128/1/3
f 138/2/3 128/2/3 137/2/3
f 139/2/3 130/2/3 129/2/3
f 139/1/3 129/1/3 138/1/3
f 140/1/3 131/1/3 130/1/3
f 140/2/3 130/2/3 139/2/3
f 141/2/3 132/2/3 131/2/3
f 141/1/3 131/1/3 140/1/3
f 142/1/3 133/1/3 132/1/3
f 142/2/3 132/2/3 141/2/3
f 143/2/3 134/2/3 133/2/3
f 143/1/3 133/1/3 142/1/3
f 144/1/3 135/1/3 134/1/3
f 144/2/3 134/2/3 143/2/3
f 145/2/3 136/2/3 135/2/3
f 145/1/3 135/1/3 144/1/3
f 146/2/3 136/2/3 145/2/3
f 147/1/3 138/1/3 137/1/3
f 148/2/3 139/2/3 138/2/3
f 148/1/3 138/1/3 147/1/3
f 149/1/3 140/1/3 139/1/3
f 149/2/3 139/2/3 148/2/3
f 150/2/3 141/2/3 140/2/3
f 150/1/3 140/1/3 149/1/3
f 151/1/3 142/1/3 141/1/3
f 151/2/3 141/2/3 150/2/3
f 152/2/3 143/2/3 142/2/3
f 152/1/3 142/1/3 151/1/3
f 153/1/3 144/1/3 143/1/3
f 153/2/3 143/2/3 152/2/3
f 154/2/3 145/2/3 144/2/3
f 154/1/3 144/1/3 153/1/3
f 155/1/3 146/1/3 145/1/3
f 155/2/3 145/2/3 154/2/3
f 156/1/3 146/1/3 155/1/3
f 157/2/4 158/2/4 167/2/4
f 158/1/4 159/1/4 168/1/4
f 167/2/4 158/2/4 168/2/4
f 159/2/4 160/2/4 169/2/4
f 168/1/4 159/1/4 169/1/4
f 160/1/4 161/1/4 170/1/4
f 169/2/4 160/2/4 170/2/4
f 161/2/4 162/2/4 171/2/4
f 170/1/4 161/1/4 171/1/4
f 162/1/4 163/1/4 172/1/4
f 171/2/4 162/2/4 172/2/4
f 163/2/4 164/2/4 173/2/4
f 172/1/4 163/1/4 173/1/4
f 164/1/4 165/1/4 174/1/4
f 173/2/4 164/2/4 174/2/4
f 165/2/4 166/2/4 175/2/4
f 174/1/4 165/1/4 175/1/4
f 175/2/4 166/2/4 176/2/4
f 167/1/4 168/1/4 180/1/4
f 177/1/4 178/1/4 181/1/4
f 178/2/4 179/2/4 182/2/4
f 181/1/4 178/1/4 182/1/4
f 179/1/4 180/1/4 183/1/4
f 182/2/4 179/2/4 183/2/4
f 168/2/4 169/2/4 184/2/4
f 183/1/4 180/1/4 184/1/4
f 180/1/4 168/1/4 184/1/4
f 169/1/4 170/1/4 185/1/4
f 184/2/4 169/2/4 185/2/4
f 170/2/4 171/2/4 186/2/4
f 185/1/4 170/1/4 186/1/4
f 171/1/4 172/1/4 187/1/4
f 186/2/4 171/2/4 187/2/4
f 172/2/4 173/2/4 188/2/4
f 187/1/4 172/1/4 188/1/4
f 173/1/4 174/1/4 189/1/4
f 188/2/4 173/2/4 189/2/4
f 174/2/4 175/2/4 190/2/4
f 189/1/4 174/1/4 190/1/4
f 175/1/4 176/1/4 191/1/4
f 190/2/4 175/2/4 191/2/4
f 191/1/4 176/1/4 192/1/4
f 182/1/4 183/1/4 193/1/4
f 183/2/4 184/2/4 194/2/4
f 193/1/4 183/1/4 194/1/4
f 194/2/4 184/2/4 195/2/4
f 181/2/4 182/2/4 196/2/4
f 182/1/4 193/1/4 197/1/4
f 196/2/4 182/2/4 197/2/4
f 197/1/4 193/1/4 198/1/4
f 195/2/4 184/2/4 199/2/4
f 184/1/4 185/1/4 200/1/4
f 199/2/4 184/2/4 200/2/4
f 185/2/4 186/2/4 201/2/4
f 200/1/4 185/1/4 201/1/4
f 186/1/4 187/1/4 202/1/4
f 201/2/4 186/2/4 202/2/4
f 187/2/4 188/2/4 203/2/4
f 202/1/4 187/1/4 203/1/4
f 188/1/4 189/1/4 204/1/4
f 203/2/4 188/2/4 204/2/4
f 189/2/4 190/2/4 205/2/4
f 204/1/4 189/1/4 205/1/4
f 190/1/4 191/1/4 206/1/4
f 205/2/4 190/2/4 206/2/4
f 191/2/4 192/2/4 207/2/4
f 206/1/4 191/1/4 207/1/4
f 207/2/4 192/2/4 208/2/4
f 197/2/4 198/2/4 209/2/4
f 199/1/4 200/1/4 211/1/4
f 196/1/4 197/1/4 212/1/4
f 209/2/4 210/2/4 213/2/4
f 212/1/4 197/1/4 213/1/4
f 197/2/4 209/2/4 213/2/4
f 210/1/4 211/1/4 214/1/4
f 213/2/4 210/2/4 214/2/4
f 211/1/4 200/1/4 215/1/4
f 214/1/4 211/1/4 215/1/4
f 200/2/4 201/2/4 216/2/4
f 215/1/4 200/1/4 216/1/4
f 201/1/4 202/1/4 217/1/4
f 216/2/4 201/2/4 217/2/4
f 202/2/4 203/2/4 218/2/4
f 217/1/4 202/1/4 218/1/4
f 203/1/4 204/1/4 219/1/4
f 218/2/4 203/2/4 219/2/4
f 204/2/4 205/2/4 220/2/4
f 219/1/4 204/1/4 220/1/4
f 205/1/4 206/1/4 221/1/4
f 220/2/4 205/2/4 221/2/4
f 206/2/4 207/2/4 222/2/4
f 221/1/4 206/1/4 222/1/4
f 207/1/4 208/1/4 223/1/4
f 222/2/4 207/2/4 223/2/4
f 223/1/4 208/1/4 224/1/4
f 215/2/4 216/2/4 225/2/4
f 216/1/4 217/1/4 226/1/4
f 225/2/4 216/2/4 226/2/4
f 217/2/4 218/2/4 227/2/4
f 226/1/4 217/1/4 227/1/4
f 218/1/4 219/1/4 228/1/4
f 227/2/4 218/2/4 228/2/4
f 219/2/4 220/2/4 229/2/4
f 228/1/4 219/1/4 229/1/4
f 220/1/4 221/1/4 230/1/4
f 229/2/4 220/2/4 230/2/4
f 221/2/4 222/2/4 231/2/4
f 230/1/4 221/1/4 231/1/4
f 222/1/4 223/1/4 232/1/4
f 231/2/4 222/2/4 232/2/4
f 223/2/4 224/2/4 233/2/4
f 232/1/4 223/1/4 233/1/4
f 233/2/4 224/2/4 234/2/4
f 225/1/4 226/1/4 235/1/4
f 226/2/4 227/2/4 236/2/4
f 235/1/4 226/1/4 236/1/4
f 227/1/4 228/1/4 237/1/4
f 236/2/4 227/2/4 237/2/4
f 228/2/4 229/2/4 238/2/4
f 237/1/4 228/1/4 238/1/4
f 229/1/4 230/1/4 239/1/4
f 238/2/4 229/2/4 239/2/4
f 230/2/4 231/2/4 240/2/4
f 239/1/4 230/1/4 240/1/4
f 231/1/4 232/1/4 241/1/4
f 240/2/4 231/2/4 241/2/4
f 232/2/4 233/2/4 242/2/4
f 241/1/4 232/1/4 242/1/4
f 233/1/4 234/1/4 243/1/4
f 242/2/4 233/2/4 243/2/4
f 243/1/4 234/1/4 244/1/4
f 249/1/5 246/1/5 245/1/5
f 250/2/5 247/2/5 246/2/5
f 250/1/5 246/1/5 249/1/5
f 251/1/5 248/1/5 247/1/5
f 251/2/5 247/2/5 250/2/5
f 252/1/5 248/1/5 251/1/5
f 262/2/5 254/2/5 253/2/5
f 263/1/5 255/1/5 254/1/5
f 263/2/5 254/2/5 262/2/5
f 264/1/5 255/1/5 263/1/5
f 265/2/5 257/2/5 256/2/5
f 266/1/5 258/1/5 257/1/5
f 266/2/5 257/2/5 265/2/5
f 267/1/5 258/1/5 266/1/5
f 268/2/5 260/2/5 259/2/5
f 269/1/5 261/1/5 260/1/5
f 269/2/5 260/2/5 268/2/5
f 270/1/5 261/1/5 269/1/5
f 271/1/6 272/1/6 274/1/6
f 272/2/6 273/2/6 275/2/6
f 274/1/6 272/1/6 275/1/6
f 275/2/6 273/2/6 276/2/6
f 277/2/6 278/2/6 284/2/6
f 278/1/6 279/1/6 285/1/6
f 284/2/6 278/2/6 285/2/6
f 279/2/6 280/2/6 286/2/6
f 285/1/6 279/1/6 286/1/6
f 280/1/6 281/1/6 287/1/6
f 286/2/6 280/2/6 287/2/6
f 281/2/6 282/2/6 288/2/6
f 287/1/6 281/1/6 288/1/6
f 282/1/6 283/1/6 289/1/6
f 288/2/6 282/2/6 289/2/6
f 289/1/6 283/1/6 290/1/6
