# MagicaVoxel @ Ephtracy

# group
g KitchenOPEN_Export-9

# material
mtllib KitchenOPEN_Export-9.mtl
usemtl palette

# normals
vn -1 0 0
vn 1 0 0
vn 0 0 1
vn 0 0 -1
vn 0 -1 0
vn 0 1 0

# texcoords
vt 0.814453 0.5
vt 0.849609 0.5
vt 0.876953 0.5

# verts
v -14 0 20
v -14 0 -21
v -14 22 20
v -14 22 19
v -14 24 20
v -14 24 19
v -14 47 20
v -14 47 19
v -14 49 21
v -14 49 20
v -14 49 19
v -14 50 21
v -14 50 -21
v -14 51 21
v -14 51 -21
v 13 1 20
v 13 1 -20
v 13 22 20
v 13 22 19
v 13 22 -20
v 13 24 20
v 13 24 19
v 13 24 -20
v 13 47 20
v 13 47 19
v 13 47 -20
v -13 1 20
v -13 1 -20
v -13 22 20
v -13 22 19
v -13 22 -20
v -13 24 20
v -13 24 19
v -13 24 -20
v -13 47 20
v -13 47 19
v -13 47 -20
v 14 0 20
v 14 0 -21
v 14 22 20
v 14 22 19
v 14 24 20
v 14 24 19
v 14 47 20
v 14 47 19
v 14 49 21
v 14 49 20
v 14 49 19
v 14 50 21
v 14 50 -21
v 14 51 21
v 14 51 -21
v -14 49 21
v -14 50 21
v -14 51 21
v 14 49 21
v 14 50 21
v 14 51 21
v -14 0 20
v -14 22 20
v -14 24 20
v -14 47 20
v -14 49 20
v -13 1 20
v -13 22 20
v -13 24 20
v -13 47 20
v 13 1 20
v 13 22 20
v 13 24 20
v 13 47 20
v 14 0 20
v 14 22 20
v 14 24 20
v 14 47 20
v 14 49 20
v -13 1 -20
v -13 22 -20
v -13 24 -20
v -13 47 -20
v 13 1 -20
v 13 22 -20
v 13 24 -20
v 13 47 -20
v -14 0 -21
v -14 50 -21
v -14 51 -21
v 14 0 -21
v 14 50 -21
v 14 51 -21
v -14 0 20
v 14 0 20
v -14 0 -21
v 14 0 -21
v -13 22 20
v 13 22 20
v -13 22 19
v 13 22 19
v -13 22 -20
v 13 22 -20
v -13 47 20
v 13 47 20
v -13 47 19
v 13 47 19
v -13 47 -20
v 13 47 -20
v -14 49 21
v 14 49 21
v -14 49 20
v 14 49 20
v -13 1 20
v 13 1 20
v -13 1 -20
v 13 1 -20
v -13 24 20
v 13 24 20
v -13 24 19
v 13 24 19
v -13 24 -20
v 13 24 -20
v -14 51 21
v 14 51 21
v -14 51 -21
v 14 51 -21

# faces
f 3/2/1 2/2/1 1/2/1
f 4/2/1 2/2/1 3/2/1
f 5/1/1 4/1/1 3/1/1
f 6/2/1 2/2/1 4/2/1
f 6/1/1 4/1/1 5/1/1
f 7/2/1 6/2/1 5/2/1
f 8/2/1 2/2/1 6/2/1
f 8/2/1 6/2/1 7/2/1
f 10/1/1 8/1/1 7/1/1
f 11/2/1 2/2/1 8/2/1
f 11/1/1 8/1/1 10/1/1
f 12/2/1 10/2/1 9/2/1
f 12/2/1 11/2/1 10/2/1
f 13/2/1 2/2/1 11/2/1
f 13/2/1 11/2/1 12/2/1
f 14/3/1 13/3/1 12/3/1
f 15/3/1 13/3/1 14/3/1
f 18/2/1 17/2/1 16/2/1
f 19/2/1 17/2/1 18/2/1
f 20/2/1 17/2/1 19/2/1
f 24/2/1 22/2/1 21/2/1
f 24/2/1 23/2/1 22/2/1
f 25/2/1 23/2/1 24/2/1
f 26/2/1 23/2/1 25/2/1
f 27/2/2 28/2/2 29/2/2
f 29/2/2 28/2/2 30/2/2
f 30/2/2 28/2/2 31/2/2
f 32/2/2 33/2/2 35/2/2
f 33/2/2 34/2/2 35/2/2
f 35/2/2 34/2/2 36/2/2
f 36/2/2 34/2/2 37/2/2
f 38/2/2 39/2/2 40/2/2
f 40/2/2 39/2/2 41/2/2
f 40/1/2 41/1/2 42/1/2
f 41/2/2 39/2/2 43/2/2
f 42/1/2 41/1/2 43/1/2
f 42/2/2 43/2/2 44/2/2
f 43/2/2 39/2/2 45/2/2
f 44/2/2 43/2/2 45/2/2
f 44/1/2 45/1/2 47/1/2
f 45/2/2 39/2/2 48/2/2
f 47/1/2 45/1/2 48/1/2
f 46/2/2 47/2/2 49/2/2
f 47/2/2 48/2/2 49/2/2
f 48/2/2 39/2/2 50/2/2
f 49/2/2 48/2/2 50/2/2
f 49/3/2 50/3/2 51/3/2
f 51/3/2 50/3/2 52/3/2
f 56/2/3 54/2/3 53/2/3
f 57/3/3 55/3/3 54/3/3
f 57/2/3 54/2/3 56/2/3
f 58/3/3 55/3/3 57/3/3
f 64/2/3 60/2/3 59/2/3
f 65/1/3 61/1/3 60/1/3
f 65/2/3 60/2/3 64/2/3
f 66/2/3 62/2/3 61/2/3
f 66/1/3 61/1/3 65/1/3
f 67/1/3 63/1/3 62/1/3
f 67/2/3 62/2/3 66/2/3
f 68/2/3 64/2/3 59/2/3
f 69/1/3 66/1/3 65/1/3
f 70/1/3 66/1/3 69/1/3
f 71/1/3 63/1/3 67/1/3
f 72/2/3 68/2/3 59/2/3
f 72/2/3 69/2/3 68/2/3
f 73/1/3 70/1/3 69/1/3
f 73/2/3 69/2/3 72/2/3
f 74/2/3 71/2/3 70/2/3
f 74/1/3 70/1/3 73/1/3
f 75/1/3 63/1/3 71/1/3
f 75/2/3 71/2/3 74/2/3
f 76/1/3 63/1/3 75/1/3
f 81/2/3 78/2/3 77/2/3
f 82/2/3 78/2/3 81/2/3
f 83/2/3 80/2/3 79/2/3
f 84/2/3 80/2/3 83/2/3
f 85/2/4 86/2/4 88/2/4
f 86/3/4 87/3/4 89/3/4
f 88/2/4 86/2/4 89/2/4
f 89/3/4 87/3/4 90/3/4
f 93/2/5 92/2/5 91/2/5
f 94/2/5 92/2/5 93/2/5
f 97/1/5 96/1/5 95/1/5
f 98/1/5 96/1/5 97/1/5
f 99/2/5 98/2/5 97/2/5
f 100/2/5 98/2/5 99/2/5
f 103/1/5 102/1/5 101/1/5
f 104/1/5 102/1/5 103/1/5
f 105/2/5 104/2/5 103/2/5
f 106/2/5 104/2/5 105/2/5
f 109/2/5 108/2/5 107/2/5
f 110/2/5 108/2/5 109/2/5
f 111/2/6 112/2/6 113/2/6
f 113/2/6 112/2/6 114/2/6
f 115/1/6 116/1/6 117/1/6
f 117/1/6 116/1/6 118/1/6
f 117/2/6 118/2/6 119/2/6
f 119/2/6 118/2/6 120/2/6
f 121/3/6 122/3/6 123/3/6
f 123/3/6 122/3/6 124/3/6
