# MagicaVoxel @ Ephtracy

# group
g KitchenOPEN_Export-35

# material
mtllib KitchenOPEN_Export-35.mtl
usemtl palette

# normals
vn -1 0 0
vn 1 0 0
vn 0 0 1
vn 0 0 -1
vn 0 -1 0
vn 0 1 0

# texcoords
vt 0.814453 0.5
vt 0.845703 0.5
vt 0.849609 0.5

# verts
v -25 0 -0.5
v -25 0 -1.5
v -25 39 -0.5
v -25 39 -1.5
v -22 3 0.5
v -22 3 -0.5
v -22 33 0.5
v -22 33 -0.5
v -22 35 2.5
v -22 35 -0.5
v -22 36 2.5
v -22 36 -0.5
v -21 4 -1.5
v -21 4 -2.5
v -21 32 -1.5
v -21 32 -2.5
v 20 35 1.5
v 20 35 -0.5
v 20 36 1.5
v 20 36 -0.5
v 21 4 0.5
v 21 4 -0.5
v 21 4 -1.5
v 21 32 0.5
v 21 32 -0.5
v 21 32 -1.5
v -21 4 0.5
v -21 4 -0.5
v -21 4 -1.5
v -21 32 0.5
v -21 32 -0.5
v -21 32 -1.5
v -20 35 1.5
v -20 35 -0.5
v -20 36 1.5
v -20 36 -0.5
v 21 4 -1.5
v 21 4 -2.5
v 21 32 -1.5
v 21 32 -2.5
v 22 3 0.5
v 22 3 -0.5
v 22 33 0.5
v 22 33 -0.5
v 22 35 2.5
v 22 35 -0.5
v 22 36 2.5
v 22 36 -0.5
v 25 0 -0.5
v 25 0 -1.5
v 25 39 -0.5
v 25 39 -1.5
v -22 35 2.5
v -22 36 2.5
v 22 35 2.5
v 22 36 2.5
v -22 3 0.5
v -22 33 0.5
v -21 4 0.5
v -21 32 0.5
v 21 4 0.5
v 21 32 0.5
v 22 3 0.5
v 22 33 0.5
v -25 0 -0.5
v -25 39 -0.5
v -22 3 -0.5
v -22 33 -0.5
v -22 35 -0.5
v -22 36 -0.5
v -20 35 -0.5
v -20 36 -0.5
v 20 35 -0.5
v 20 36 -0.5
v 22 3 -0.5
v 22 33 -0.5
v 22 35 -0.5
v 22 36 -0.5
v 25 0 -0.5
v 25 39 -0.5
v -21 4 -1.5
v -21 32 -1.5
v 21 4 -1.5
v 21 32 -1.5
v -20 35 1.5
v -20 36 1.5
v 20 35 1.5
v 20 36 1.5
v -25 0 -1.5
v -25 39 -1.5
v -21 4 -1.5
v -21 32 -1.5
v 21 4 -1.5
v 21 32 -1.5
v 25 0 -1.5
v 25 39 -1.5
v -21 4 -2.5
v -21 32 -2.5
v 21 4 -2.5
v 21 32 -2.5
v -25 0 -0.5
v 25 0 -0.5
v -25 0 -1.5
v 25 0 -1.5
v -22 3 0.5
v 22 3 0.5
v -22 3 -0.5
v 22 3 -0.5
v -21 4 -1.5
v 21 4 -1.5
v -21 4 -2.5
v 21 4 -2.5
v -21 32 0.5
v 21 32 0.5
v -21 32 -0.5
v 21 32 -0.5
v -21 32 -1.5
v 21 32 -1.5
v -22 35 2.5
v 22 35 2.5
v -20 35 1.5
v 20 35 1.5
v -22 35 -0.5
v -20 35 -0.5
v 20 35 -0.5
v 22 35 -0.5
v -21 4 0.5
v 21 4 0.5
v -21 4 -0.5
v 21 4 -0.5
v -21 4 -1.5
v 21 4 -1.5
v -21 32 -1.5
v 21 32 -1.5
v -21 32 -2.5
v 21 32 -2.5
v -22 33 0.5
v 22 33 0.5
v -22 33 -0.5
v 22 33 -0.5
v -22 36 2.5
v 22 36 2.5
v -20 36 1.5
v 20 36 1.5
v -22 36 -0.5
v -20 36 -0.5
v 20 36 -0.5
v 22 36 -0.5
v -25 39 -0.5
v 25 39 -0.5
v -25 39 -1.5
v 25 39 -1.5

# faces
f 3/3/1 2/3/1 1/3/1
f 4/3/1 2/3/1 3/3/1
f 7/1/1 6/1/1 5/1/1
f 8/1/1 6/1/1 7/1/1
f 11/2/1 10/2/1 9/2/1
f 12/2/1 10/2/1 11/2/1
f 15/2/1 14/2/1 13/2/1
f 16/2/1 14/2/1 15/2/1
f 19/2/1 18/2/1 17/2/1
f 20/2/1 18/2/1 19/2/1
f 24/1/1 22/1/1 21/1/1
f 25/3/1 23/3/1 22/3/1
f 25/1/1 22/1/1 24/1/1
f 26/3/1 23/3/1 25/3/1
f 27/1/2 28/1/2 30/1/2
f 28/3/2 29/3/2 31/3/2
f 30/1/2 28/1/2 31/1/2
f 31/3/2 29/3/2 32/3/2
f 33/2/2 34/2/2 35/2/2
f 35/2/2 34/2/2 36/2/2
f 37/2/2 38/2/2 39/2/2
f 39/2/2 38/2/2 40/2/2
f 41/1/2 42/1/2 43/1/2
f 43/1/2 42/1/2 44/1/2
f 45/2/2 46/2/2 47/2/2
f 47/2/2 46/2/2 48/2/2
f 49/3/2 50/3/2 51/3/2
f 51/3/2 50/3/2 52/3/2
f 55/2/3 54/2/3 53/2/3
f 56/2/3 54/2/3 55/2/3
f 59/1/3 58/1/3 57/1/3
f 60/1/3 58/1/3 59/1/3
f 61/1/3 59/1/3 57/1/3
f 62/1/3 58/1/3 60/1/3
f 63/1/3 61/1/3 57/1/3
f 63/1/3 62/1/3 61/1/3
f 64/1/3 58/1/3 62/1/3
f 64/1/3 62/1/3 63/1/3
f 67/3/3 66/3/3 65/3/3
f 68/3/3 66/3/3 67/3/3
f 69/3/3 66/3/3 68/3/3
f 70/3/3 66/3/3 69/3/3
f 71/3/3 69/3/3 68/3/3
f 72/3/3 66/3/3 70/3/3
f 73/3/3 71/3/3 68/3/3
f 73/3/3 72/3/3 71/3/3
f 74/3/3 66/3/3 72/3/3
f 74/3/3 72/3/3 73/3/3
f 75/3/3 67/3/3 65/3/3
f 76/3/3 73/3/3 68/3/3
f 77/3/3 73/3/3 76/3/3
f 78/3/3 66/3/3 74/3/3
f 79/3/3 77/3/3 76/3/3
f 79/3/3 78/3/3 77/3/3
f 79/3/3 75/3/3 65/3/3
f 79/3/3 76/3/3 75/3/3
f 80/3/3 66/3/3 78/3/3
f 80/3/3 78/3/3 79/3/3
f 83/2/3 82/2/3 81/2/3
f 84/2/3 82/2/3 83/2/3
f 85/2/4 86/2/4 87/2/4
f 87/2/4 86/2/4 88/2/4
f 89/3/4 90/3/4 91/3/4
f 91/3/4 90/3/4 92/3/4
f 89/3/4 91/3/4 93/3/4
f 92/3/4 90/3/4 94/3/4
f 89/3/4 93/3/4 95/3/4
f 93/3/4 94/3/4 95/3/4
f 94/3/4 90/3/4 96/3/4
f 95/3/4 94/3/4 96/3/4
f 97/2/4 98/2/4 99/2/4
f 99/2/4 98/2/4 100/2/4
f 103/3/5 102/3/5 101/3/5
f 104/3/5 102/3/5 103/3/5
f 107/1/5 106/1/5 105/1/5
f 108/1/5 106/1/5 107/1/5
f 111/2/5 110/2/5 109/2/5
f 112/2/5 110/2/5 111/2/5
f 115/1/5 114/1/5 113/1/5
f 116/1/5 114/1/5 115/1/5
f 117/3/5 116/3/5 115/3/5
f 118/3/5 116/3/5 117/3/5
f 121/2/5 120/2/5 119/2/5
f 122/2/5 120/2/5 121/2/5
f 123/2/5 121/2/5 119/2/5
f 124/2/5 121/2/5 123/2/5
f 125/2/5 120/2/5 122/2/5
f 126/2/5 120/2/5 125/2/5
f 127/1/6 128/1/6 129/1/6
f 129/1/6 128/1/6 130/1/6
f 129/3/6 130/3/6 131/3/6
f 131/3/6 130/3/6 132/3/6
f 133/2/6 134/2/6 135/2/6
f 135/2/6 134/2/6 136/2/6
f 137/1/6 138/1/6 139/1/6
f 139/1/6 138/1/6 140/1/6
f 141/2/6 142/2/6 143/2/6
f 143/2/6 142/2/6 144/2/6
f 141/2/6 143/2/6 145/2/6
f 145/2/6 143/2/6 146/2/6
f 144/2/6 142/2/6 147/2/6
f 147/2/6 142/2/6 148/2/6
f 149/3/6 150/3/6 151/3/6
f 151/3/6 150/3/6 152/3/6
