# MagicaVoxel @ Ephtracy

# group
g Mirro__bath

# material
mtllib Mirro__bath.mtl
usemtl palette

# normals
vn -1 0 0
vn 1 0 0
vn 0 0 1
vn 0 0 -1
vn 0 -1 0
vn 0 1 0

# texcoords
vt 0.697266 0.5
vt 0.876953 0.5

# verts
v -45 3 10
v -45 3 -10
v -45 57 10
v -45 57 -10
v -44 2 10
v -44 2 -10
v -44 3 10
v -44 3 -10
v -44 57 10
v -44 57 -10
v -44 58 10
v -44 58 -10
v -43 1 10
v -43 1 -10
v -43 2 10
v -43 2 -10
v -43 58 10
v -43 58 -10
v -43 59 10
v -43 59 -10
v -42 0 10
v -42 0 -10
v -42 1 10
v -42 1 -10
v -42 59 10
v -42 59 -10
v -42 60 10
v -42 60 -10
v 43 3 10
v 43 3 8
v 43 3 -8
v 43 3 -9
v 43 19 9
v 43 19 -8
v 43 19 -9
v 43 21 9
v 43 21 -8
v 43 21 -9
v 43 39 9
v 43 39 -8
v 43 39 -9
v 43 41 9
v 43 41 -8
v 43 41 -9
v 43 58 10
v 43 58 -8
v 43 58 -9
v -43 3 10
v -43 3 8
v -43 3 -9
v -43 19 9
v -43 19 -9
v -43 21 9
v -43 21 -9
v -43 39 9
v -43 39 -9
v -43 41 9
v -43 41 -9
v -43 58 10
v -43 58 -9
v 42 0 10
v 42 0 -10
v 42 1 10
v 42 1 -10
v 42 59 10
v 42 59 -10
v 42 60 10
v 42 60 -10
v 43 1 10
v 43 1 -10
v 43 2 10
v 43 2 -10
v 43 58 10
v 43 58 -8
v 43 58 -10
v 43 59 10
v 43 59 -10
v 44 2 10
v 44 2 -10
v 44 3 10
v 44 3 -10
v 44 57 10
v 44 57 -8
v 44 57 -10
v 44 58 10
v 44 58 -8
v 44 58 -10
v 45 3 10
v 45 3 -10
v 45 57 10
v 45 57 -10
v -45 3 10
v -45 57 10
v -44 2 10
v -44 3 10
v -44 57 10
v -44 58 10
v -43 1 10
v -43 2 10
v -43 3 10
v -43 58 10
v -43 59 10
v -42 0 10
v -42 1 10
v -42 59 10
v -42 60 10
v 42 0 10
v 42 1 10
v 42 59 10
v 42 60 10
v 43 1 10
v 43 2 10
v 43 3 10
v 43 58 10
v 43 59 10
v 44 2 10
v 44 3 10
v 44 57 10
v 44 58 10
v 45 3 10
v 45 57 10
v -43 19 9
v -43 21 9
v -43 39 9
v -43 41 9
v 43 19 9
v 43 21 9
v 43 39 9
v 43 41 9
v -43 3 -9
v -43 19 -9
v -43 21 -9
v -43 39 -9
v -43 41 -9
v -43 58 -9
v 43 3 -9
v 43 19 -9
v 43 21 -9
v 43 39 -9
v 43 41 -9
v 43 58 -9
v -45 3 -10
v -45 57 -10
v -44 2 -10
v -44 3 -10
v -44 57 -10
v -44 58 -10
v -43 1 -10
v -43 2 -10
v -43 3 -10
v -43 58 -10
v -43 59 -10
v -42 0 -10
v -42 1 -10
v -42 59 -10
v -42 60 -10
v 42 0 -10
v 42 1 -10
v 42 59 -10
v 42 60 -10
v 43 1 -10
v 43 2 -10
v 43 58 -10
v 43 59 -10
v 44 2 -10
v 44 3 -10
v 44 57 -10
v 44 58 -10
v 45 3 -10
v 45 57 -10
v -42 0 10
v 42 0 10
v -42 0 -10
v 42 0 -10
v -43 1 10
v -42 1 10
v 42 1 10
v 43 1 10
v -43 1 -10
v -42 1 -10
v 42 1 -10
v 43 1 -10
v -44 2 10
v -43 2 10
v 43 2 10
v 44 2 10
v -44 2 -10
v -43 2 -10
v 43 2 -10
v 44 2 -10
v -45 3 10
v -44 3 10
v 44 3 10
v 45 3 10
v -45 3 -10
v -44 3 -10
v 44 3 -10
v 45 3 -10
v -43 19 9
v 43 19 9
v 43 19 -8
v -43 19 -9
v 43 19 -9
v -43 39 9
v 43 39 9
v 43 39 -8
v -43 39 -9
v 43 39 -9
v -43 58 10
v 43 58 10
v 43 58 -8
v -43 58 -9
v 43 58 -9
v -43 3 10
v 43 3 10
v -43 3 8
v 43 3 8
v 43 3 -8
v -43 3 -9
v 43 3 -9
v -43 21 9
v 43 21 9
v 43 21 -8
v -43 21 -9
v 43 21 -9
v -43 41 9
v 43 41 9
v 43 41 -8
v -43 41 -9
v 43 41 -9
v -45 57 10
v -44 57 10
v 44 57 10
v 45 57 10
v 44 57 -8
v -45 57 -10
v -44 57 -10
v 44 57 -10
v 45 57 -10
v -44 58 10
v -43 58 10
v 43 58 10
v 44 58 10
v 43 58 -8
v 44 58 -8
v -44 58 -10
v -43 58 -10
v 43 58 -10
v 44 58 -10
v -43 59 10
v -42 59 10
v 42 59 10
v 43 59 10
v -43 59 -10
v -42 59 -10
v 42 59 -10
v 43 59 -10
v -42 60 10
v 42 60 10
v -42 60 -10
v 42 60 -10

# faces
f 3/1/1 2/1/1 1/1/1
f 4/1/1 2/1/1 3/1/1
f 7/1/1 6/1/1 5/1/1
f 8/1/1 6/1/1 7/1/1
f 11/1/1 10/1/1 9/1/1
f 12/1/1 10/1/1 11/1/1
f 15/1/1 14/1/1 13/1/1
f 16/1/1 14/1/1 15/1/1
f 19/1/1 18/1/1 17/1/1
f 20/1/1 18/1/1 19/1/1
f 23/1/1 22/1/1 21/1/1
f 24/1/1 22/1/1 23/1/1
f 27/1/1 26/1/1 25/1/1
f 28/1/1 26/1/1 27/1/1
f 33/1/1 30/1/1 29/1/1
f 33/1/1 31/1/1 30/1/1
f 34/2/1 32/2/1 31/2/1
f 34/1/1 31/1/1 33/1/1
f 35/2/1 32/2/1 34/2/1
f 36/1/1 33/1/1 29/1/1
f 39/1/1 36/1/1 29/1/1
f 39/1/1 37/1/1 36/1/1
f 40/2/1 38/2/1 37/2/1
f 40/1/1 37/1/1 39/1/1
f 41/2/1 38/2/1 40/2/1
f 42/1/1 39/1/1 29/1/1
f 45/1/1 42/1/1 29/1/1
f 45/1/1 43/1/1 42/1/1
f 46/2/1 44/2/1 43/2/1
f 46/1/1 43/1/1 45/1/1
f 47/2/1 44/2/1 46/2/1
f 48/1/2 49/1/2 51/1/2
f 49/1/2 50/1/2 51/1/2
f 51/1/2 50/1/2 52/1/2
f 48/1/2 51/1/2 53/1/2
f 48/1/2 53/1/2 55/1/2
f 53/1/2 54/1/2 55/1/2
f 55/1/2 54/1/2 56/1/2
f 48/1/2 55/1/2 57/1/2
f 48/1/2 57/1/2 59/1/2
f 57/1/2 58/1/2 59/1/2
f 59/1/2 58/1/2 60/1/2
f 61/1/2 62/1/2 63/1/2
f 63/1/2 62/1/2 64/1/2
f 65/1/2 66/1/2 67/1/2
f 67/1/2 66/1/2 68/1/2
f 69/1/2 70/1/2 71/1/2
f 71/1/2 70/1/2 72/1/2
f 73/1/2 74/1/2 76/1/2
f 74/1/2 75/1/2 76/1/2
f 76/1/2 75/1/2 77/1/2
f 78/1/2 79/1/2 80/1/2
f 80/1/2 79/1/2 81/1/2
f 82/1/2 83/1/2 85/1/2
f 83/2/2 84/2/2 86/2/2
f 85/1/2 83/1/2 86/1/2
f 86/2/2 84/2/2 87/2/2
f 88/1/2 89/1/2 90/1/2
f 90/1/2 89/1/2 91/1/2
f 95/1/3 93/1/3 92/1/3
f 96/1/3 93/1/3 95/1/3
f 99/1/3 95/1/3 94/1/3
f 99/1/3 97/1/3 96/1/3
f 99/1/3 96/1/3 95/1/3
f 100/1/3 97/1/3 99/1/3
f 101/1/3 97/1/3 100/1/3
f 104/1/3 99/1/3 98/1/3
f 104/1/3 100/1/3 99/1/3
f 105/1/3 102/1/3 101/1/3
f 107/1/3 104/1/3 103/1/3
f 108/1/3 100/1/3 104/1/3
f 108/1/3 104/1/3 107/1/3
f 109/1/3 106/1/3 105/1/3
f 109/1/3 105/1/3 101/1/3
f 110/1/3 106/1/3 109/1/3
f 111/1/3 100/1/3 108/1/3
f 112/1/3 100/1/3 111/1/3
f 113/1/3 100/1/3 112/1/3
f 114/1/3 109/1/3 101/1/3
f 115/1/3 109/1/3 114/1/3
f 116/1/3 113/1/3 112/1/3
f 116/1/3 114/1/3 113/1/3
f 117/1/3 114/1/3 116/1/3
f 118/1/3 114/1/3 117/1/3
f 119/1/3 114/1/3 118/1/3
f 120/1/3 118/1/3 117/1/3
f 121/1/3 118/1/3 120/1/3
f 126/2/3 123/2/3 122/2/3
f 127/2/3 123/2/3 126/2/3
f 128/2/3 125/2/3 124/2/3
f 129/2/3 125/2/3 128/2/3
f 136/2/3 131/2/3 130/2/3
f 137/2/3 131/2/3 136/2/3
f 138/2/3 133/2/3 132/2/3
f 139/2/3 133/2/3 138/2/3
f 140/2/3 135/2/3 134/2/3
f 141/2/3 135/2/3 140/2/3
f 142/1/4 143/1/4 145/1/4
f 145/1/4 143/1/4 146/1/4
f 144/1/4 145/1/4 149/1/4
f 146/1/4 147/1/4 149/1/4
f 145/1/4 146/1/4 149/1/4
f 149/1/4 147/1/4 150/1/4
f 150/1/4 147/1/4 151/1/4
f 148/1/4 149/1/4 154/1/4
f 149/1/4 150/1/4 154/1/4
f 151/1/4 152/1/4 155/1/4
f 153/1/4 154/1/4 157/1/4
f 154/1/4 150/1/4 158/1/4
f 157/1/4 154/1/4 158/1/4
f 155/1/4 156/1/4 159/1/4
f 151/1/4 155/1/4 159/1/4
f 159/1/4 156/1/4 160/1/4
f 158/1/4 150/1/4 161/1/4
f 161/1/4 150/1/4 162/1/4
f 150/2/4 151/2/4 163/2/4
f 151/1/4 159/1/4 163/1/4
f 163/1/4 159/1/4 164/1/4
f 162/1/4 150/1/4 165/1/4
f 150/2/4 163/2/4 166/2/4
f 165/1/4 150/1/4 166/1/4
f 166/2/4 163/2/4 167/2/4
f 167/2/4 163/2/4 168/2/4
f 166/1/4 167/1/4 169/1/4
f 169/1/4 167/1/4 170/1/4
f 173/1/5 172/1/5 171/1/5
f 174/1/5 172/1/5 173/1/5
f 179/1/5 176/1/5 175/1/5
f 180/1/5 176/1/5 179/1/5
f 181/1/5 178/1/5 177/1/5
f 182/1/5 178/1/5 181/1/5
f 187/1/5 184/1/5 183/1/5
f 188/1/5 184/1/5 187/1/5
f 189/1/5 186/1/5 185/1/5
f 190/1/5 186/1/5 189/1/5
f 195/1/5 192/1/5 191/1/5
f 196/1/5 192/1/5 195/1/5
f 197/1/5 194/1/5 193/1/5
f 198/1/5 194/1/5 197/1/5
f 201/2/5 200/2/5 199/2/5
f 202/2/5 201/2/5 199/2/5
f 203/2/5 201/2/5 202/2/5
f 206/2/5 205/2/5 204/2/5
f 207/2/5 206/2/5 204/2/5
f 208/2/5 206/2/5 207/2/5
f 211/1/5 210/1/5 209/1/5
f 212/1/5 211/1/5 209/1/5
f 213/1/5 211/1/5 212/1/5
f 214/1/6 215/1/6 216/1/6
f 216/1/6 215/1/6 217/1/6
f 216/2/6 217/2/6 218/2/6
f 216/2/6 218/2/6 219/2/6
f 219/2/6 218/2/6 220/2/6
f 221/2/6 222/2/6 223/2/6
f 221/2/6 223/2/6 224/2/6
f 224/2/6 223/2/6 225/2/6
f 226/2/6 227/2/6 228/2/6
f 226/2/6 228/2/6 229/2/6
f 229/2/6 228/2/6 230/2/6
f 233/1/6 234/1/6 235/1/6
f 231/1/6 232/1/6 236/1/6
f 236/1/6 232/1/6 237/1/6
f 235/1/6 234/1/6 238/1/6
f 238/1/6 234/1/6 239/1/6
f 242/1/6 243/1/6 244/1/6
f 244/1/6 243/1/6 245/1/6
f 240/1/6 241/1/6 246/1/6
f 246/1/6 241/1/6 247/1/6
f 244/2/6 245/2/6 248/2/6
f 248/2/6 245/2/6 249/2/6
f 250/1/6 251/1/6 254/1/6
f 254/1/6 251/1/6 255/1/6
f 252/1/6 253/1/6 256/1/6
f 256/1/6 253/1/6 257/1/6
f 258/1/6 259/1/6 260/1/6
f 260/1/6 259/1/6 261/1/6
