# MagicaVoxel @ Ephtracy

# group
g PC

# material
mtllib PC.mtl
usemtl palette

# normals
vn -1 0 0
vn 1 0 0
vn 0 0 1
vn 0 0 -1
vn 0 -1 0
vn 0 1 0

# texcoords
vt 0.693359 0.5
vt 0.849609 0.5

# verts
v -8 0 20
v -8 0 -20
v -8 3 16
v -8 3 -16
v -8 30 16
v -8 30 -16
v -8 34 20
v -8 34 -20
v -7 3 16
v -7 3 -16
v -7 30 16
v -7 30 -16
v 5 29 20
v 5 29 19
v 5 30 20
v 5 30 19
v -5 29 20
v -5 29 19
v -5 30 20
v -5 30 19
v 7 3 16
v 7 3 -16
v 7 30 16
v 7 30 -16
v 8 0 20
v 8 0 -20
v 8 3 16
v 8 3 -16
v 8 30 16
v 8 30 -16
v 8 34 20
v 8 34 -20
v -8 0 20
v -8 34 20
v -5 29 20
v -5 30 20
v -2 9 20
v -2 12 20
v 0 13 20
v 0 14 20
v 1 9 20
v 1 12 20
v 1 13 20
v 1 14 20
v 4 27 20
v 4 28 20
v 5 27 20
v 5 28 20
v 5 29 20
v 5 30 20
v 8 0 20
v 8 34 20
v -5 29 19
v -5 30 19
v 5 29 19
v 5 30 19
v -8 3 -16
v -8 30 -16
v -7 3 -16
v -7 30 -16
v 7 3 -16
v 7 30 -16
v 8 3 -16
v 8 30 -16
v -8 3 16
v -8 30 16
v -7 3 16
v -7 30 16
v 7 3 16
v 7 30 16
v 8 3 16
v 8 30 16
v -8 0 -20
v -8 34 -20
v 8 0 -20
v 8 34 -20
v -8 0 20
v 8 0 20
v -8 0 -20
v 8 0 -20
v -5 30 20
v 5 30 20
v -5 30 19
v 5 30 19
v -8 30 16
v -7 30 16
v 7 30 16
v 8 30 16
v -8 30 -16
v -7 30 -16
v 7 30 -16
v 8 30 -16
v -8 3 16
v -7 3 16
v 7 3 16
v 8 3 16
v -8 3 -16
v -7 3 -16
v 7 3 -16
v 8 3 -16
v -5 29 20
v 5 29 20
v -5 29 19
v 5 29 19
v -8 34 20
v 8 34 20
v -8 34 -20
v 8 34 -20

# faces
f 3/2/1 2/2/1 1/2/1
f 4/2/1 2/2/1 3/2/1
f 5/2/1 3/2/1 1/2/1
f 6/2/1 2/2/1 4/2/1
f 7/2/1 5/2/1 1/2/1
f 7/2/1 6/2/1 5/2/1
f 8/2/1 2/2/1 6/2/1
f 8/2/1 6/2/1 7/2/1
f 11/1/1 10/1/1 9/1/1
f 12/1/1 10/1/1 11/1/1
f 15/2/1 14/2/1 13/2/1
f 16/2/1 14/2/1 15/2/1
f 17/2/2 18/2/2 19/2/2
f 19/2/2 18/2/2 20/2/2
f 21/1/2 22/1/2 23/1/2
f 23/1/2 22/1/2 24/1/2
f 25/2/2 26/2/2 27/2/2
f 27/2/2 26/2/2 28/2/2
f 25/2/2 27/2/2 29/2/2
f 28/2/2 26/2/2 30/2/2
f 25/2/2 29/2/2 31/2/2
f 29/2/2 30/2/2 31/2/2
f 30/2/2 26/2/2 32/2/2
f 31/2/2 30/2/2 32/2/2
f 35/2/3 34/2/3 33/2/3
f 36/2/3 34/2/3 35/2/3
f 37/2/3 35/2/3 33/2/3
f 38/2/3 35/2/3 37/2/3
f 39/2/3 35/2/3 38/2/3
f 40/2/3 35/2/3 39/2/3
f 41/2/3 37/2/3 33/2/3
f 41/1/3 38/1/3 37/1/3
f 42/2/3 39/2/3 38/2/3
f 42/1/3 38/1/3 41/1/3
f 43/1/3 40/1/3 39/1/3
f 43/2/3 39/2/3 42/2/3
f 44/2/3 35/2/3 40/2/3
f 44/1/3 40/1/3 43/1/3
f 45/2/3 43/2/3 42/2/3
f 45/2/3 35/2/3 44/2/3
f 45/2/3 44/2/3 43/2/3
f 45/2/3 42/2/3 41/2/3
f 46/2/3 35/2/3 45/2/3
f 47/2/3 45/2/3 41/2/3
f 47/1/3 46/1/3 45/1/3
f 48/2/3 35/2/3 46/2/3
f 48/1/3 46/1/3 47/1/3
f 49/2/3 35/2/3 48/2/3
f 50/2/3 34/2/3 36/2/3
f 51/2/3 49/2/3 48/2/3
f 51/2/3 50/2/3 49/2/3
f 51/2/3 41/2/3 33/2/3
f 51/2/3 47/2/3 41/2/3
f 51/2/3 48/2/3 47/2/3
f 52/2/3 34/2/3 50/2/3
f 52/2/3 50/2/3 51/2/3
f 55/2/3 54/2/3 53/2/3
f 56/2/3 54/2/3 55/2/3
f 59/2/3 58/2/3 57/2/3
f 60/2/3 58/2/3 59/2/3
f 63/2/3 62/2/3 61/2/3
f 64/2/3 62/2/3 63/2/3
f 65/2/4 66/2/4 67/2/4
f 67/2/4 66/2/4 68/2/4
f 69/2/4 70/2/4 71/2/4
f 71/2/4 70/2/4 72/2/4
f 73/2/4 74/2/4 75/2/4
f 75/2/4 74/2/4 76/2/4
f 79/2/5 78/2/5 77/2/5
f 80/2/5 78/2/5 79/2/5
f 83/2/5 82/2/5 81/2/5
f 84/2/5 82/2/5 83/2/5
f 89/2/5 86/2/5 85/2/5
f 90/2/5 86/2/5 89/2/5
f 91/2/5 88/2/5 87/2/5
f 92/2/5 88/2/5 91/2/5
f 93/2/6 94/2/6 97/2/6
f 97/2/6 94/2/6 98/2/6
f 95/2/6 96/2/6 99/2/6
f 99/2/6 96/2/6 100/2/6
f 101/2/6 102/2/6 103/2/6
f 103/2/6 102/2/6 104/2/6
f 105/2/6 106/2/6 107/2/6
f 107/2/6 106/2/6 108/2/6
