# Blender v2.78 (sub 0) OBJ File: ''
# www.blender.org
mtllib SehlV3.mtl
o SehlV3
v -50.000000 13.999998 17.092199
v -50.000000 0.000001 0.092199
v -50.000000 -0.000001 17.092197
v -50.000000 14.000001 0.092202
v 49.000000 13.999998 17.092199
v 49.000000 1.000001 0.092199
v 49.000000 0.999999 17.092197
v 49.000000 14.000001 0.092202
v -49.000000 0.999999 17.092197
v -49.000000 1.000001 0.092199
v -49.000000 13.999998 17.092199
v -49.000000 14.000001 0.092202
v 50.000000 -0.000001 17.092197
v 50.000000 0.000001 0.092199
v 50.000000 13.999998 17.092199
v 50.000000 14.000001 0.092202
v -49.000000 0.999999 17.092197
v -50.000000 13.999998 17.092199
v -50.000000 -0.000001 17.092197
v -49.000000 13.999998 17.092199
v 49.000000 0.999999 17.092197
v 50.000000 -0.000001 17.092197
v 49.000000 13.999998 17.092199
v 50.000000 13.999998 17.092199
v -50.000000 0.000001 0.092199
v -50.000000 14.000001 0.092202
v -49.000000 1.000001 0.092199
v -49.000000 14.000001 0.092202
v 49.000000 1.000001 0.092199
v 50.000000 0.000001 0.092199
v 49.000000 14.000001 0.092202
v 50.000000 14.000001 0.092202
v -50.000000 0.000001 0.092199
v 50.000000 -0.000001 17.092197
v -50.000000 -0.000001 17.092197
v 50.000000 0.000001 0.092199
v -49.000000 0.999999 17.092197
v 49.000000 0.999999 17.092197
v -49.000000 1.000001 0.092199
v 49.000000 1.000001 0.092199
v -50.000000 13.999998 17.092199
v -49.000000 13.999998 17.092199
v -50.000000 14.000001 0.092202
v -49.000000 14.000001 0.092202
v 49.000000 13.999998 17.092199
v 50.000000 13.999998 17.092199
v 49.000000 14.000001 0.092202
v 50.000000 14.000001 0.092202
vt 0.8457 0.5000
vt 0.8457 0.5000
vt 0.8457 0.5000
vt 0.8457 0.5000
vt 0.8457 0.5000
vt 0.8457 0.5000
vt 0.8457 0.5000
vt 0.8457 0.5000
vt 0.8457 0.5000
vt 0.8457 0.5000
vt 0.8457 0.5000
vt 0.8457 0.5000
vt 0.8457 0.5000
vt 0.8457 0.5000
vt 0.8457 0.5000
vt 0.8457 0.5000
vt 0.8457 0.5000
vt 0.8457 0.5000
vt 0.8457 0.5000
vt 0.8457 0.5000
vt 0.8457 0.5000
vt 0.8457 0.5000
vt 0.8457 0.5000
vt 0.8457 0.5000
vt 0.8457 0.5000
vt 0.8457 0.5000
vt 0.8457 0.5000
vt 0.8457 0.5000
vt 0.8457 0.5000
vt 0.8457 0.5000
vt 0.8457 0.5000
vt 0.8457 0.5000
vt 0.8457 0.5000
vt 0.8457 0.5000
vt 0.8457 0.5000
vt 0.8457 0.5000
vt 0.8457 0.5000
vt 0.8457 0.5000
vt 0.8457 0.5000
vt 0.8457 0.5000
vt 0.8457 0.5000
vt 0.8457 0.5000
vt 0.8457 0.5000
vt 0.8457 0.5000
vt 0.8457 0.5000
vt 0.8457 0.5000
vt 0.8457 0.5000
vt 0.8457 0.5000
vn -1.0000 0.0000 0.0000
vn 1.0000 0.0000 0.0000
vn 0.0000 -0.0000 1.0000
vn 0.0000 0.0000 -1.0000
vn 0.0000 -1.0000 -0.0000
vn 0.0000 1.0000 0.0000
usemtl palette.018
s 1
f 1/1/1 2/2/1 3/3/1
f 4/4/1 2/2/1 1/1/1
f 5/5/1 6/6/1 7/7/1
f 8/8/1 6/6/1 5/5/1
f 9/9/2 10/10/2 11/11/2
f 11/11/2 10/10/2 12/12/2
f 13/13/2 14/14/2 15/15/2
f 15/15/2 14/14/2 16/16/2
f 17/17/3 18/18/3 19/19/3
f 20/20/3 18/18/3 17/17/3
f 21/21/3 17/17/3 19/19/3
f 22/22/3 21/21/3 19/19/3
f 22/22/3 23/23/3 21/21/3
f 24/24/3 23/23/3 22/22/3
f 25/25/4 26/26/4 27/27/4
f 27/27/4 26/26/4 28/28/4
f 25/25/4 27/27/4 29/29/4
f 25/25/4 29/29/4 30/30/4
f 29/29/4 31/31/4 30/30/4
f 30/30/4 31/31/4 32/32/4
f 33/33/5 34/34/5 35/35/5
f 36/36/5 34/34/5 33/33/5
f 37/37/6 38/38/6 39/39/6
f 39/39/6 38/38/6 40/40/6
f 41/41/6 42/42/6 43/43/6
f 43/43/6 42/42/6 44/44/6
f 45/45/6 46/46/6 47/47/6
f 47/47/6 46/46/6 48/48/6
