# MagicaVoxel @ Ephtracy

# group
g socket

# material
mtllib socket.mtl
usemtl palette

# normals
vn -1 0 0
vn 1 0 0
vn 0 0 1
vn 0 0 -1
vn 0 -1 0
vn 0 1 0

# texcoords
vt 0.876953 0.5
vt 0.880859 0.5

# verts
v -20 0 1
v -20 0 -1
v -20 20 1
v -20 20 -1
v -17 6 1
v -17 6 -0
v -17 14 1
v -17 14 -0
v -16 5 1
v -16 5 -0
v -16 6 1
v -16 6 -0
v -16 14 1
v -16 14 -0
v -16 15 1
v -16 15 -0
v -12 9 -0
v -12 9 -1
v -12 11 -0
v -12 11 -1
v -6 9 -0
v -6 9 -1
v -6 11 -0
v -6 11 -1
v -5 7 1
v -5 7 -0
v -5 13 1
v -5 13 -0
v 3 6 1
v 3 6 -0
v 3 14 1
v 3 14 -0
v 4 5 1
v 4 5 -0
v 4 6 1
v 4 6 -0
v 4 14 1
v 4 14 -0
v 4 15 1
v 4 15 -0
v 8 9 -0
v 8 9 -1
v 8 11 -0
v 8 11 -1
v 14 9 -0
v 14 9 -1
v 14 11 -0
v 14 11 -1
v 15 7 1
v 15 7 -0
v 15 13 1
v 15 13 -0
v 18 2 1
v 18 2 -0
v 18 18 1
v 18 18 -0
v -18 2 1
v -18 2 -0
v -18 18 1
v -18 18 -0
v -15 7 1
v -15 7 -0
v -15 13 1
v -15 13 -0
v -14 9 -0
v -14 9 -1
v -14 11 -0
v -14 11 -1
v -8 9 -0
v -8 9 -1
v -8 11 -0
v -8 11 -1
v -4 5 1
v -4 5 -0
v -4 6 1
v -4 6 -0
v -4 14 1
v -4 14 -0
v -4 15 1
v -4 15 -0
v -3 6 1
v -3 6 -0
v -3 14 1
v -3 14 -0
v 5 7 1
v 5 7 -0
v 5 13 1
v 5 13 -0
v 6 9 -0
v 6 9 -1
v 6 11 -0
v 6 11 -1
v 12 9 -0
v 12 9 -1
v 12 11 -0
v 12 11 -1
v 16 5 1
v 16 5 -0
v 16 6 1
v 16 6 -0
v 16 14 1
v 16 14 -0
v 16 15 1
v 16 15 -0
v 17 6 1
v 17 6 -0
v 17 14 1
v 17 14 -0
v 20 0 1
v 20 0 -1
v 20 20 1
v 20 20 -1
v -20 0 1
v -20 20 1
v -18 2 1
v -18 18 1
v -17 6 1
v -17 14 1
v -16 5 1
v -16 6 1
v -16 14 1
v -16 15 1
v -15 7 1
v -15 13 1
v -5 7 1
v -5 13 1
v -4 5 1
v -4 6 1
v -4 14 1
v -4 15 1
v -3 6 1
v -3 14 1
v 3 6 1
v 3 14 1
v 4 5 1
v 4 6 1
v 4 14 1
v 4 15 1
v 5 7 1
v 5 13 1
v 15 7 1
v 15 13 1
v 16 5 1
v 16 6 1
v 16 14 1
v 16 15 1
v 17 6 1
v 17 14 1
v 18 2 1
v 18 18 1
v 20 0 1
v 20 20 1
v -18 2 -0
v -18 18 -0
v -17 5 -0
v -17 6 -0
v -17 14 -0
v -17 15 -0
v -16 5 -0
v -16 6 -0
v -16 14 -0
v -16 15 -0
v -15 7 -0
v -15 13 -0
v -14 9 -0
v -14 11 -0
v -12 9 -0
v -12 11 -0
v -8 9 -0
v -8 11 -0
v -6 9 -0
v -6 11 -0
v -5 7 -0
v -5 13 -0
v -4 5 -0
v -4 6 -0
v -4 14 -0
v -4 15 -0
v -3 5 -0
v -3 6 -0
v -3 14 -0
v -3 15 -0
v 3 5 -0
v 3 6 -0
v 3 14 -0
v 3 15 -0
v 4 5 -0
v 4 6 -0
v 4 14 -0
v 4 15 -0
v 5 7 -0
v 5 13 -0
v 6 9 -0
v 6 11 -0
v 8 9 -0
v 8 11 -0
v 12 9 -0
v 12 11 -0
v 14 9 -0
v 14 11 -0
v 15 7 -0
v 15 13 -0
v 16 5 -0
v 16 6 -0
v 16 14 -0
v 16 15 -0
v 17 5 -0
v 17 6 -0
v 17 14 -0
v 17 15 -0
v 18 2 -0
v 18 18 -0
v -20 0 -1
v -20 20 -1
v -18 2 -1
v -18 18 -1
v -17 5 -1
v -17 15 -1
v -14 9 -1
v -14 11 -1
v -12 9 -1
v -12 11 -1
v -8 9 -1
v -8 11 -1
v -6 9 -1
v -6 11 -1
v -3 5 -1
v -3 15 -1
v 3 5 -1
v 3 15 -1
v 6 9 -1
v 6 11 -1
v 8 9 -1
v 8 11 -1
v 12 9 -1
v 12 11 -1
v 14 9 -1
v 14 11 -1
v 17 5 -1
v 17 15 -1
v 18 2 -1
v 18 18 -1
v 20 0 -1
v 20 20 -1
v -20 0 1
v 20 0 1
v -20 0 -1
v 20 0 -1
v -16 5 1
v -4 5 1
v 4 5 1
v 16 5 1
v -16 5 -0
v -4 5 -0
v 4 5 -0
v 16 5 -0
v -17 6 1
v -16 6 1
v -4 6 1
v -3 6 1
v 3 6 1
v 4 6 1
v 16 6 1
v 17 6 1
v -17 6 -0
v -16 6 -0
v -4 6 -0
v -3 6 -0
v 3 6 -0
v 4 6 -0
v 16 6 -0
v 17 6 -0
v -14 11 -0
v -12 11 -0
v -8 11 -0
v -6 11 -0
v 6 11 -0
v 8 11 -0
v 12 11 -0
v 14 11 -0
v -14 11 -1
v -12 11 -1
v -8 11 -1
v -6 11 -1
v 6 11 -1
v 8 11 -1
v 12 11 -1
v 14 11 -1
v -15 13 1
v -5 13 1
v 5 13 1
v 15 13 1
v -15 13 -0
v -5 13 -0
v 5 13 -0
v 15 13 -0
v -18 18 1
v 18 18 1
v -18 18 -0
v 18 18 -0
v -18 2 1
v 18 2 1
v -18 2 -0
v 18 2 -0
v -15 7 1
v -5 7 1
v 5 7 1
v 15 7 1
v -15 7 -0
v -5 7 -0
v 5 7 -0
v 15 7 -0
v -14 9 -0
v -12 9 -0
v -8 9 -0
v -6 9 -0
v 6 9 -0
v 8 9 -0
v 12 9 -0
v 14 9 -0
v -14 9 -1
v -12 9 -1
v -8 9 -1
v -6 9 -1
v 6 9 -1
v 8 9 -1
v 12 9 -1
v 14 9 -1
v -17 14 1
v -16 14 1
v -4 14 1
v -3 14 1
v 3 14 1
v 4 14 1
v 16 14 1
v 17 14 1
v -17 14 -0
v -16 14 -0
v -4 14 -0
v -3 14 -0
v 3 14 -0
v 4 14 -0
v 16 14 -0
v 17 14 -0
v -16 15 1
v -4 15 1
v 4 15 1
v 16 15 1
v -16 15 -0
v -4 15 -0
v 4 15 -0
v 16 15 -0
v -20 20 1
v 20 20 1
v -20 20 -1
v 20 20 -1

# faces
f 3/1/1 2/1/1 1/1/1
f 4/1/1 2/1/1 3/1/1
f 7/1/1 6/1/1 5/1/1
f 8/1/1 6/1/1 7/1/1
f 11/1/1 10/1/1 9/1/1
f 12/1/1 10/1/1 11/1/1
f 15/1/1 14/1/1 13/1/1
f 16/1/1 14/1/1 15/1/1
f 19/1/1 18/1/1 17/1/1
f 20/1/1 18/1/1 19/1/1
f 23/1/1 22/1/1 21/1/1
f 24/1/1 22/1/1 23/1/1
f 27/1/1 26/1/1 25/1/1
f 28/1/1 26/1/1 27/1/1
f 31/1/1 30/1/1 29/1/1
f 32/1/1 30/1/1 31/1/1
f 35/1/1 34/1/1 33/1/1
f 36/1/1 34/1/1 35/1/1
f 39/1/1 38/1/1 37/1/1
f 40/1/1 38/1/1 39/1/1
f 43/1/1 42/1/1 41/1/1
f 44/1/1 42/1/1 43/1/1
f 47/1/1 46/1/1 45/1/1
f 48/1/1 46/1/1 47/1/1
f 51/1/1 50/1/1 49/1/1
f 52/1/1 50/1/1 51/1/1
f 55/1/1 54/1/1 53/1/1
f 56/1/1 54/1/1 55/1/1
f 57/1/2 58/1/2 59/1/2
f 59/1/2 58/1/2 60/1/2
f 61/1/2 62/1/2 63/1/2
f 63/1/2 62/1/2 64/1/2
f 65/1/2 66/1/2 67/1/2
f 67/1/2 66/1/2 68/1/2
f 69/1/2 70/1/2 71/1/2
f 71/1/2 70/1/2 72/1/2
f 73/1/2 74/1/2 75/1/2
f 75/1/2 74/1/2 76/1/2
f 77/1/2 78/1/2 79/1/2
f 79/1/2 78/1/2 80/1/2
f 81/1/2 82/1/2 83/1/2
f 83/1/2 82/1/2 84/1/2
f 85/1/2 86/1/2 87/1/2
f 87/1/2 86/1/2 88/1/2
f 89/1/2 90/1/2 91/1/2
f 91/1/2 90/1/2 92/1/2
f 93/1/2 94/1/2 95/1/2
f 95/1/2 94/1/2 96/1/2
f 97/1/2 98/1/2 99/1/2
f 99/1/2 98/1/2 100/1/2
f 101/1/2 102/1/2 103/1/2
f 103/1/2 102/1/2 104/1/2
f 105/1/2 106/1/2 107/1/2
f 107/1/2 106/1/2 108/1/2
f 109/1/2 110/1/2 111/1/2
f 111/1/2 110/1/2 112/1/2
f 115/1/3 114/1/3 113/1/3
f 116/1/3 114/1/3 115/1/3
f 120/1/3 118/1/3 117/1/3
f 121/1/3 118/1/3 120/1/3
f 123/1/3 120/1/3 119/1/3
f 123/1/3 122/1/3 121/1/3
f 123/1/3 121/1/3 120/1/3
f 124/1/3 122/1/3 123/1/3
f 125/1/3 123/1/3 119/1/3
f 126/1/3 122/1/3 124/1/3
f 127/1/3 125/1/3 119/1/3
f 127/1/3 126/1/3 125/1/3
f 128/1/3 126/1/3 127/1/3
f 129/1/3 122/1/3 126/1/3
f 129/1/3 126/1/3 128/1/3
f 130/1/3 122/1/3 129/1/3
f 131/1/3 129/1/3 128/1/3
f 132/1/3 129/1/3 131/1/3
f 136/1/3 134/1/3 133/1/3
f 137/1/3 134/1/3 136/1/3
f 139/1/3 137/1/3 136/1/3
f 139/1/3 138/1/3 137/1/3
f 139/1/3 136/1/3 135/1/3
f 140/1/3 138/1/3 139/1/3
f 141/1/3 139/1/3 135/1/3
f 142/1/3 138/1/3 140/1/3
f 143/1/3 141/1/3 135/1/3
f 143/1/3 142/1/3 141/1/3
f 144/1/3 142/1/3 143/1/3
f 145/1/3 138/1/3 142/1/3
f 145/1/3 142/1/3 144/1/3
f 146/1/3 138/1/3 145/1/3
f 147/1/3 145/1/3 144/1/3
f 148/1/3 145/1/3 147/1/3
f 149/1/3 115/1/3 113/1/3
f 150/1/3 114/1/3 116/1/3
f 151/1/3 149/1/3 113/1/3
f 151/1/3 150/1/3 149/1/3
f 152/1/3 114/1/3 150/1/3
f 152/1/3 150/1/3 151/1/3
f 155/2/3 154/2/3 153/2/3
f 156/2/3 154/2/3 155/2/3
f 157/2/3 154/2/3 156/2/3
f 158/2/3 154/2/3 157/2/3
f 159/2/3 155/2/3 153/2/3
f 159/1/3 156/1/3 155/1/3
f 160/1/3 156/1/3 159/1/3
f 161/1/3 158/1/3 157/1/3
f 162/2/3 154/2/3 158/2/3
f 162/1/3 158/1/3 161/1/3
f 165/1/3 164/1/3 163/1/3
f 166/1/3 164/1/3 165/1/3
f 167/1/3 165/1/3 163/1/3
f 168/1/3 164/1/3 166/1/3
f 169/1/3 167/1/3 163/1/3
f 169/1/3 168/1/3 167/1/3
f 170/1/3 164/1/3 168/1/3
f 170/1/3 168/1/3 169/1/3
f 171/1/3 169/1/3 163/1/3
f 172/1/3 164/1/3 170/1/3
f 173/1/3 171/1/3 163/1/3
f 173/1/3 172/1/3 171/1/3
f 174/1/3 164/1/3 172/1/3
f 174/1/3 172/1/3 173/1/3
f 175/2/3 159/2/3 153/2/3
f 178/2/3 154/2/3 162/2/3
f 179/2/3 175/2/3 153/2/3
f 179/1/3 176/1/3 175/1/3
f 180/1/3 176/1/3 179/1/3
f 181/1/3 178/1/3 177/1/3
f 182/2/3 154/2/3 178/2/3
f 182/1/3 178/1/3 181/1/3
f 183/2/3 180/2/3 179/2/3
f 183/2/3 181/2/3 180/2/3
f 183/2/3 182/2/3 181/2/3
f 183/2/3 179/2/3 153/2/3
f 184/2/3 182/2/3 183/2/3
f 185/2/3 182/2/3 184/2/3
f 186/2/3 154/2/3 182/2/3
f 186/2/3 182/2/3 185/2/3
f 187/2/3 183/2/3 153/2/3
f 187/1/3 184/1/3 183/1/3
f 188/1/3 184/1/3 187/1/3
f 189/1/3 186/1/3 185/1/3
f 190/2/3 154/2/3 186/2/3
f 190/1/3 186/1/3 189/1/3
f 193/1/3 192/1/3 191/1/3
f 194/1/3 192/1/3 193/1/3
f 195/1/3 193/1/3 191/1/3
f 196/1/3 192/1/3 194/1/3
f 197/1/3 195/1/3 191/1/3
f 197/1/3 196/1/3 195/1/3
f 198/1/3 192/1/3 196/1/3
f 198/1/3 196/1/3 197/1/3
f 199/1/3 197/1/3 191/1/3
f 200/1/3 192/1/3 198/1/3
f 201/1/3 199/1/3 191/1/3
f 201/1/3 200/1/3 199/1/3
f 202/1/3 192/1/3 200/1/3
f 202/1/3 200/1/3 201/1/3
f 203/2/3 187/2/3 153/2/3
f 206/2/3 154/2/3 190/2/3
f 207/2/3 203/2/3 153/2/3
f 207/1/3 204/1/3 203/1/3
f 208/1/3 204/1/3 207/1/3
f 209/1/3 206/1/3 205/1/3
f 210/2/3 154/2/3 206/2/3
f 210/1/3 206/1/3 209/1/3
f 211/2/3 208/2/3 207/2/3
f 211/2/3 209/2/3 208/2/3
f 211/2/3 210/2/3 209/2/3
f 211/2/3 207/2/3 153/2/3
f 212/2/3 154/2/3 210/2/3
f 212/2/3 210/2/3 211/2/3
f 213/1/4 214/1/4 215/1/4
f 215/1/4 214/1/4 216/1/4
f 215/2/4 216/2/4 217/2/4
f 217/2/4 216/2/4 218/2/4
f 217/1/4 218/1/4 219/1/4
f 219/1/4 218/1/4 220/1/4
f 217/1/4 219/1/4 221/1/4
f 220/1/4 218/1/4 222/1/4
f 217/1/4 221/1/4 223/1/4
f 221/1/4 222/1/4 223/1/4
f 222/1/4 218/1/4 224/1/4
f 223/1/4 222/1/4 224/1/4
f 217/1/4 223/1/4 225/1/4
f 224/1/4 218/1/4 226/1/4
f 215/2/4 217/2/4 227/2/4
f 225/1/4 226/1/4 227/1/4
f 217/1/4 225/1/4 227/1/4
f 226/1/4 218/1/4 228/1/4
f 227/1/4 226/1/4 228/1/4
f 218/2/4 216/2/4 228/2/4
f 215/2/4 227/2/4 229/2/4
f 227/2/4 228/2/4 229/2/4
f 228/2/4 216/2/4 230/2/4
f 229/2/4 228/2/4 230/2/4
f 229/1/4 230/1/4 231/1/4
f 231/1/4 230/1/4 232/1/4
f 229/1/4 231/1/4 233/1/4
f 232/1/4 230/1/4 234/1/4
f 229/1/4 233/1/4 235/1/4
f 233/1/4 234/1/4 235/1/4
f 234/1/4 230/1/4 236/1/4
f 235/1/4 234/1/4 236/1/4
f 229/1/4 235/1/4 237/1/4
f 236/1/4 230/1/4 238/1/4
f 215/2/4 229/2/4 239/2/4
f 237/1/4 238/1/4 239/1/4
f 229/1/4 237/1/4 239/1/4
f 238/1/4 230/1/4 240/1/4
f 239/1/4 238/1/4 240/1/4
f 230/2/4 216/2/4 240/2/4
f 213/1/4 215/1/4 241/1/4
f 215/2/4 239/2/4 241/2/4
f 239/2/4 240/2/4 241/2/4
f 240/2/4 216/2/4 242/2/4
f 241/2/4 240/2/4 242/2/4
f 216/1/4 214/1/4 242/1/4
f 213/1/4 241/1/4 243/1/4
f 241/1/4 242/1/4 243/1/4
f 242/1/4 214/1/4 244/1/4
f 243/1/4 242/1/4 244/1/4
f 247/1/5 246/1/5 245/1/5
f 248/1/5 246/1/5 247/1/5
f 253/1/5 250/1/5 249/1/5
f 254/1/5 250/1/5 253/1/5
f 255/1/5 252/1/5 251/1/5
f 256/1/5 252/1/5 255/1/5
f 265/1/5 258/1/5 257/1/5
f 266/1/5 258/1/5 265/1/5
f 267/1/5 260/1/5 259/1/5
f 268/1/5 260/1/5 267/1/5
f 269/1/5 262/1/5 261/1/5
f 270/1/5 262/1/5 269/1/5
f 271/1/5 264/1/5 263/1/5
f 272/1/5 264/1/5 271/1/5
f 281/1/5 274/1/5 273/1/5
f 282/1/5 274/1/5 281/1/5
f 283/1/5 276/1/5 275/1/5
f 284/1/5 276/1/5 283/1/5
f 285/1/5 278/1/5 277/1/5
f 286/1/5 278/1/5 285/1/5
f 287/1/5 280/1/5 279/1/5
f 288/1/5 280/1/5 287/1/5
f 293/1/5 290/1/5 289/1/5
f 294/1/5 290/1/5 293/1/5
f 295/1/5 292/1/5 291/1/5
f 296/1/5 292/1/5 295/1/5
f 299/1/5 298/1/5 297/1/5
f 300/1/5 298/1/5 299/1/5
f 301/1/6 302/1/6 303/1/6
f 303/1/6 302/1/6 304/1/6
f 305/1/6 306/1/6 309/1/6
f 309/1/6 306/1/6 310/1/6
f 307/1/6 308/1/6 311/1/6
f 311/1/6 308/1/6 312/1/6
f 313/1/6 314/1/6 321/1/6
f 321/1/6 314/1/6 322/1/6
f 315/1/6 316/1/6 323/1/6
f 323/1/6 316/1/6 324/1/6
f 317/1/6 318/1/6 325/1/6
f 325/1/6 318/1/6 326/1/6
f 319/1/6 320/1/6 327/1/6
f 327/1/6 320/1/6 328/1/6
f 329/1/6 330/1/6 337/1/6
f 337/1/6 330/1/6 338/1/6
f 331/1/6 332/1/6 339/1/6
f 339/1/6 332/1/6 340/1/6
f 333/1/6 334/1/6 341/1/6
f 341/1/6 334/1/6 342/1/6
f 335/1/6 336/1/6 343/1/6
f 343/1/6 336/1/6 344/1/6
f 345/1/6 346/1/6 349/1/6
f 349/1/6 346/1/6 350/1/6
f 347/1/6 348/1/6 351/1/6
f 351/1/6 348/1/6 352/1/6
f 353/1/6 354/1/6 355/1/6
f 355/1/6 354/1/6 356/1/6
