# MagicaVoxel @ Ephtracy

# group
g Toilet

# material
mtllib Toilet.mtl
usemtl palette

# normals
vn -1 0 0
vn 1 0 0
vn 0 0 1
vn 0 0 -1
vn 0 -1 0
vn 0 1 0

# texcoords
vt 0.662109 0.5
vt 0.876953 0.5

# verts
v -12 19 11
v -12 19 -10
v -12 21 11
v -12 21 -10
v -11 17 12
v -11 17 -10
v -11 19 11
v -11 19 -10
v -11 20 -11
v -11 20 -16
v -11 21 12
v -11 21 11
v -11 41 -11
v -11 41 -16
v -10 11 10
v -10 11 -6
v -10 16 12
v -10 16 10
v -10 17 13
v -10 17 12
v -10 17 -6
v -10 21 13
v -10 21 12
v -10 21 -10
v -10 21 -11
v -10 41 -10
v -10 41 -11
v -9 9 10
v -9 9 -16
v -9 11 11
v -9 11 10
v -9 11 -6
v -9 16 11
v -9 16 10
v -9 17 -6
v -9 17 -10
v -9 19 14
v -9 19 13
v -9 20 -11
v -9 20 -16
v -9 21 14
v -9 21 13
v -9 21 -10
v -9 21 -11
v -8 10 11
v -8 10 10
v -8 11 11
v -8 11 10
v -8 12 12
v -8 12 11
v -8 16 12
v -8 16 11
v -8 19 15
v -8 19 14
v -8 21 15
v -8 21 14
v -7 8 9
v -7 8 -16
v -7 9 9
v -7 9 -16
v -7 11 12
v -7 11 11
v -7 12 12
v -7 12 11
v -7 19 16
v -7 19 15
v -7 21 16
v -7 21 15
v -6 7 7
v -6 7 -16
v -6 8 7
v -6 8 -16
v -5 6 6
v -5 6 -16
v -5 7 6
v -5 7 -16
v -4 2 2
v -4 2 -16
v -4 4 3
v -4 4 2
v -4 5 4
v -4 5 3
v -4 6 4
v -4 6 -16
v -3 0 1
v -3 0 -16
v -3 2 1
v -3 2 -16
v 3 2 -2
v 3 2 -9
v 3 5 -7
v 3 5 -9
v 3 6 -6
v 3 6 -7
v 3 7 -1
v 3 7 -2
v 3 7 -5
v 3 7 -6
v 3 8 -0
v 3 8 -1
v 3 9 1
v 3 9 -0
v 3 10 1
v 3 10 -5
v 4 10 2
v 4 10 -5
v 4 11 2
v 4 11 -5
v 4 36 -9
v 4 36 -10
v 4 37 -9
v 4 37 -10
v 7 11 11
v 7 11 -5
v 7 20 11
v 7 20 -5
v 8 20 12
v 8 20 -6
v 8 21 12
v 8 21 -6
v -8 20 12
v -8 20 -6
v -8 21 12
v -8 21 -6
v -7 11 11
v -7 11 -5
v -7 20 11
v -7 20 -5
v -4 10 2
v -4 10 -5
v -4 11 2
v -4 11 -5
v -3 2 -2
v -3 2 -9
v -3 5 -7
v -3 5 -9
v -3 6 -6
v -3 6 -7
v -3 7 -1
v -3 7 -2
v -3 7 -5
v -3 7 -6
v -3 8 -0
v -3 8 -1
v -3 9 1
v -3 9 -0
v -3 10 1
v -3 10 -5
v 3 0 1
v 3 0 -16
v 3 2 1
v 3 2 -16
v 4 2 2
v 4 2 -16
v 4 4 3
v 4 4 2
v 4 5 4
v 4 5 3
v 4 6 4
v 4 6 -16
v 5 6 6
v 5 6 -16
v 5 7 6
v 5 7 -16
v 6 7 7
v 6 7 -16
v 6 8 7
v 6 8 -16
v 7 8 9
v 7 8 -16
v 7 9 9
v 7 9 -16
v 7 11 12
v 7 11 11
v 7 12 12
v 7 12 11
v 7 19 16
v 7 19 15
v 7 21 16
v 7 21 15
v 7 36 -9
v 7 36 -10
v 7 37 -9
v 7 37 -10
v 8 10 11
v 8 10 10
v 8 11 11
v 8 11 10
v 8 12 12
v 8 12 11
v 8 17 12
v 8 17 11
v 8 19 15
v 8 19 14
v 8 21 15
v 8 21 14
v 9 9 10
v 9 9 -16
v 9 11 11
v 9 11 10
v 9 11 -6
v 9 17 11
v 9 17 10
v 9 17 -6
v 9 17 -10
v 9 19 14
v 9 19 13
v 9 20 -11
v 9 20 -16
v 9 21 14
v 9 21 13
v 9 21 -10
v 9 21 -11
v 10 11 10
v 10 11 -6
v 10 17 13
v 10 17 12
v 10 17 10
v 10 17 -6
v 10 21 13
v 10 21 12
v 10 21 -10
v 10 21 -11
v 10 41 -10
v 10 41 -11
v 11 17 12
v 11 17 -10
v 11 19 11
v 11 19 -10
v 11 20 -11
v 11 20 -16
v 11 21 12
v 11 21 11
v 11 41 -11
v 11 41 -16
v 12 19 11
v 12 19 -10
v 12 21 11
v 12 21 -10
v -7 19 16
v -7 21 16
v 7 19 16
v 7 21 16
v -8 19 15
v -8 21 15
v -7 19 15
v -7 21 15
v 7 19 15
v 7 21 15
v 8 19 15
v 8 21 15
v -9 19 14
v -9 21 14
v -8 19 14
v -8 21 14
v 8 19 14
v 8 21 14
v 9 19 14
v 9 21 14
v -10 17 13
v -10 21 13
v -9 19 13
v -9 21 13
v 9 19 13
v 9 21 13
v 10 17 13
v 10 21 13
v -11 17 12
v -11 21 12
v -10 16 12
v -10 17 12
v -10 21 12
v -8 12 12
v -8 16 12
v -7 11 12
v -7 12 12
v 7 11 12
v 7 12 12
v 8 12 12
v 8 17 12
v 10 17 12
v 10 21 12
v 11 17 12
v 11 21 12
v -12 19 11
v -12 21 11
v -11 19 11
v -11 21 11
v -9 11 11
v -9 16 11
v -8 10 11
v -8 11 11
v -8 12 11
v -8 16 11
v -7 11 11
v -7 12 11
v 7 11 11
v 7 12 11
v 8 10 11
v 8 11 11
v 8 12 11
v 8 17 11
v 9 11 11
v 9 17 11
v 11 19 11
v 11 21 11
v 12 19 11
v 12 21 11
v -10 11 10
v -10 16 10
v -9 9 10
v -9 11 10
v -9 16 10
v -8 10 10
v -8 11 10
v 8 10 10
v 8 11 10
v 9 9 10
v 9 11 10
v 9 17 10
v 10 11 10
v 10 17 10
v -7 8 9
v -7 9 9
v 7 8 9
v 7 9 9
v -6 7 7
v -6 8 7
v 6 7 7
v 6 8 7
v -5 6 6
v -5 7 6
v 5 6 6
v 5 7 6
v -4 5 4
v -4 6 4
v 4 5 4
v 4 6 4
v -4 4 3
v -4 5 3
v 4 4 3
v 4 5 3
v -4 2 2
v -4 4 2
v 4 2 2
v 4 4 2
v -3 0 1
v -3 2 1
v 3 0 1
v 3 2 1
v -7 11 -5
v -7 20 -5
v -4 10 -5
v -4 11 -5
v -3 7 -5
v -3 10 -5
v 3 7 -5
v 3 10 -5
v 4 10 -5
v 4 11 -5
v 7 11 -5
v 7 20 -5
v -8 20 -6
v -8 21 -6
v -3 6 -6
v -3 7 -6
v 3 6 -6
v 3 7 -6
v 8 20 -6
v 8 21 -6
v -3 5 -7
v -3 6 -7
v 3 5 -7
v 3 6 -7
v -3 2 -9
v -3 5 -9
v 3 2 -9
v 3 5 -9
v 4 36 -9
v 4 37 -9
v 7 36 -9
v 7 37 -9
v -10 21 -10
v -10 41 -10
v 4 36 -10
v 4 37 -10
v 7 36 -10
v 7 37 -10
v 10 21 -10
v 10 41 -10
v -11 20 -11
v -11 41 -11
v -10 21 -11
v -10 41 -11
v -9 20 -11
v -9 21 -11
v 9 20 -11
v 9 21 -11
v 10 21 -11
v 10 41 -11
v 11 20 -11
v 11 41 -11
v -8 20 12
v -8 21 12
v 8 20 12
v 8 21 12
v -7 11 11
v -7 20 11
v 7 11 11
v 7 20 11
v -4 10 2
v -4 11 2
v 4 10 2
v 4 11 2
v -3 9 1
v -3 10 1
v 3 9 1
v 3 10 1
v -3 8 -0
v -3 9 -0
v 3 8 -0
v 3 9 -0
v -3 7 -1
v -3 8 -1
v 3 7 -1
v 3 8 -1
v -3 2 -2
v -3 7 -2
v 3 2 -2
v 3 7 -2
v -10 11 -6
v -10 17 -6
v -9 11 -6
v -9 17 -6
v 9 11 -6
v 9 17 -6
v 10 11 -6
v 10 17 -6
v -12 19 -10
v -12 21 -10
v -11 17 -10
v -11 19 -10
v -10 21 -10
v -9 17 -10
v -9 21 -10
v 9 17 -10
v 9 21 -10
v 10 21 -10
v 11 17 -10
v 11 19 -10
v 12 19 -10
v 12 21 -10
v -11 20 -16
v -11 41 -16
v -9 9 -16
v -9 20 -16
v -7 8 -16
v -7 9 -16
v -6 7 -16
v -6 8 -16
v -5 6 -16
v -5 7 -16
v -4 2 -16
v -4 6 -16
v -3 0 -16
v -3 2 -16
v 3 0 -16
v 3 2 -16
v 4 2 -16
v 4 6 -16
v 5 6 -16
v 5 7 -16
v 6 7 -16
v 6 8 -16
v 7 8 -16
v 7 9 -16
v 9 9 -16
v 9 20 -16
v 11 20 -16
v 11 41 -16
v -3 0 1
v 3 0 1
v -3 0 -16
v 3 0 -16
v -4 2 2
v 4 2 2
v -3 2 1
v 3 2 1
v -4 2 -16
v -3 2 -16
v 3 2 -16
v 4 2 -16
v -4 4 3
v 4 4 3
v -4 4 2
v 4 4 2
v -4 5 4
v 4 5 4
v -4 5 3
v 4 5 3
v -3 5 -7
v 3 5 -7
v -3 5 -9
v 3 5 -9
v -5 6 6
v 5 6 6
v -4 6 4
v 4 6 4
v -3 6 -6
v 3 6 -6
v -3 6 -7
v 3 6 -7
v -5 6 -16
v -4 6 -16
v 4 6 -16
v 5 6 -16
v -6 7 7
v 6 7 7
v -5 7 6
v 5 7 6
v -3 7 -5
v 3 7 -5
v -3 7 -6
v 3 7 -6
v -6 7 -16
v -5 7 -16
v 5 7 -16
v 6 7 -16
v -7 8 9
v 7 8 9
v -6 8 7
v 6 8 7
v -7 8 -16
v -6 8 -16
v 6 8 -16
v 7 8 -16
v -9 9 10
v 9 9 10
v -7 9 9
v 7 9 9
v -9 9 -16
v -7 9 -16
v 7 9 -16
v 9 9 -16
v -8 10 11
v 8 10 11
v -8 10 10
v 8 10 10
v -7 11 12
v 7 11 12
v -9 11 11
v -8 11 11
v -7 11 11
v 7 11 11
v 8 11 11
v 9 11 11
v -10 11 10
v -9 11 10
v -8 11 10
v 8 11 10
v 9 11 10
v 10 11 10
v -10 11 -6
v -9 11 -6
v 9 11 -6
v 10 11 -6
v -8 12 12
v -7 12 12
v 7 12 12
v 8 12 12
v -8 12 11
v -7 12 11
v 7 12 11
v 8 12 11
v -10 16 12
v -8 16 12
v -9 16 11
v -8 16 11
v -10 16 10
v -9 16 10
v -10 17 13
v 10 17 13
v -11 17 12
v -10 17 12
v 8 17 12
v 10 17 12
v 11 17 12
v 8 17 11
v 9 17 11
v 9 17 10
v 10 17 10
v -10 17 -6
v -9 17 -6
v 9 17 -6
v 10 17 -6
v -11 17 -10
v -9 17 -10
v 9 17 -10
v 11 17 -10
v -7 19 16
v 7 19 16
v -8 19 15
v -7 19 15
v 7 19 15
v 8 19 15
v -9 19 14
v -8 19 14
v 8 19 14
v 9 19 14
v -9 19 13
v 9 19 13
v -12 19 11
v -11 19 11
v 11 19 11
v 12 19 11
v -12 19 -10
v -11 19 -10
v 11 19 -10
v 12 19 -10
v -11 20 -11
v -9 20 -11
v 9 20 -11
v 11 20 -11
v -11 20 -16
v -9 20 -16
v 9 20 -16
v 11 20 -16
v -10 21 -10
v -9 21 -10
v 9 21 -10
v 10 21 -10
v -10 21 -11
v -9 21 -11
v 9 21 -11
v 10 21 -11
v 4 36 -9
v 7 36 -9
v 4 36 -10
v 7 36 -10
v -3 2 -2
v 3 2 -2
v -3 2 -9
v 3 2 -9
v -3 7 -1
v 3 7 -1
v -3 7 -2
v 3 7 -2
v -3 8 -0
v 3 8 -0
v -3 8 -1
v 3 8 -1
v -3 9 1
v 3 9 1
v -3 9 -0
v 3 9 -0
v -4 10 2
v 4 10 2
v -3 10 1
v 3 10 1
v -4 10 -5
v -3 10 -5
v 3 10 -5
v 4 10 -5
v -7 11 11
v 7 11 11
v -4 11 2
v 4 11 2
v -7 11 -5
v -4 11 -5
v 4 11 -5
v 7 11 -5
v -8 20 12
v 8 20 12
v -7 20 11
v 7 20 11
v -7 20 -5
v 7 20 -5
v -8 20 -6
v 8 20 -6
v -7 21 16
v 7 21 16
v -8 21 15
v -7 21 15
v 7 21 15
v 8 21 15
v -9 21 14
v -8 21 14
v 8 21 14
v 9 21 14
v -10 21 13
v -9 21 13
v 9 21 13
v 10 21 13
v -11 21 12
v -10 21 12
v -8 21 12
v 8 21 12
v 10 21 12
v 11 21 12
v -12 21 11
v -11 21 11
v 11 21 11
v 12 21 11
v -8 21 -6
v 8 21 -6
v -12 21 -10
v -10 21 -10
v 10 21 -10
v 12 21 -10
v 4 37 -9
v 7 37 -9
v 4 37 -10
v 7 37 -10
v -10 41 -10
v 10 41 -10
v -11 41 -11
v -10 41 -11
v 10 41 -11
v 11 41 -11
v -11 41 -16
v 11 41 -16

# faces
f 3/2/1 2/2/1 1/2/1
f 4/2/1 2/2/1 3/2/1
f 7/2/1 6/2/1 5/2/1
f 8/2/1 6/2/1 7/2/1
f 11/2/1 7/2/1 5/2/1
f 12/2/1 7/2/1 11/2/1
f 13/2/1 10/2/1 9/2/1
f 14/2/1 10/2/1 13/2/1
f 18/2/1 16/2/1 15/2/1
f 20/2/1 18/2/1 17/2/1
f 21/2/1 16/2/1 18/2/1
f 21/2/1 18/2/1 20/2/1
f 22/2/1 20/2/1 19/2/1
f 23/2/1 20/2/1 22/2/1
f 26/2/1 25/2/1 24/2/1
f 27/2/1 25/2/1 26/2/1
f 31/2/1 29/2/1 28/2/1
f 32/2/1 29/2/1 31/2/1
f 33/2/1 31/2/1 30/2/1
f 34/2/1 31/2/1 33/2/1
f 35/2/1 29/2/1 32/2/1
f 36/2/1 29/2/1 35/2/1
f 39/2/1 29/2/1 36/2/1
f 40/2/1 29/2/1 39/2/1
f 41/2/1 38/2/1 37/2/1
f 42/2/1 38/2/1 41/2/1
f 43/2/1 39/2/1 36/2/1
f 44/2/1 39/2/1 43/2/1
f 47/2/1 46/2/1 45/2/1
f 48/2/1 46/2/1 47/2/1
f 51/2/1 50/2/1 49/2/1
f 52/2/1 50/2/1 51/2/1
f 55/2/1 54/2/1 53/2/1
f 56/2/1 54/2/1 55/2/1
f 59/2/1 58/2/1 57/2/1
f 60/2/1 58/2/1 59/2/1
f 63/2/1 62/2/1 61/2/1
f 64/2/1 62/2/1 63/2/1
f 67/2/1 66/2/1 65/2/1
f 68/2/1 66/2/1 67/2/1
f 71/2/1 70/2/1 69/2/1
f 72/2/1 70/2/1 71/2/1
f 75/2/1 74/2/1 73/2/1
f 76/2/1 74/2/1 75/2/1
f 80/2/1 78/2/1 77/2/1
f 82/2/1 80/2/1 79/2/1
f 83/2/1 82/2/1 81/2/1
f 84/2/1 78/2/1 80/2/1
f 84/2/1 82/2/1 83/2/1
f 84/2/1 80/2/1 82/2/1
f 87/2/1 86/2/1 85/2/1
f 88/2/1 86/2/1 87/2/1
f 91/2/1 90/2/1 89/2/1
f 92/2/1 90/2/1 91/2/1
f 93/2/1 91/2/1 89/2/1
f 94/2/1 91/2/1 93/2/1
f 96/2/1 93/2/1 89/2/1
f 97/2/1 93/2/1 96/2/1
f 98/2/1 93/2/1 97/2/1
f 100/2/1 96/2/1 95/2/1
f 100/2/1 97/2/1 96/2/1
f 102/2/1 100/2/1 99/2/1
f 103/2/1 102/2/1 101/2/1
f 104/2/1 97/2/1 100/2/1
f 104/2/1 102/2/1 103/2/1
f 104/2/1 100/2/1 102/2/1
f 107/2/1 106/2/1 105/2/1
f 108/2/1 106/2/1 107/2/1
f 111/1/1 110/1/1 109/1/1
f 112/1/1 110/1/1 111/1/1
f 115/2/1 114/2/1 113/2/1
f 116/2/1 114/2/1 115/2/1
f 119/2/1 118/2/1 117/2/1
f 120/2/1 118/2/1 119/2/1
f 121/2/2 122/2/2 123/2/2
f 123/2/2 122/2/2 124/2/2
f 125/2/2 126/2/2 127/2/2
f 127/2/2 126/2/2 128/2/2
f 129/2/2 130/2/2 131/2/2
f 131/2/2 130/2/2 132/2/2
f 133/2/2 134/2/2 135/2/2
f 135/2/2 134/2/2 136/2/2
f 133/2/2 135/2/2 137/2/2
f 137/2/2 135/2/2 138/2/2
f 133/2/2 137/2/2 140/2/2
f 140/2/2 137/2/2 141/2/2
f 141/2/2 137/2/2 142/2/2
f 139/2/2 140/2/2 144/2/2
f 140/2/2 141/2/2 144/2/2
f 143/2/2 144/2/2 146/2/2
f 145/2/2 146/2/2 147/2/2
f 144/2/2 141/2/2 148/2/2
f 147/2/2 146/2/2 148/2/2
f 146/2/2 144/2/2 148/2/2
f 149/2/2 150/2/2 151/2/2
f 151/2/2 150/2/2 152/2/2
f 153/2/2 154/2/2 156/2/2
f 155/2/2 156/2/2 158/2/2
f 157/2/2 158/2/2 159/2/2
f 156/2/2 154/2/2 160/2/2
f 159/2/2 158/2/2 160/2/2
f 158/2/2 156/2/2 160/2/2
f 161/2/2 162/2/2 163/2/2
f 163/2/2 162/2/2 164/2/2
f 165/2/2 166/2/2 167/2/2
f 167/2/2 166/2/2 168/2/2
f 169/2/2 170/2/2 171/2/2
f 171/2/2 170/2/2 172/2/2
f 173/2/2 174/2/2 175/2/2
f 175/2/2 174/2/2 176/2/2
f 177/2/2 178/2/2 179/2/2
f 179/2/2 178/2/2 180/2/2
f 181/1/2 182/1/2 183/1/2
f 183/1/2 182/1/2 184/1/2
f 185/2/2 186/2/2 187/2/2
f 187/2/2 186/2/2 188/2/2
f 189/2/2 190/2/2 191/2/2
f 191/2/2 190/2/2 192/2/2
f 193/2/2 194/2/2 195/2/2
f 195/2/2 194/2/2 196/2/2
f 197/2/2 198/2/2 200/2/2
f 200/2/2 198/2/2 201/2/2
f 199/2/2 200/2/2 202/2/2
f 202/2/2 200/2/2 203/2/2
f 201/2/2 198/2/2 204/2/2
f 204/2/2 198/2/2 205/2/2
f 205/2/2 198/2/2 208/2/2
f 208/2/2 198/2/2 209/2/2
f 206/2/2 207/2/2 210/2/2
f 210/2/2 207/2/2 211/2/2
f 205/2/2 208/2/2 212/2/2
f 212/2/2 208/2/2 213/2/2
f 214/2/2 215/2/2 218/2/2
f 218/2/2 215/2/2 219/2/2
f 216/2/2 217/2/2 220/2/2
f 220/2/2 217/2/2 221/2/2
f 222/2/2 223/2/2 224/2/2
f 224/2/2 223/2/2 225/2/2
f 226/2/2 227/2/2 228/2/2
f 228/2/2 227/2/2 229/2/2
f 226/2/2 228/2/2 232/2/2
f 232/2/2 228/2/2 233/2/2
f 230/2/2 231/2/2 234/2/2
f 234/2/2 231/2/2 235/2/2
f 236/2/2 237/2/2 238/2/2
f 238/2/2 237/2/2 239/2/2
f 242/2/3 241/2/3 240/2/3
f 243/2/3 241/2/3 242/2/3
f 246/2/3 245/2/3 244/2/3
f 247/2/3 245/2/3 246/2/3
f 250/2/3 249/2/3 248/2/3
f 251/2/3 249/2/3 250/2/3
f 254/2/3 253/2/3 252/2/3
f 255/2/3 253/2/3 254/2/3
f 258/2/3 257/2/3 256/2/3
f 259/2/3 257/2/3 258/2/3
f 262/2/3 261/2/3 260/2/3
f 263/2/3 261/2/3 262/2/3
f 264/2/3 262/2/3 260/2/3
f 266/2/3 264/2/3 260/2/3
f 266/2/3 265/2/3 264/2/3
f 267/2/3 265/2/3 266/2/3
f 271/2/3 269/2/3 268/2/3
f 272/2/3 269/2/3 271/2/3
f 274/2/3 271/2/3 270/2/3
f 276/2/3 274/2/3 273/2/3
f 277/2/3 276/2/3 275/2/3
f 278/2/3 274/2/3 276/2/3
f 278/2/3 276/2/3 277/2/3
f 279/2/3 274/2/3 278/2/3
f 280/2/3 271/2/3 274/2/3
f 280/2/3 274/2/3 279/2/3
f 283/2/3 282/2/3 281/2/3
f 284/2/3 282/2/3 283/2/3
f 287/2/3 286/2/3 285/2/3
f 288/2/3 286/2/3 287/2/3
f 292/2/3 290/2/3 289/2/3
f 293/2/3 290/2/3 292/2/3
f 294/2/3 290/2/3 293/2/3
f 295/2/3 292/2/3 291/2/3
f 295/2/3 293/2/3 292/2/3
f 296/2/3 293/2/3 295/2/3
f 297/2/3 295/2/3 291/2/3
f 299/2/3 297/2/3 291/2/3
f 299/2/3 298/2/3 297/2/3
f 300/2/3 298/2/3 299/2/3
f 301/2/3 298/2/3 300/2/3
f 303/2/3 301/2/3 300/2/3
f 303/2/3 302/2/3 301/2/3
f 304/2/3 302/2/3 303/2/3
f 307/2/3 306/2/3 305/2/3
f 308/2/3 306/2/3 307/2/3
f 312/2/3 310/2/3 309/2/3
f 313/2/3 310/2/3 312/2/3
f 314/2/3 312/2/3 311/2/3
f 315/2/3 312/2/3 314/2/3
f 316/2/3 314/2/3 311/2/3
f 318/2/3 316/2/3 311/2/3
f 318/2/3 317/2/3 316/2/3
f 319/2/3 317/2/3 318/2/3
f 321/2/3 320/2/3 319/2/3
f 322/2/3 320/2/3 321/2/3
f 325/2/3 324/2/3 323/2/3
f 326/2/3 324/2/3 325/2/3
f 329/2/3 328/2/3 327/2/3
f 330/2/3 328/2/3 329/2/3
f 333/2/3 332/2/3 331/2/3
f 334/2/3 332/2/3 333/2/3
f 337/2/3 336/2/3 335/2/3
f 338/2/3 336/2/3 337/2/3
f 341/2/3 340/2/3 339/2/3
f 342/2/3 340/2/3 341/2/3
f 345/2/3 344/2/3 343/2/3
f 346/2/3 344/2/3 345/2/3
f 349/2/3 348/2/3 347/2/3
f 350/2/3 348/2/3 349/2/3
f 354/2/3 352/2/3 351/2/3
f 356/2/3 354/2/3 353/2/3
f 357/2/3 356/2/3 355/2/3
f 358/2/3 354/2/3 356/2/3
f 358/2/3 356/2/3 357/2/3
f 359/2/3 354/2/3 358/2/3
f 360/2/3 352/2/3 354/2/3
f 360/2/3 354/2/3 359/2/3
f 361/2/3 352/2/3 360/2/3
f 362/2/3 352/2/3 361/2/3
f 367/2/3 366/2/3 365/2/3
f 368/2/3 366/2/3 367/2/3
f 369/2/3 364/2/3 363/2/3
f 370/2/3 364/2/3 369/2/3
f 373/2/3 372/2/3 371/2/3
f 374/2/3 372/2/3 373/2/3
f 377/2/3 376/2/3 375/2/3
f 378/2/3 376/2/3 377/2/3
f 381/1/3 380/1/3 379/1/3
f 382/1/3 380/1/3 381/1/3
f 385/2/3 384/2/3 383/2/3
f 386/2/3 384/2/3 385/2/3
f 387/2/3 385/2/3 383/2/3
f 388/2/3 384/2/3 386/2/3
f 389/2/3 387/2/3 383/2/3
f 389/2/3 388/2/3 387/2/3
f 390/2/3 384/2/3 388/2/3
f 390/2/3 388/2/3 389/2/3
f 393/2/3 392/2/3 391/2/3
f 394/2/3 392/2/3 393/2/3
f 395/2/3 393/2/3 391/2/3
f 396/2/3 393/2/3 395/2/3
f 399/2/3 398/2/3 397/2/3
f 401/2/3 399/2/3 397/2/3
f 401/2/3 400/2/3 399/2/3
f 402/2/3 400/2/3 401/2/3
f 403/2/4 404/2/4 405/2/4
f 405/2/4 404/2/4 406/2/4
f 407/2/4 408/2/4 409/2/4
f 409/2/4 408/2/4 410/2/4
f 411/2/4 412/2/4 413/2/4
f 413/2/4 412/2/4 414/2/4
f 415/2/4 416/2/4 417/2/4
f 417/2/4 416/2/4 418/2/4
f 419/2/4 420/2/4 421/2/4
f 421/2/4 420/2/4 422/2/4
f 423/2/4 424/2/4 425/2/4
f 425/2/4 424/2/4 426/2/4
f 427/2/4 428/2/4 429/2/4
f 429/2/4 428/2/4 430/2/4
f 431/2/4 432/2/4 433/2/4
f 433/2/4 432/2/4 434/2/4
f 435/2/4 436/2/4 437/2/4
f 437/2/4 436/2/4 438/2/4
f 439/2/4 440/2/4 442/2/4
f 442/2/4 440/2/4 443/2/4
f 441/2/4 442/2/4 443/2/4
f 441/2/4 443/2/4 444/2/4
f 444/2/4 443/2/4 445/2/4
f 446/2/4 447/2/4 448/2/4
f 446/2/4 448/2/4 449/2/4
f 449/2/4 448/2/4 450/2/4
f 450/2/4 448/2/4 451/2/4
f 451/2/4 448/2/4 452/2/4
f 453/2/4 454/2/4 456/2/4
f 455/2/4 456/2/4 458/2/4
f 457/2/4 458/2/4 460/2/4
f 459/2/4 460/2/4 462/2/4
f 461/2/4 462/2/4 464/2/4
f 463/2/4 464/2/4 466/2/4
f 465/2/4 466/2/4 467/2/4
f 466/2/4 464/2/4 468/2/4
f 467/2/4 466/2/4 468/2/4
f 468/2/4 464/2/4 469/2/4
f 464/2/4 462/2/4 470/2/4
f 469/2/4 464/2/4 470/2/4
f 470/2/4 462/2/4 471/2/4
f 462/2/4 460/2/4 472/2/4
f 471/2/4 462/2/4 472/2/4
f 472/2/4 460/2/4 473/2/4
f 460/2/4 458/2/4 474/2/4
f 473/2/4 460/2/4 474/2/4
f 474/2/4 458/2/4 475/2/4
f 458/2/4 456/2/4 476/2/4
f 475/2/4 458/2/4 476/2/4
f 476/2/4 456/2/4 477/2/4
f 456/2/4 454/2/4 478/2/4
f 477/2/4 456/2/4 478/2/4
f 478/2/4 454/2/4 479/2/4
f 479/2/4 454/2/4 480/2/4
f 483/2/5 482/2/5 481/2/5
f 484/2/5 482/2/5 483/2/5
f 487/2/5 486/2/5 485/2/5
f 488/2/5 486/2/5 487/2/5
f 489/2/5 487/2/5 485/2/5
f 490/2/5 487/2/5 489/2/5
f 491/2/5 486/2/5 488/2/5
f 492/2/5 486/2/5 491/2/5
f 495/2/5 494/2/5 493/2/5
f 496/2/5 494/2/5 495/2/5
f 499/2/5 498/2/5 497/2/5
f 500/2/5 498/2/5 499/2/5
f 503/2/5 502/2/5 501/2/5
f 504/2/5 502/2/5 503/2/5
f 507/2/5 506/2/5 505/2/5
f 508/2/5 506/2/5 507/2/5
f 511/2/5 510/2/5 509/2/5
f 512/2/5 510/2/5 511/2/5
f 513/2/5 507/2/5 505/2/5
f 514/2/5 507/2/5 513/2/5
f 515/2/5 506/2/5 508/2/5
f 516/2/5 506/2/5 515/2/5
f 519/2/5 518/2/5 517/2/5
f 520/2/5 518/2/5 519/2/5
f 523/2/5 522/2/5 521/2/5
f 524/2/5 522/2/5 523/2/5
f 525/2/5 519/2/5 517/2/5
f 526/2/5 519/2/5 525/2/5
f 527/2/5 518/2/5 520/2/5
f 528/2/5 518/2/5 527/2/5
f 531/2/5 530/2/5 529/2/5
f 532/2/5 530/2/5 531/2/5
f 533/2/5 531/2/5 529/2/5
f 534/2/5 531/2/5 533/2/5
f 535/2/5 530/2/5 532/2/5
f 536/2/5 530/2/5 535/2/5
f 539/2/5 538/2/5 537/2/5
f 540/2/5 538/2/5 539/2/5
f 541/2/5 539/2/5 537/2/5
f 542/2/5 539/2/5 541/2/5
f 543/2/5 538/2/5 540/2/5
f 544/2/5 538/2/5 543/2/5
f 547/2/5 546/2/5 545/2/5
f 548/2/5 546/2/5 547/2/5
f 553/2/5 550/2/5 549/2/5
f 554/2/5 550/2/5 553/2/5
f 558/2/5 552/2/5 551/2/5
f 559/2/5 552/2/5 558/2/5
f 560/2/5 556/2/5 555/2/5
f 561/2/5 556/2/5 560/2/5
f 563/2/5 558/2/5 557/2/5
f 564/2/5 558/2/5 563/2/5
f 565/2/5 562/2/5 561/2/5
f 566/2/5 562/2/5 565/2/5
f 571/2/5 568/2/5 567/2/5
f 572/2/5 568/2/5 571/2/5
f 573/2/5 570/2/5 569/2/5
f 574/2/5 570/2/5 573/2/5
f 577/2/5 576/2/5 575/2/5
f 578/2/5 576/2/5 577/2/5
f 579/2/5 577/2/5 575/2/5
f 580/2/5 577/2/5 579/2/5
f 584/2/5 582/2/5 581/2/5
f 585/2/5 582/2/5 584/2/5
f 586/2/5 582/2/5 585/2/5
f 588/2/5 587/2/5 586/2/5
f 588/2/5 586/2/5 585/2/5
f 589/2/5 587/2/5 588/2/5
f 590/2/5 587/2/5 589/2/5
f 591/2/5 587/2/5 590/2/5
f 592/2/5 584/2/5 583/2/5
f 595/2/5 587/2/5 591/2/5
f 596/2/5 593/2/5 592/2/5
f 596/2/5 592/2/5 583/2/5
f 597/2/5 593/2/5 596/2/5
f 598/2/5 595/2/5 594/2/5
f 599/2/5 587/2/5 595/2/5
f 599/2/5 595/2/5 598/2/5
f 603/2/5 601/2/5 600/2/5
f 604/2/5 601/2/5 603/2/5
f 607/2/5 603/2/5 602/2/5
f 607/2/5 605/2/5 604/2/5
f 607/2/5 604/2/5 603/2/5
f 608/2/5 605/2/5 607/2/5
f 610/2/5 607/2/5 606/2/5
f 610/2/5 609/2/5 608/2/5
f 610/2/5 608/2/5 607/2/5
f 611/2/5 609/2/5 610/2/5
f 616/2/5 613/2/5 612/2/5
f 617/2/5 613/2/5 616/2/5
f 618/2/5 615/2/5 614/2/5
f 619/2/5 615/2/5 618/2/5
f 624/2/5 621/2/5 620/2/5
f 625/2/5 621/2/5 624/2/5
f 626/2/5 623/2/5 622/2/5
f 627/2/5 623/2/5 626/2/5
f 632/2/5 629/2/5 628/2/5
f 633/2/5 629/2/5 632/2/5
f 634/2/5 631/2/5 630/2/5
f 635/2/5 631/2/5 634/2/5
f 638/1/5 637/1/5 636/1/5
f 639/1/5 637/1/5 638/1/5
f 640/2/6 641/2/6 642/2/6
f 642/2/6 641/2/6 643/2/6
f 644/2/6 645/2/6 646/2/6
f 646/2/6 645/2/6 647/2/6
f 648/2/6 649/2/6 650/2/6
f 650/2/6 649/2/6 651/2/6
f 652/2/6 653/2/6 654/2/6
f 654/2/6 653/2/6 655/2/6
f 656/2/6 657/2/6 658/2/6
f 658/2/6 657/2/6 659/2/6
f 656/2/6 658/2/6 660/2/6
f 660/2/6 658/2/6 661/2/6
f 659/2/6 657/2/6 662/2/6
f 662/2/6 657/2/6 663/2/6
f 664/2/6 665/2/6 666/2/6
f 666/2/6 665/2/6 667/2/6
f 664/2/6 666/2/6 668/2/6
f 668/2/6 666/2/6 669/2/6
f 667/2/6 665/2/6 670/2/6
f 670/2/6 665/2/6 671/2/6
f 672/2/6 673/2/6 674/2/6
f 674/2/6 673/2/6 675/2/6
f 672/2/6 674/2/6 676/2/6
f 675/2/6 673/2/6 677/2/6
f 672/2/6 676/2/6 678/2/6
f 676/2/6 677/2/6 678/2/6
f 677/2/6 673/2/6 679/2/6
f 678/2/6 677/2/6 679/2/6
f 680/2/6 681/2/6 683/2/6
f 683/2/6 681/2/6 684/2/6
f 682/2/6 683/2/6 687/2/6
f 684/2/6 685/2/6 687/2/6
f 683/2/6 684/2/6 687/2/6
f 687/2/6 685/2/6 688/2/6
f 686/2/6 687/2/6 691/2/6
f 688/2/6 689/2/6 691/2/6
f 687/2/6 688/2/6 691/2/6
f 691/2/6 689/2/6 692/2/6
f 690/2/6 691/2/6 695/2/6
f 692/2/6 693/2/6 695/2/6
f 691/2/6 692/2/6 695/2/6
f 695/2/6 693/2/6 696/2/6
f 696/2/6 693/2/6 697/2/6
f 697/2/6 693/2/6 698/2/6
f 694/2/6 695/2/6 701/2/6
f 695/2/6 696/2/6 701/2/6
f 697/2/6 698/2/6 702/2/6
f 698/2/6 699/2/6 702/2/6
f 700/2/6 701/2/6 704/2/6
f 701/2/6 696/2/6 704/2/6
f 702/2/6 703/2/6 705/2/6
f 697/2/6 702/2/6 705/2/6
f 700/2/6 704/2/6 706/2/6
f 704/2/6 705/2/6 706/2/6
f 706/2/6 705/2/6 707/2/6
f 705/2/6 703/2/6 708/2/6
f 707/2/6 705/2/6 708/2/6
f 708/2/6 703/2/6 709/2/6
f 710/1/6 711/1/6 712/1/6
f 712/1/6 711/1/6 713/1/6
f 714/2/6 715/2/6 717/2/6
f 717/2/6 715/2/6 718/2/6
f 716/2/6 717/2/6 720/2/6
f 718/2/6 719/2/6 720/2/6
f 717/2/6 718/2/6 720/2/6
f 720/2/6 719/2/6 721/2/6
