# MagicaVoxel @ Ephtracy

# group
g amplifier

# material
mtllib amplifier.mtl
usemtl palette

# normals
vn -1 0 0
vn 1 0 0
vn 0 0 1
vn 0 0 -1
vn 0 -1 0
vn 0 1 0

# texcoords
vt 0.533203 0.5
vt 0.537109 0.5
vt 0.576172 0.5
vt 0.732422 0.5

# verts
v -13 19 9
v -13 19 7
v -13 19 -3
v -13 19 -4
v -13 19 -7
v -13 19 -8
v -13 20 9
v -13 20 7
v -13 20 -3
v -13 20 -4
v -13 20 -7
v -13 20 -8
v -13 21 9
v -13 21 7
v -13 21 -2
v -13 21 -3
v -13 21 -5
v -13 21 -6
v -13 21 -8
v -13 21 -9
v -13 22 9
v -13 22 7
v -13 22 -2
v -13 22 -3
v -13 22 -5
v -13 22 -6
v -13 22 -8
v -13 22 -9
v -12 0 12
v -12 0 -12
v -12 2 10
v -12 2 -10
v -12 18 10
v -12 18 -10
v -12 19 9
v -12 19 7
v -12 19 -3
v -12 19 -4
v -12 19 -7
v -12 19 -8
v -12 20 9
v -12 20 7
v -12 20 -3
v -12 20 -4
v -12 20 -7
v -12 20 -8
v -12 21 9
v -12 21 7
v -12 21 -2
v -12 21 -3
v -12 21 -5
v -12 21 -6
v -12 21 -8
v -12 21 -9
v -12 22 11
v -12 22 10
v -12 22 9
v -12 22 7
v -12 22 -2
v -12 22 -3
v -12 22 -4
v -12 22 -5
v -12 22 -6
v -12 22 -7
v -12 22 -8
v -12 22 -9
v -12 22 -10
v -12 23 11
v -12 23 10
v -12 23 -3
v -12 23 -4
v -12 23 -6
v -12 23 -7
v -12 23 -9
v -12 23 -10
v -12 24 12
v -12 24 -12
v -11 2 10
v -11 2 -10
v -11 18 10
v -11 18 -10
v -10 24 2
v -10 24 -0
v -10 24 -2
v -10 24 -4
v -10 24 -7
v -10 24 -9
v -10 25 2
v -10 25 -0
v -10 25 -2
v -10 25 -4
v -10 25 -7
v -10 25 -9
v -9 22 10
v -9 22 9
v -9 23 10
v -9 23 9
v -6 22 7
v -6 22 6
v -6 23 7
v -6 23 6
v -5 23 11
v -5 23 7
v -5 23 6
v -5 23 5
v -5 24 11
v -5 24 5
v -11 23 11
v -11 23 10
v -11 23 9
v -11 23 5
v -11 24 11
v -11 24 5
v -10 22 10
v -10 22 9
v -10 23 10
v -10 23 9
v -8 24 2
v -8 24 -0
v -8 24 -2
v -8 24 -4
v -8 24 -7
v -8 24 -9
v -8 25 2
v -8 25 -0
v -8 25 -2
v -8 25 -4
v -8 25 -7
v -8 25 -9
v -7 22 7
v -7 22 6
v -7 23 7
v -7 23 6
v 13 0 12
v 13 0 -12
v 13 24 12
v 13 24 -12
v -12 0 12
v -12 24 12
v 13 0 12
v 13 24 12
v -13 19 9
v -13 20 9
v -13 21 9
v -13 22 9
v -12 19 9
v -12 20 9
v -12 21 9
v -12 22 9
v -10 22 9
v -10 23 9
v -9 22 9
v -9 23 9
v -7 22 6
v -7 23 6
v -6 22 6
v -6 23 6
v -11 23 5
v -11 24 5
v -7 23 5
v -6 23 5
v -5 23 5
v -5 24 5
v -10 24 2
v -10 25 2
v -8 24 2
v -8 25 2
v -13 21 -2
v -13 22 -2
v -12 21 -2
v -12 22 -2
v -10 24 -2
v -10 25 -2
v -8 24 -2
v -8 25 -2
v -13 19 -3
v -13 20 -3
v -12 19 -3
v -12 20 -3
v -13 21 -5
v -13 22 -5
v -12 21 -5
v -12 22 -5
v -13 19 -7
v -13 20 -7
v -12 19 -7
v -12 20 -7
v -10 24 -7
v -10 25 -7
v -8 24 -7
v -8 25 -7
v -13 21 -8
v -13 22 -8
v -12 21 -8
v -12 22 -8
v -12 2 -10
v -12 18 -10
v -11 2 -10
v -11 18 -10
v -11 23 11
v -11 24 11
v -10 23 11
v -9 23 11
v -5 23 11
v -5 24 11
v -12 2 10
v -12 18 10
v -11 2 10
v -11 18 10
v -10 22 10
v -10 23 10
v -9 22 10
v -9 23 10
v -13 19 7
v -13 20 7
v -13 21 7
v -13 22 7
v -12 19 7
v -12 20 7
v -12 21 7
v -12 22 7
v -7 22 7
v -7 23 7
v -6 22 7
v -6 23 7
v -10 24 -0
v -10 25 -0
v -8 24 -0
v -8 25 -0
v -13 21 -3
v -13 22 -3
v -12 21 -3
v -12 22 -3
v -13 19 -4
v -13 20 -4
v -12 19 -4
v -12 20 -4
v -10 24 -4
v -10 25 -4
v -8 24 -4
v -8 25 -4
v -13 21 -6
v -13 22 -6
v -12 21 -6
v -12 22 -6
v -13 19 -8
v -13 20 -8
v -12 19 -8
v -12 20 -8
v -13 21 -9
v -13 22 -9
v -12 21 -9
v -12 22 -9
v -10 24 -9
v -10 25 -9
v -8 24 -9
v -8 25 -9
v -12 0 -12
v -12 24 -12
v 13 0 -12
v 13 24 -12
v -12 0 12
v 13 0 12
v -12 0 -12
v 13 0 -12
v -12 18 10
v -11 18 10
v -12 18 -10
v -11 18 -10
v -13 19 9
v -12 19 9
v -13 19 7
v -12 19 7
v -13 19 -3
v -12 19 -3
v -13 19 -4
v -12 19 -4
v -13 19 -7
v -12 19 -7
v -13 19 -8
v -12 19 -8
v -13 21 9
v -12 21 9
v -13 21 7
v -12 21 7
v -13 21 -2
v -12 21 -2
v -13 21 -3
v -12 21 -3
v -13 21 -5
v -12 21 -5
v -13 21 -6
v -12 21 -6
v -13 21 -8
v -12 21 -8
v -13 21 -9
v -12 21 -9
v -12 2 10
v -11 2 10
v -12 2 -10
v -11 2 -10
v -13 20 9
v -12 20 9
v -13 20 7
v -12 20 7
v -13 20 -3
v -12 20 -3
v -13 20 -4
v -12 20 -4
v -13 20 -7
v -12 20 -7
v -13 20 -8
v -12 20 -8
v -10 22 10
v -9 22 10
v -13 22 9
v -12 22 9
v -10 22 9
v -9 22 9
v -13 22 7
v -12 22 7
v -7 22 7
v -6 22 7
v -7 22 6
v -6 22 6
v -13 22 -2
v -12 22 -2
v -13 22 -3
v -12 22 -3
v -13 22 -5
v -12 22 -5
v -13 22 -6
v -12 22 -6
v -13 22 -8
v -12 22 -8
v -13 22 -9
v -12 22 -9
v -11 23 11
v -10 23 11
v -9 23 11
v -5 23 11
v -11 23 10
v -10 23 10
v -9 23 10
v -8 23 10
v -11 23 9
v -10 23 9
v -9 23 9
v -8 23 9
v -10 23 8
v -9 23 8
v -7 23 8
v -6 23 8
v -8 23 7
v -7 23 7
v -6 23 7
v -5 23 7
v -8 23 6
v -7 23 6
v -6 23 6
v -5 23 6
v -11 23 5
v -7 23 5
v -6 23 5
v -5 23 5
v -12 24 12
v 13 24 12
v -11 24 11
v -5 24 11
v -11 24 5
v -5 24 5
v -10 24 2
v -8 24 2
v -6 24 2
v -5 24 2
v -10 24 -0
v -8 24 -0
v -6 24 -0
v -5 24 -0
v -10 24 -2
v -8 24 -2
v -6 24 -2
v -5 24 -2
v -10 24 -4
v -8 24 -4
v -6 24 -4
v -5 24 -4
v -10 24 -7
v -8 24 -7
v -6 24 -7
v -5 24 -7
v -10 24 -9
v -8 24 -9
v -6 24 -9
v -5 24 -9
v -12 24 -12
v 13 24 -12
v -10 25 2
v -8 25 2
v -10 25 -0
v -8 25 -0
v -10 25 -2
v -8 25 -2
v -10 25 -4
v -8 25 -4
v -10 25 -7
v -8 25 -7
v -10 25 -9
v -8 25 -9

# faces
f 7/2/1 2/2/1 1/2/1
f 8/2/1 2/2/1 7/2/1
f 9/2/1 4/2/1 3/2/1
f 10/2/1 4/2/1 9/2/1
f 11/2/1 6/2/1 5/2/1
f 12/2/1 6/2/1 11/2/1
f 21/2/1 14/2/1 13/2/1
f 22/2/1 14/2/1 21/2/1
f 23/2/1 16/2/1 15/2/1
f 24/2/1 16/2/1 23/2/1
f 25/2/1 18/2/1 17/2/1
f 26/2/1 18/2/1 25/2/1
f 27/2/1 20/2/1 19/2/1
f 28/2/1 20/2/1 27/2/1
f 31/1/1 30/1/1 29/1/1
f 32/1/1 30/1/1 31/1/1
f 33/1/1 31/1/1 29/1/1
f 34/1/1 30/1/1 32/1/1
f 35/1/1 34/1/1 33/1/1
f 36/1/1 34/1/1 35/1/1
f 37/1/1 34/1/1 36/1/1
f 38/1/1 34/1/1 37/1/1
f 39/1/1 34/1/1 38/1/1
f 40/1/1 34/1/1 39/1/1
f 41/1/1 35/1/1 33/1/1
f 42/1/1 37/1/1 36/1/1
f 43/1/1 37/1/1 42/1/1
f 44/1/1 39/1/1 38/1/1
f 45/1/1 39/1/1 44/1/1
f 46/1/1 34/1/1 40/1/1
f 47/1/1 45/1/1 44/1/1
f 47/1/1 46/1/1 45/1/1
f 47/1/1 43/1/1 42/1/1
f 47/1/1 41/1/1 33/1/1
f 47/1/1 44/1/1 43/1/1
f 47/1/1 42/1/1 41/1/1
f 48/1/1 46/1/1 47/1/1
f 49/1/1 46/1/1 48/1/1
f 50/1/1 46/1/1 49/1/1
f 51/1/1 46/1/1 50/1/1
f 52/1/1 46/1/1 51/1/1
f 53/1/1 34/1/1 46/1/1
f 53/1/1 46/1/1 52/1/1
f 54/1/1 34/1/1 53/1/1
f 55/1/1 33/1/1 29/1/1
f 55/1/1 47/1/1 33/1/1
f 56/1/1 47/1/1 55/1/1
f 57/1/1 47/1/1 56/1/1
f 58/1/1 49/1/1 48/1/1
f 59/1/1 49/1/1 58/1/1
f 60/1/1 51/1/1 50/1/1
f 61/1/1 51/1/1 60/1/1
f 62/1/1 51/1/1 61/1/1
f 63/1/1 53/1/1 52/1/1
f 64/1/1 53/1/1 63/1/1
f 65/1/1 53/1/1 64/1/1
f 66/1/1 34/1/1 54/1/1
f 67/1/1 30/1/1 34/1/1
f 67/1/1 34/1/1 66/1/1
f 68/1/1 55/1/1 29/1/1
f 68/4/1 56/4/1 55/4/1
f 69/1/1 59/1/1 58/1/1
f 69/4/1 56/4/1 68/4/1
f 69/1/1 57/1/1 56/1/1
f 69/1/1 58/1/1 57/1/1
f 69/1/1 60/1/1 59/1/1
f 70/4/1 61/4/1 60/4/1
f 70/1/1 60/1/1 69/1/1
f 71/1/1 62/1/1 61/1/1
f 71/4/1 61/4/1 70/4/1
f 71/1/1 63/1/1 62/1/1
f 72/4/1 64/4/1 63/4/1
f 72/1/1 63/1/1 71/1/1
f 73/1/1 65/1/1 64/1/1
f 73/4/1 64/4/1 72/4/1
f 73/1/1 66/1/1 65/1/1
f 74/4/1 67/4/1 66/4/1
f 74/1/1 66/1/1 73/1/1
f 75/1/1 30/1/1 67/1/1
f 75/4/1 67/4/1 74/4/1
f 76/1/1 72/1/1 71/1/1
f 76/1/1 69/1/1 68/1/1
f 76/1/1 75/1/1 74/1/1
f 76/1/1 70/1/1 69/1/1
f 76/1/1 68/1/1 29/1/1
f 76/1/1 71/1/1 70/1/1
f 76/1/1 74/1/1 73/1/1
f 76/1/1 73/1/1 72/1/1
f 77/1/1 30/1/1 75/1/1
f 77/1/1 75/1/1 76/1/1
f 80/3/1 79/3/1 78/3/1
f 81/3/1 79/3/1 80/3/1
f 88/2/1 83/2/1 82/2/1
f 89/2/1 83/2/1 88/2/1
f 90/2/1 85/2/1 84/2/1
f 91/2/1 85/2/1 90/2/1
f 92/2/1 87/2/1 86/2/1
f 93/2/1 87/2/1 92/2/1
f 96/2/1 95/2/1 94/2/1
f 97/2/1 95/2/1 96/2/1
f 100/2/1 99/2/1 98/2/1
f 101/2/1 99/2/1 100/2/1
f 106/1/1 103/1/1 102/1/1
f 106/1/1 105/1/1 104/1/1
f 106/1/1 104/1/1 103/1/1
f 107/1/1 105/1/1 106/1/1
f 108/1/2 109/1/2 112/1/2
f 110/1/2 111/1/2 112/1/2
f 109/1/2 110/1/2 112/1/2
f 112/1/2 111/1/2 113/1/2
f 114/2/2 115/2/2 116/2/2
f 116/2/2 115/2/2 117/2/2
f 118/2/2 119/2/2 124/2/2
f 124/2/2 119/2/2 125/2/2
f 120/2/2 121/2/2 126/2/2
f 126/2/2 121/2/2 127/2/2
f 122/2/2 123/2/2 128/2/2
f 128/2/2 123/2/2 129/2/2
f 130/2/2 131/2/2 132/2/2
f 132/2/2 131/2/2 133/2/2
f 134/1/2 135/1/2 136/1/2
f 136/1/2 135/1/2 137/1/2
f 140/1/3 139/1/3 138/1/3
f 141/1/3 139/1/3 140/1/3
f 146/2/3 143/2/3 142/2/3
f 147/2/3 143/2/3 146/2/3
f 148/2/3 145/2/3 144/2/3
f 149/2/3 145/2/3 148/2/3
f 152/2/3 151/2/3 150/2/3
f 153/2/3 151/2/3 152/2/3
f 156/2/3 155/2/3 154/2/3
f 157/2/3 155/2/3 156/2/3
f 160/1/3 159/1/3 158/1/3
f 161/1/3 159/1/3 160/1/3
f 162/1/3 159/1/3 161/1/3
f 163/1/3 159/1/3 162/1/3
f 166/2/3 165/2/3 164/2/3
f 167/2/3 165/2/3 166/2/3
f 170/2/3 169/2/3 168/2/3
f 171/2/3 169/2/3 170/2/3
f 174/2/3 173/2/3 172/2/3
f 175/2/3 173/2/3 174/2/3
f 178/2/3 177/2/3 176/2/3
f 179/2/3 177/2/3 178/2/3
f 182/2/3 181/2/3 180/2/3
f 183/2/3 181/2/3 182/2/3
f 186/2/3 185/2/3 184/2/3
f 187/2/3 185/2/3 186/2/3
f 190/2/3 189/2/3 188/2/3
f 191/2/3 189/2/3 190/2/3
f 194/2/3 193/2/3 192/2/3
f 195/2/3 193/2/3 194/2/3
f 198/1/3 197/1/3 196/1/3
f 199/1/3 197/1/3 198/1/3
f 200/1/4 201/1/4 202/1/4
f 202/1/4 201/1/4 203/1/4
f 203/1/4 201/1/4 204/1/4
f 204/1/4 201/1/4 205/1/4
f 206/1/4 207/1/4 208/1/4
f 208/1/4 207/1/4 209/1/4
f 210/2/4 211/2/4 212/2/4
f 212/2/4 211/2/4 213/2/4
f 214/2/4 215/2/4 218/2/4
f 218/2/4 215/2/4 219/2/4
f 216/2/4 217/2/4 220/2/4
f 220/2/4 217/2/4 221/2/4
f 222/2/4 223/2/4 224/2/4
f 224/2/4 223/2/4 225/2/4
f 226/2/4 227/2/4 228/2/4
f 228/2/4 227/2/4 229/2/4
f 230/2/4 231/2/4 232/2/4
f 232/2/4 231/2/4 233/2/4
f 234/2/4 235/2/4 236/2/4
f 236/2/4 235/2/4 237/2/4
f 238/2/4 239/2/4 240/2/4
f 240/2/4 239/2/4 241/2/4
f 242/2/4 243/2/4 244/2/4
f 244/2/4 243/2/4 245/2/4
f 246/2/4 247/2/4 248/2/4
f 248/2/4 247/2/4 249/2/4
f 250/2/4 251/2/4 252/2/4
f 252/2/4 251/2/4 253/2/4
f 254/2/4 255/2/4 256/2/4
f 256/2/4 255/2/4 257/2/4
f 258/1/4 259/1/4 260/1/4
f 260/1/4 259/1/4 261/1/4
f 264/1/5 263/1/5 262/1/5
f 265/1/5 263/1/5 264/1/5
f 268/1/5 267/1/5 266/1/5
f 269/1/5 267/1/5 268/1/5
f 272/2/5 271/2/5 270/2/5
f 273/2/5 271/2/5 272/2/5
f 276/2/5 275/2/5 274/2/5
f 277/2/5 275/2/5 276/2/5
f 280/2/5 279/2/5 278/2/5
f 281/2/5 279/2/5 280/2/5
f 284/2/5 283/2/5 282/2/5
f 285/2/5 283/2/5 284/2/5
f 288/2/5 287/2/5 286/2/5
f 289/2/5 287/2/5 288/2/5
f 292/2/5 291/2/5 290/2/5
f 293/2/5 291/2/5 292/2/5
f 296/2/5 295/2/5 294/2/5
f 297/2/5 295/2/5 296/2/5
f 298/1/6 299/1/6 300/1/6
f 300/1/6 299/1/6 301/1/6
f 302/2/6 303/2/6 304/2/6
f 304/2/6 303/2/6 305/2/6
f 306/2/6 307/2/6 308/2/6
f 308/2/6 307/2/6 309/2/6
f 310/2/6 311/2/6 312/2/6
f 312/2/6 311/2/6 313/2/6
f 314/2/6 315/2/6 318/2/6
f 318/2/6 315/2/6 319/2/6
f 316/2/6 317/2/6 320/2/6
f 320/2/6 317/2/6 321/2/6
f 322/2/6 323/2/6 324/2/6
f 324/2/6 323/2/6 325/2/6
f 326/2/6 327/2/6 328/2/6
f 328/2/6 327/2/6 329/2/6
f 330/2/6 331/2/6 332/2/6
f 332/2/6 331/2/6 333/2/6
f 334/2/6 335/2/6 336/2/6
f 336/2/6 335/2/6 337/2/6
f 338/1/6 339/1/6 342/1/6
f 339/2/6 340/2/6 343/2/6
f 342/1/6 339/1/6 343/1/6
f 340/1/6 341/1/6 344/1/6
f 343/2/6 340/2/6 344/2/6
f 344/1/6 341/1/6 345/1/6
f 342/2/6 343/2/6 346/2/6
f 346/2/6 343/2/6 347/2/6
f 344/2/6 345/2/6 348/2/6
f 345/1/6 341/1/6 349/1/6
f 348/2/6 345/2/6 349/2/6
f 347/2/6 348/2/6 350/2/6
f 346/1/6 347/1/6 350/1/6
f 348/1/6 349/1/6 351/1/6
f 350/2/6 348/2/6 351/2/6
f 349/1/6 341/1/6 352/1/6
f 351/1/6 349/1/6 352/1/6
f 352/1/6 341/1/6 353/1/6
f 350/1/6 351/1/6 354/1/6
f 351/1/6 352/1/6 354/1/6
f 352/2/6 353/2/6 355/2/6
f 354/1/6 352/1/6 355/1/6
f 353/1/6 341/1/6 356/1/6
f 355/2/6 353/2/6 356/2/6
f 356/1/6 341/1/6 357/1/6
f 354/2/6 355/2/6 358/2/6
f 350/1/6 354/1/6 358/1/6
f 358/2/6 355/2/6 359/2/6
f 356/2/6 357/2/6 360/2/6
f 360/2/6 357/2/6 361/2/6
f 346/1/6 350/1/6 362/1/6
f 358/1/6 359/1/6 362/1/6
f 350/1/6 358/1/6 362/1/6
f 359/2/6 360/2/6 363/2/6
f 362/1/6 359/1/6 363/1/6
f 360/1/6 361/1/6 364/1/6
f 363/2/6 360/2/6 364/2/6
f 364/1/6 361/1/6 365/1/6
f 366/1/6 367/1/6 368/1/6
f 368/1/6 367/1/6 369/1/6
f 366/1/6 368/1/6 370/1/6
f 369/1/6 367/1/6 371/1/6
f 370/1/6 371/1/6 372/1/6
f 372/1/6 371/1/6 373/1/6
f 373/1/6 371/1/6 374/1/6
f 371/1/6 367/1/6 375/1/6
f 374/1/6 371/1/6 375/1/6
f 370/1/6 372/1/6 376/1/6
f 373/1/6 374/1/6 377/1/6
f 374/4/6 375/4/6 378/4/6
f 377/1/6 374/1/6 378/1/6
f 375/1/6 367/1/6 379/1/6
f 378/4/6 375/4/6 379/4/6
f 370/1/6 376/1/6 380/1/6
f 377/1/6 378/1/6 380/1/6
f 378/1/6 379/1/6 380/1/6
f 376/1/6 377/1/6 380/1/6
f 380/1/6 379/1/6 381/1/6
f 381/1/6 379/1/6 382/1/6
f 379/1/6 367/1/6 383/1/6
f 382/1/6 379/1/6 383/1/6
f 370/1/6 380/1/6 384/1/6
f 381/1/6 382/1/6 385/1/6
f 382/4/6 383/4/6 386/4/6
f 385/1/6 382/1/6 386/1/6
f 383/1/6 367/1/6 387/1/6
f 386/4/6 383/4/6 387/4/6
f 370/1/6 384/1/6 388/1/6
f 385/1/6 386/1/6 388/1/6
f 386/1/6 387/1/6 388/1/6
f 384/1/6 385/1/6 388/1/6
f 388/1/6 387/1/6 389/1/6
f 389/1/6 387/1/6 390/1/6
f 387/1/6 367/1/6 391/1/6
f 390/1/6 387/1/6 391/1/6
f 370/1/6 388/1/6 392/1/6
f 389/1/6 390/1/6 393/1/6
f 390/4/6 391/4/6 394/4/6
f 393/1/6 390/1/6 394/1/6
f 391/1/6 367/1/6 395/1/6
f 394/4/6 391/4/6 395/4/6
f 366/1/6 370/1/6 396/1/6
f 370/1/6 392/1/6 396/1/6
f 394/1/6 395/1/6 396/1/6
f 393/1/6 394/1/6 396/1/6
f 392/1/6 393/1/6 396/1/6
f 395/1/6 367/1/6 397/1/6
f 396/1/6 395/1/6 397/1/6
f 398/2/6 399/2/6 400/2/6
f 400/2/6 399/2/6 401/2/6
f 402/2/6 403/2/6 404/2/6
f 404/2/6 403/2/6 405/2/6
f 406/2/6 407/2/6 408/2/6
f 408/2/6 407/2/6 409/2/6
